  0
SECTION
  2
HEADER
  9
$ACADVER
  1
AC1014
  9
$HANDSEED
  5
FFFF
  9
$MEASUREMENT
 70
     1
  0
ENDSEC
  0
SECTION
  2
TABLES
  0
TABLE
  2
VPORT
  5
8
330
0
100
AcDbSymbolTable
 70
     4
  0
VPORT
  5
2E
330
8
100
AcDbSymbolTableRecord
100
AcDbViewportTableRecord
  2
*ACTIVE
 70
     0
 10
0.0
 20
0.0
 11
1.0
 21
1.0
 12
210.0
 22
148.5
 13
0.0
 23
0.0
 14
10.0
 24
10.0
 15
10.0
 25
10.0
 16
0.0
 26
0.0
 36
1.0
 17
0.0
 27
0.0
 37
0.0
 40
341.0
 41
1.24
 42
50.0
 43
0.0
 44
0.0
 50
0.0
 51
0.0
 71
     0
 72
   100
 73
     1
 74
     3
 75
     0
 76
     0
 77
     0
 78
     0
  0
ENDTAB
  0
TABLE
  2
LTYPE
  5
5
330
0
100
AcDbSymbolTable
 70
     1
  0
LTYPE
  5
14
330
5
100
AcDbSymbolTableRecord
100
AcDbLinetypeTableRecord
  2
BYBLOCK
 70
     0
  3

 72
    65
 73
     0
 40
0.0
  0
LTYPE
  5
15
330
5
100
AcDbSymbolTableRecord
100
AcDbLinetypeTableRecord
  2
BYLAYER
 70
     0
  3

 72
    65
 73
     0
 40
0.0
  0
LTYPE
  5
16
330
5
100
AcDbSymbolTableRecord
100
AcDbLinetypeTableRecord
  2
CONTINUOUS
 70
     0
  3
Solid line
 72
    65
 73
     0
 40
0.0
  0
ENDTAB
  0
TABLE
  2
LAYER
  5
2
100
AcDbSymbolTable
 70
2
  0
LAYER
  5
50
100
AcDbSymbolTableRecord
100
AcDbLayerTableRecord
  2
0
 70
0
  6
CONTINUOUS
  0
LAYER
  5
51
100
AcDbSymbolTableRecord
100
AcDbLayerTableRecord
  2
Layer_1
 70
0
  6
CONTINUOUS
  0
ENDTAB
  0
TABLE
  2
STYLE
  5
3
330
0
100
AcDbSymbolTable
 70
     1
  0
STYLE
  5
11
330
3
100
AcDbSymbolTableRecord
100
AcDbTextStyleTableRecord
  2
STANDARD
 70
     0
 40
0.0
 41
1.0
 50
0.0
 71
     0
 42
2.5
  3
txt
  4

  0
ENDTAB
  0
TABLE
  2
VIEW
  5
6
330
0
100
AcDbSymbolTable
 70
     0
  0
ENDTAB
  0
TABLE
  2
UCS
  5
7
330
0
100
AcDbSymbolTable
 70
     0
  0
ENDTAB
  0
TABLE
  2
APPID
  5
9
330
0
100
AcDbSymbolTable
 70
     2
  0
APPID
  5
12
330
9
100
AcDbSymbolTableRecord
100
AcDbRegAppTableRecord
  2
ACAD
 70
     0
  0
ENDTAB
  0
TABLE
  2
DIMSTYLE
  5
A
330
0
100
AcDbSymbolTable
 70
     1
  0
DIMSTYLE
105
27
330
A
100
AcDbSymbolTableRecord
100
AcDbDimStyleTableRecord
  2
ISO-25
 70
     0
  3

  4

  5

  6

  7

 40
1.0
 41
2.5
 42
0.625
 43
3.75
 44
1.25
 45
0.0
 46
0.0
 47
0.0
 48
0.0
140
2.5
141
2.5
142
0.0
143
0.03937007874016
144
1.0
145
0.0
146
1.0
147
0.625
 71
     0
 72
     0
 73
     0
 74
     0
 75
     0
 76
     0
 77
     1
 78
     8
170
     0
171
     3
172
     1
173
     0
174
     0
175
     0
176
     0
177
     0
178
     0
270
     2
271
     2
272
     2
273
     2
274
     3
340
11
275
     0
280
     0
281
     0
282
     0
283
     0
284
     8
285
     0
286
     0
287
     3
288
     0
  0
ENDTAB
  0
TABLE
  2
BLOCK_RECORD
  5
1
330
0
100
AcDbSymbolTable
 70
     1
  0
BLOCK_RECORD
  5
1F
330
1
100
AcDbSymbolTableRecord
100
AcDbBlockTableRecord
  2
*MODEL_SPACE
  0
BLOCK_RECORD
  5
1B
330
1
100
AcDbSymbolTableRecord
100
AcDbBlockTableRecord
  2
*PAPER_SPACE
  0
ENDTAB
  0
ENDSEC
  0
SECTION
  2
BLOCKS
  0
BLOCK
  5
20
330
1F
100
AcDbEntity
  8
0
100
AcDbBlockBegin
  2
*MODEL_SPACE
 70
     0
 10
0.0
 20
0.0
 30
0.0
  3
*MODEL_SPACE
  1

  0
ENDBLK
  5
21
330
1F
100
AcDbEntity
  8
0
100
AcDbBlockEnd
  0
BLOCK
  5
1C
330
1B
100
AcDbEntity
 67
     1
  8
0
100
AcDbBlockBegin
  2
*PAPER_SPACE
  1

  0
ENDBLK
  5
1D
330
1B
100
AcDbEntity
 67
     1
  8
0
100
AcDbBlockEnd
  0
ENDSEC
  0
SECTION
  2
ENTITIES
  0
SPLINE
  5
100
100
AcDbEntity
  8
Layer_1
 62
7
100
AcDbSpline
 70
8
 71
3
 72
8
 73
4
 74
0
 40
0
 40
0
 40
0
 40
0
 40
1
 40
1
 40
1
 40
1
 10
10.903202
 20
33.464589
 30
0.0
 10
10.903202
 20
32.990237
 30
0.0
 10
10.518665
 20
32.605701
 30
0.0
 10
10.044313
 20
32.605701
 30
0.0
  0
SPLINE
  5
101
100
AcDbEntity
  8
Layer_1
 62
7
100
AcDbSpline
 70
8
 71
3
 72
8
 73
4
 74
0
 40
0
 40
0
 40
0
 40
0
 40
1
 40
1
 40
1
 40
1
 10
10.044313
 20
32.605701
 30
0.0
 10
9.569961
 20
32.605701
 30
0.0
 10
9.185424
 20
32.990237
 30
0.0
 10
9.185424
 20
33.464589
 30
0.0
  0
SPLINE
  5
102
100
AcDbEntity
  8
Layer_1
 62
7
100
AcDbSpline
 70
8
 71
3
 72
8
 73
4
 74
0
 40
0
 40
0
 40
0
 40
0
 40
1
 40
1
 40
1
 40
1
 10
9.185424
 20
33.464589
 30
0.0
 10
9.185424
 20
33.938939
 30
0.0
 10
9.569961
 20
34.323478
 30
0.0
 10
10.044313
 20
34.323478
 30
0.0
  0
SPLINE
  5
103
100
AcDbEntity
  8
Layer_1
 62
7
100
AcDbSpline
 70
8
 71
3
 72
8
 73
4
 74
0
 40
0
 40
0
 40
0
 40
0
 40
1
 40
1
 40
1
 40
1
 10
10.044313
 20
34.323478
 30
0.0
 10
10.518665
 20
34.323478
 30
0.0
 10
10.903202
 20
33.938939
 30
0.0
 10
10.903202
 20
33.464589
 30
0.0
  0
LWPOLYLINE
  5
104
100
AcDbEntity
  8
Layer_1
 62
7
100
AcDbPolyline
 90
5
 70
0
 10
5.185425
 20
35.214473
 30
0.0
 10
44.903202
 20
35.214473
 30
0.0
 10
44.903202
 20
3.996696
 30
0.0
 10
5.185425
 20
3.996696
 30
0.0
 10
5.185425
 20
35.214473
 30
0.0
  0
SPLINE
  5
105
100
AcDbEntity
  8
Layer_1
 62
7
100
AcDbSpline
 70
8
 71
3
 72
8
 73
4
 74
0
 40
0
 40
0
 40
0
 40
0
 40
1
 40
1
 40
1
 40
1
 10
10.903202
 20
5.746580
 30
0.0
 10
10.903202
 20
5.272228
 30
0.0
 10
10.518665
 20
4.887691
 30
0.0
 10
10.044313
 20
4.887691
 30
0.0
  0
SPLINE
  5
106
100
AcDbEntity
  8
Layer_1
 62
7
100
AcDbSpline
 70
8
 71
3
 72
8
 73
4
 74
0
 40
0
 40
0
 40
0
 40
0
 40
1
 40
1
 40
1
 40
1
 10
10.044313
 20
4.887691
 30
0.0
 10
9.569961
 20
4.887691
 30
0.0
 10
9.185424
 20
5.272228
 30
0.0
 10
9.185424
 20
5.746580
 30
0.0
  0
SPLINE
  5
107
100
AcDbEntity
  8
Layer_1
 62
7
100
AcDbSpline
 70
8
 71
3
 72
8
 73
4
 74
0
 40
0
 40
0
 40
0
 40
0
 40
1
 40
1
 40
1
 40
1
 10
9.185424
 20
5.746580
 30
0.0
 10
9.185424
 20
6.220930
 30
0.0
 10
9.569961
 20
6.605468
 30
0.0
 10
10.044313
 20
6.605468
 30
0.0
  0
SPLINE
  5
108
100
AcDbEntity
  8
Layer_1
 62
7
100
AcDbSpline
 70
8
 71
3
 72
8
 73
4
 74
0
 40
0
 40
0
 40
0
 40
0
 40
1
 40
1
 40
1
 40
1
 10
10.044313
 20
6.605468
 30
0.0
 10
10.518665
 20
6.605468
 30
0.0
 10
10.903202
 20
6.220930
 30
0.0
 10
10.903202
 20
5.746580
 30
0.0
  0
LWPOLYLINE
  5
109
100
AcDbEntity
  8
Layer_1
 62
7
100
AcDbPolyline
 90
2
 70
0
 10
10.903202
 20
33.464589
 30
0.0
 10
10.903202
 20
33.464589
 30
0.0
  0
SPLINE
  5
10a
100
AcDbEntity
  8
Layer_1
 62
7
100
AcDbSpline
 70
8
 71
3
 72
8
 73
4
 74
0
 40
0
 40
0
 40
0
 40
0
 40
1
 40
1
 40
1
 40
1
 10
41.903217
 20
33.464589
 30
0.0
 10
41.903217
 20
32.990237
 30
0.0
 10
41.518680
 20
32.605701
 30
0.0
 10
41.044328
 20
32.605701
 30
0.0
  0
SPLINE
  5
10b
100
AcDbEntity
  8
Layer_1
 62
7
100
AcDbSpline
 70
8
 71
3
 72
8
 73
4
 74
0
 40
0
 40
0
 40
0
 40
0
 40
1
 40
1
 40
1
 40
1
 10
41.044328
 20
32.605701
 30
0.0
 10
40.569976
 20
32.605701
 30
0.0
 10
40.185439
 20
32.990237
 30
0.0
 10
40.185439
 20
33.464589
 30
0.0
  0
SPLINE
  5
10c
100
AcDbEntity
  8
Layer_1
 62
7
100
AcDbSpline
 70
8
 71
3
 72
8
 73
4
 74
0
 40
0
 40
0
 40
0
 40
0
 40
1
 40
1
 40
1
 40
1
 10
40.185439
 20
33.464589
 30
0.0
 10
40.185439
 20
33.938939
 30
0.0
 10
40.569976
 20
34.323478
 30
0.0
 10
41.044328
 20
34.323478
 30
0.0
  0
SPLINE
  5
10d
100
AcDbEntity
  8
Layer_1
 62
7
100
AcDbSpline
 70
8
 71
3
 72
8
 73
4
 74
0
 40
0
 40
0
 40
0
 40
0
 40
1
 40
1
 40
1
 40
1
 10
41.044328
 20
34.323478
 30
0.0
 10
41.518680
 20
34.323478
 30
0.0
 10
41.903217
 20
33.938939
 30
0.0
 10
41.903217
 20
33.464589
 30
0.0
  0
LWPOLYLINE
  5
10e
100
AcDbEntity
  8
Layer_1
 62
7
100
AcDbPolyline
 90
2
 70
0
 10
10.903202
 20
5.746580
 30
0.0
 10
10.903202
 20
5.746580
 30
0.0
  0
SPLINE
  5
10f
100
AcDbEntity
  8
Layer_1
 62
7
100
AcDbSpline
 70
8
 71
3
 72
8
 73
4
 74
0
 40
0
 40
0
 40
0
 40
0
 40
1
 40
1
 40
1
 40
1
 10
41.903217
 20
5.746580
 30
0.0
 10
41.903217
 20
5.272228
 30
0.0
 10
41.518680
 20
4.887691
 30
0.0
 10
41.044328
 20
4.887691
 30
0.0
  0
SPLINE
  5
110
100
AcDbEntity
  8
Layer_1
 62
7
100
AcDbSpline
 70
8
 71
3
 72
8
 73
4
 74
0
 40
0
 40
0
 40
0
 40
0
 40
1
 40
1
 40
1
 40
1
 10
41.044328
 20
4.887691
 30
0.0
 10
40.569976
 20
4.887691
 30
0.0
 10
40.185439
 20
5.272228
 30
0.0
 10
40.185439
 20
5.746580
 30
0.0
  0
SPLINE
  5
111
100
AcDbEntity
  8
Layer_1
 62
7
100
AcDbSpline
 70
8
 71
3
 72
8
 73
4
 74
0
 40
0
 40
0
 40
0
 40
0
 40
1
 40
1
 40
1
 40
1
 10
40.185439
 20
5.746580
 30
0.0
 10
40.185439
 20
6.220930
 30
0.0
 10
40.569976
 20
6.605468
 30
0.0
 10
41.044328
 20
6.605468
 30
0.0
  0
SPLINE
  5
112
100
AcDbEntity
  8
Layer_1
 62
7
100
AcDbSpline
 70
8
 71
3
 72
8
 73
4
 74
0
 40
0
 40
0
 40
0
 40
0
 40
1
 40
1
 40
1
 40
1
 10
41.044328
 20
6.605468
 30
0.0
 10
41.518680
 20
6.605468
 30
0.0
 10
41.903217
 20
6.220930
 30
0.0
 10
41.903217
 20
5.746580
 30
0.0
  0
LWPOLYLINE
  5
113
100
AcDbEntity
  8
Layer_1
 62
7
100
AcDbPolyline
 90
2
 70
0
 10
41.903217
 20
33.464589
 30
0.0
 10
41.903217
 20
33.464589
 30
0.0
  0
SPLINE
  5
114
100
AcDbEntity
  8
Layer_1
 62
7
100
AcDbSpline
 70
8
 71
3
 72
8
 73
4
 74
0
 40
0
 40
0
 40
0
 40
0
 40
1
 40
1
 40
1
 40
1
 10
8.903200
 20
19.605582
 30
0.0
 10
8.903200
 20
19.131230
 30
0.0
 10
8.518663
 20
18.746693
 30
0.0
 10
8.044311
 20
18.746693
 30
0.0
  0
SPLINE
  5
115
100
AcDbEntity
  8
Layer_1
 62
7
100
AcDbSpline
 70
8
 71
3
 72
8
 73
4
 74
0
 40
0
 40
0
 40
0
 40
0
 40
1
 40
1
 40
1
 40
1
 10
8.044311
 20
18.746693
 30
0.0
 10
7.569959
 20
18.746693
 30
0.0
 10
7.185423
 20
19.131230
 30
0.0
 10
7.185423
 20
19.605582
 30
0.0
  0
SPLINE
  5
116
100
AcDbEntity
  8
Layer_1
 62
7
100
AcDbSpline
 70
8
 71
3
 72
8
 73
4
 74
0
 40
0
 40
0
 40
0
 40
0
 40
1
 40
1
 40
1
 40
1
 10
7.185423
 20
19.605582
 30
0.0
 10
7.185423
 20
20.079932
 30
0.0
 10
7.569959
 20
20.464470
 30
0.0
 10
8.044311
 20
20.464470
 30
0.0
  0
SPLINE
  5
117
100
AcDbEntity
  8
Layer_1
 62
7
100
AcDbSpline
 70
8
 71
3
 72
8
 73
4
 74
0
 40
0
 40
0
 40
0
 40
0
 40
1
 40
1
 40
1
 40
1
 10
8.044311
 20
20.464470
 30
0.0
 10
8.518663
 20
20.464470
 30
0.0
 10
8.903200
 20
20.079932
 30
0.0
 10
8.903200
 20
19.605582
 30
0.0
  0
LWPOLYLINE
  5
118
100
AcDbEntity
  8
Layer_1
 62
7
100
AcDbPolyline
 90
2
 70
0
 10
41.903217
 20
5.746580
 30
0.0
 10
41.903217
 20
5.746580
 30
0.0
  0
LWPOLYLINE
  5
119
100
AcDbEntity
  8
Layer_1
 62
7
100
AcDbPolyline
 90
2
 70
0
 10
8.903200
 20
19.605582
 30
0.0
 10
8.903200
 20
19.605582
 30
0.0
  0
SPLINE
  5
11a
100
AcDbEntity
  8
Layer_1
 62
7
100
AcDbSpline
 70
8
 71
3
 72
8
 73
4
 74
0
 40
0
 40
0
 40
0
 40
0
 40
1
 40
1
 40
1
 40
1
 10
54.878309
 20
33.464589
 30
0.0
 10
54.878309
 20
32.990237
 30
0.0
 10
54.493772
 20
32.605701
 30
0.0
 10
54.019420
 20
32.605701
 30
0.0
  0
SPLINE
  5
11b
100
AcDbEntity
  8
Layer_1
 62
7
100
AcDbSpline
 70
8
 71
3
 72
8
 73
4
 74
0
 40
0
 40
0
 40
0
 40
0
 40
1
 40
1
 40
1
 40
1
 10
54.019420
 20
32.605701
 30
0.0
 10
53.545068
 20
32.605701
 30
0.0
 10
53.160532
 20
32.990237
 30
0.0
 10
53.160532
 20
33.464589
 30
0.0
  0
SPLINE
  5
11c
100
AcDbEntity
  8
Layer_1
 62
7
100
AcDbSpline
 70
8
 71
3
 72
8
 73
4
 74
0
 40
0
 40
0
 40
0
 40
0
 40
1
 40
1
 40
1
 40
1
 10
53.160532
 20
33.464589
 30
0.0
 10
53.160532
 20
33.938939
 30
0.0
 10
53.545068
 20
34.323478
 30
0.0
 10
54.019420
 20
34.323478
 30
0.0
  0
SPLINE
  5
11d
100
AcDbEntity
  8
Layer_1
 62
7
100
AcDbSpline
 70
8
 71
3
 72
8
 73
4
 74
0
 40
0
 40
0
 40
0
 40
0
 40
1
 40
1
 40
1
 40
1
 10
54.019420
 20
34.323478
 30
0.0
 10
54.493772
 20
34.323478
 30
0.0
 10
54.878309
 20
33.938939
 30
0.0
 10
54.878309
 20
33.464589
 30
0.0
  0
LWPOLYLINE
  5
11e
100
AcDbEntity
  8
Layer_1
 62
7
100
AcDbPolyline
 90
5
 70
0
 10
49.160532
 20
35.214473
 30
0.0
 10
88.878309
 20
35.214473
 30
0.0
 10
88.878309
 20
3.996696
 30
0.0
 10
49.160532
 20
3.996696
 30
0.0
 10
49.160532
 20
35.214473
 30
0.0
  0
SPLINE
  5
11f
100
AcDbEntity
  8
Layer_1
 62
7
100
AcDbSpline
 70
8
 71
3
 72
8
 73
4
 74
0
 40
0
 40
0
 40
0
 40
0
 40
1
 40
1
 40
1
 40
1
 10
54.878309
 20
5.746580
 30
0.0
 10
54.878309
 20
5.272228
 30
0.0
 10
54.493772
 20
4.887691
 30
0.0
 10
54.019420
 20
4.887691
 30
0.0
  0
SPLINE
  5
120
100
AcDbEntity
  8
Layer_1
 62
7
100
AcDbSpline
 70
8
 71
3
 72
8
 73
4
 74
0
 40
0
 40
0
 40
0
 40
0
 40
1
 40
1
 40
1
 40
1
 10
54.019420
 20
4.887691
 30
0.0
 10
53.545068
 20
4.887691
 30
0.0
 10
53.160532
 20
5.272228
 30
0.0
 10
53.160532
 20
5.746580
 30
0.0
  0
SPLINE
  5
121
100
AcDbEntity
  8
Layer_1
 62
7
100
AcDbSpline
 70
8
 71
3
 72
8
 73
4
 74
0
 40
0
 40
0
 40
0
 40
0
 40
1
 40
1
 40
1
 40
1
 10
53.160532
 20
5.746580
 30
0.0
 10
53.160532
 20
6.220930
 30
0.0
 10
53.545068
 20
6.605468
 30
0.0
 10
54.019420
 20
6.605468
 30
0.0
  0
SPLINE
  5
122
100
AcDbEntity
  8
Layer_1
 62
7
100
AcDbSpline
 70
8
 71
3
 72
8
 73
4
 74
0
 40
0
 40
0
 40
0
 40
0
 40
1
 40
1
 40
1
 40
1
 10
54.019420
 20
6.605468
 30
0.0
 10
54.493772
 20
6.605468
 30
0.0
 10
54.878309
 20
6.220930
 30
0.0
 10
54.878309
 20
5.746580
 30
0.0
  0
LWPOLYLINE
  5
123
100
AcDbEntity
  8
Layer_1
 62
7
100
AcDbPolyline
 90
2
 70
0
 10
54.878309
 20
33.464589
 30
0.0
 10
54.878309
 20
33.464589
 30
0.0
  0
SPLINE
  5
124
100
AcDbEntity
  8
Layer_1
 62
7
100
AcDbSpline
 70
8
 71
3
 72
8
 73
4
 74
0
 40
0
 40
0
 40
0
 40
0
 40
1
 40
1
 40
1
 40
1
 10
85.878324
 20
33.464589
 30
0.0
 10
85.878324
 20
32.990237
 30
0.0
 10
85.493787
 20
32.605701
 30
0.0
 10
85.019435
 20
32.605701
 30
0.0
  0
SPLINE
  5
125
100
AcDbEntity
  8
Layer_1
 62
7
100
AcDbSpline
 70
8
 71
3
 72
8
 73
4
 74
0
 40
0
 40
0
 40
0
 40
0
 40
1
 40
1
 40
1
 40
1
 10
85.019435
 20
32.605701
 30
0.0
 10
84.545083
 20
32.605701
 30
0.0
 10
84.160547
 20
32.990237
 30
0.0
 10
84.160547
 20
33.464589
 30
0.0
  0
SPLINE
  5
126
100
AcDbEntity
  8
Layer_1
 62
7
100
AcDbSpline
 70
8
 71
3
 72
8
 73
4
 74
0
 40
0
 40
0
 40
0
 40
0
 40
1
 40
1
 40
1
 40
1
 10
84.160547
 20
33.464589
 30
0.0
 10
84.160547
 20
33.938939
 30
0.0
 10
84.545083
 20
34.323478
 30
0.0
 10
85.019435
 20
34.323478
 30
0.0
  0
SPLINE
  5
127
100
AcDbEntity
  8
Layer_1
 62
7
100
AcDbSpline
 70
8
 71
3
 72
8
 73
4
 74
0
 40
0
 40
0
 40
0
 40
0
 40
1
 40
1
 40
1
 40
1
 10
85.019435
 20
34.323478
 30
0.0
 10
85.493787
 20
34.323478
 30
0.0
 10
85.878324
 20
33.938939
 30
0.0
 10
85.878324
 20
33.464589
 30
0.0
  0
LWPOLYLINE
  5
128
100
AcDbEntity
  8
Layer_1
 62
7
100
AcDbPolyline
 90
2
 70
0
 10
54.878309
 20
5.746580
 30
0.0
 10
54.878309
 20
5.746580
 30
0.0
  0
SPLINE
  5
129
100
AcDbEntity
  8
Layer_1
 62
7
100
AcDbSpline
 70
8
 71
3
 72
8
 73
4
 74
0
 40
0
 40
0
 40
0
 40
0
 40
1
 40
1
 40
1
 40
1
 10
85.878324
 20
5.746580
 30
0.0
 10
85.878324
 20
5.272228
 30
0.0
 10
85.493787
 20
4.887691
 30
0.0
 10
85.019435
 20
4.887691
 30
0.0
  0
SPLINE
  5
12a
100
AcDbEntity
  8
Layer_1
 62
7
100
AcDbSpline
 70
8
 71
3
 72
8
 73
4
 74
0
 40
0
 40
0
 40
0
 40
0
 40
1
 40
1
 40
1
 40
1
 10
85.019435
 20
4.887691
 30
0.0
 10
84.545083
 20
4.887691
 30
0.0
 10
84.160547
 20
5.272228
 30
0.0
 10
84.160547
 20
5.746580
 30
0.0
  0
SPLINE
  5
12b
100
AcDbEntity
  8
Layer_1
 62
7
100
AcDbSpline
 70
8
 71
3
 72
8
 73
4
 74
0
 40
0
 40
0
 40
0
 40
0
 40
1
 40
1
 40
1
 40
1
 10
84.160547
 20
5.746580
 30
0.0
 10
84.160547
 20
6.220930
 30
0.0
 10
84.545083
 20
6.605468
 30
0.0
 10
85.019435
 20
6.605468
 30
0.0
  0
SPLINE
  5
12c
100
AcDbEntity
  8
Layer_1
 62
7
100
AcDbSpline
 70
8
 71
3
 72
8
 73
4
 74
0
 40
0
 40
0
 40
0
 40
0
 40
1
 40
1
 40
1
 40
1
 10
85.019435
 20
6.605468
 30
0.0
 10
85.493787
 20
6.605468
 30
0.0
 10
85.878324
 20
6.220930
 30
0.0
 10
85.878324
 20
5.746580
 30
0.0
  0
LWPOLYLINE
  5
12d
100
AcDbEntity
  8
Layer_1
 62
7
100
AcDbPolyline
 90
2
 70
0
 10
85.878324
 20
33.464589
 30
0.0
 10
85.878324
 20
33.464589
 30
0.0
  0
SPLINE
  5
12e
100
AcDbEntity
  8
Layer_1
 62
7
100
AcDbSpline
 70
8
 71
3
 72
8
 73
4
 74
0
 40
0
 40
0
 40
0
 40
0
 40
1
 40
1
 40
1
 40
1
 10
52.878307
 20
19.605582
 30
0.0
 10
52.878307
 20
19.131230
 30
0.0
 10
52.493770
 20
18.746693
 30
0.0
 10
52.019419
 20
18.746693
 30
0.0
  0
SPLINE
  5
12f
100
AcDbEntity
  8
Layer_1
 62
7
100
AcDbSpline
 70
8
 71
3
 72
8
 73
4
 74
0
 40
0
 40
0
 40
0
 40
0
 40
1
 40
1
 40
1
 40
1
 10
52.019419
 20
18.746693
 30
0.0
 10
51.545067
 20
18.746693
 30
0.0
 10
51.160530
 20
19.131230
 30
0.0
 10
51.160530
 20
19.605582
 30
0.0
  0
SPLINE
  5
130
100
AcDbEntity
  8
Layer_1
 62
7
100
AcDbSpline
 70
8
 71
3
 72
8
 73
4
 74
0
 40
0
 40
0
 40
0
 40
0
 40
1
 40
1
 40
1
 40
1
 10
51.160530
 20
19.605582
 30
0.0
 10
51.160530
 20
20.079932
 30
0.0
 10
51.545067
 20
20.464470
 30
0.0
 10
52.019419
 20
20.464470
 30
0.0
  0
SPLINE
  5
131
100
AcDbEntity
  8
Layer_1
 62
7
100
AcDbSpline
 70
8
 71
3
 72
8
 73
4
 74
0
 40
0
 40
0
 40
0
 40
0
 40
1
 40
1
 40
1
 40
1
 10
52.019419
 20
20.464470
 30
0.0
 10
52.493770
 20
20.464470
 30
0.0
 10
52.878307
 20
20.079932
 30
0.0
 10
52.878307
 20
19.605582
 30
0.0
  0
LWPOLYLINE
  5
132
100
AcDbEntity
  8
Layer_1
 62
7
100
AcDbPolyline
 90
2
 70
0
 10
85.878324
 20
5.746580
 30
0.0
 10
85.878324
 20
5.746580
 30
0.0
  0
LWPOLYLINE
  5
133
100
AcDbEntity
  8
Layer_1
 62
7
100
AcDbPolyline
 90
2
 70
0
 10
52.878307
 20
19.605582
 30
0.0
 10
52.878307
 20
19.605582
 30
0.0
  0
SPLINE
  5
134
100
AcDbEntity
  8
Layer_1
 62
7
100
AcDbSpline
 70
8
 71
3
 72
8
 73
4
 74
0
 40
0
 40
0
 40
0
 40
0
 40
1
 40
1
 40
1
 40
1
 10
98.864660
 20
33.464589
 30
0.0
 10
98.864660
 20
32.990237
 30
0.0
 10
98.480123
 20
32.605701
 30
0.0
 10
98.005771
 20
32.605701
 30
0.0
  0
SPLINE
  5
135
100
AcDbEntity
  8
Layer_1
 62
7
100
AcDbSpline
 70
8
 71
3
 72
8
 73
4
 74
0
 40
0
 40
0
 40
0
 40
0
 40
1
 40
1
 40
1
 40
1
 10
98.005771
 20
32.605701
 30
0.0
 10
97.531419
 20
32.605701
 30
0.0
 10
97.146882
 20
32.990237
 30
0.0
 10
97.146882
 20
33.464589
 30
0.0
  0
SPLINE
  5
136
100
AcDbEntity
  8
Layer_1
 62
7
100
AcDbSpline
 70
8
 71
3
 72
8
 73
4
 74
0
 40
0
 40
0
 40
0
 40
0
 40
1
 40
1
 40
1
 40
1
 10
97.146882
 20
33.464589
 30
0.0
 10
97.146882
 20
33.938939
 30
0.0
 10
97.531419
 20
34.323478
 30
0.0
 10
98.005771
 20
34.323478
 30
0.0
  0
SPLINE
  5
137
100
AcDbEntity
  8
Layer_1
 62
7
100
AcDbSpline
 70
8
 71
3
 72
8
 73
4
 74
0
 40
0
 40
0
 40
0
 40
0
 40
1
 40
1
 40
1
 40
1
 10
98.005771
 20
34.323478
 30
0.0
 10
98.480123
 20
34.323478
 30
0.0
 10
98.864660
 20
33.938939
 30
0.0
 10
98.864660
 20
33.464589
 30
0.0
  0
LWPOLYLINE
  5
138
100
AcDbEntity
  8
Layer_1
 62
7
100
AcDbPolyline
 90
5
 70
0
 10
93.146883
 20
35.214473
 30
0.0
 10
132.864660
 20
35.214473
 30
0.0
 10
132.864660
 20
3.996696
 30
0.0
 10
93.146883
 20
3.996696
 30
0.0
 10
93.146883
 20
35.214473
 30
0.0
  0
SPLINE
  5
139
100
AcDbEntity
  8
Layer_1
 62
7
100
AcDbSpline
 70
8
 71
3
 72
8
 73
4
 74
0
 40
0
 40
0
 40
0
 40
0
 40
1
 40
1
 40
1
 40
1
 10
98.864660
 20
5.746580
 30
0.0
 10
98.864660
 20
5.272228
 30
0.0
 10
98.480123
 20
4.887691
 30
0.0
 10
98.005771
 20
4.887691
 30
0.0
  0
SPLINE
  5
13a
100
AcDbEntity
  8
Layer_1
 62
7
100
AcDbSpline
 70
8
 71
3
 72
8
 73
4
 74
0
 40
0
 40
0
 40
0
 40
0
 40
1
 40
1
 40
1
 40
1
 10
98.005771
 20
4.887691
 30
0.0
 10
97.531419
 20
4.887691
 30
0.0
 10
97.146882
 20
5.272228
 30
0.0
 10
97.146882
 20
5.746580
 30
0.0
  0
SPLINE
  5
13b
100
AcDbEntity
  8
Layer_1
 62
7
100
AcDbSpline
 70
8
 71
3
 72
8
 73
4
 74
0
 40
0
 40
0
 40
0
 40
0
 40
1
 40
1
 40
1
 40
1
 10
97.146882
 20
5.746580
 30
0.0
 10
97.146882
 20
6.220930
 30
0.0
 10
97.531419
 20
6.605468
 30
0.0
 10
98.005771
 20
6.605468
 30
0.0
  0
SPLINE
  5
13c
100
AcDbEntity
  8
Layer_1
 62
7
100
AcDbSpline
 70
8
 71
3
 72
8
 73
4
 74
0
 40
0
 40
0
 40
0
 40
0
 40
1
 40
1
 40
1
 40
1
 10
98.005771
 20
6.605468
 30
0.0
 10
98.480123
 20
6.605468
 30
0.0
 10
98.864660
 20
6.220930
 30
0.0
 10
98.864660
 20
5.746580
 30
0.0
  0
LWPOLYLINE
  5
13d
100
AcDbEntity
  8
Layer_1
 62
7
100
AcDbPolyline
 90
2
 70
0
 10
98.864660
 20
33.464589
 30
0.0
 10
98.864660
 20
33.464589
 30
0.0
  0
SPLINE
  5
13e
100
AcDbEntity
  8
Layer_1
 62
7
100
AcDbSpline
 70
8
 71
3
 72
8
 73
4
 74
0
 40
0
 40
0
 40
0
 40
0
 40
1
 40
1
 40
1
 40
1
 10
129.864675
 20
33.464589
 30
0.0
 10
129.864675
 20
32.990237
 30
0.0
 10
129.480138
 20
32.605701
 30
0.0
 10
129.005786
 20
32.605701
 30
0.0
  0
SPLINE
  5
13f
100
AcDbEntity
  8
Layer_1
 62
7
100
AcDbSpline
 70
8
 71
3
 72
8
 73
4
 74
0
 40
0
 40
0
 40
0
 40
0
 40
1
 40
1
 40
1
 40
1
 10
129.005786
 20
32.605701
 30
0.0
 10
128.531434
 20
32.605701
 30
0.0
 10
128.146897
 20
32.990237
 30
0.0
 10
128.146897
 20
33.464589
 30
0.0
  0
SPLINE
  5
140
100
AcDbEntity
  8
Layer_1
 62
7
100
AcDbSpline
 70
8
 71
3
 72
8
 73
4
 74
0
 40
0
 40
0
 40
0
 40
0
 40
1
 40
1
 40
1
 40
1
 10
128.146897
 20
33.464589
 30
0.0
 10
128.146897
 20
33.938939
 30
0.0
 10
128.531434
 20
34.323478
 30
0.0
 10
129.005786
 20
34.323478
 30
0.0
  0
SPLINE
  5
141
100
AcDbEntity
  8
Layer_1
 62
7
100
AcDbSpline
 70
8
 71
3
 72
8
 73
4
 74
0
 40
0
 40
0
 40
0
 40
0
 40
1
 40
1
 40
1
 40
1
 10
129.005786
 20
34.323478
 30
0.0
 10
129.480138
 20
34.323478
 30
0.0
 10
129.864675
 20
33.938939
 30
0.0
 10
129.864675
 20
33.464589
 30
0.0
  0
LWPOLYLINE
  5
142
100
AcDbEntity
  8
Layer_1
 62
7
100
AcDbPolyline
 90
2
 70
0
 10
98.864660
 20
5.746580
 30
0.0
 10
98.864660
 20
5.746580
 30
0.0
  0
SPLINE
  5
143
100
AcDbEntity
  8
Layer_1
 62
7
100
AcDbSpline
 70
8
 71
3
 72
8
 73
4
 74
0
 40
0
 40
0
 40
0
 40
0
 40
1
 40
1
 40
1
 40
1
 10
129.864675
 20
5.746580
 30
0.0
 10
129.864675
 20
5.272228
 30
0.0
 10
129.480138
 20
4.887691
 30
0.0
 10
129.005786
 20
4.887691
 30
0.0
  0
SPLINE
  5
144
100
AcDbEntity
  8
Layer_1
 62
7
100
AcDbSpline
 70
8
 71
3
 72
8
 73
4
 74
0
 40
0
 40
0
 40
0
 40
0
 40
1
 40
1
 40
1
 40
1
 10
129.005786
 20
4.887691
 30
0.0
 10
128.531434
 20
4.887691
 30
0.0
 10
128.146897
 20
5.272228
 30
0.0
 10
128.146897
 20
5.746580
 30
0.0
  0
SPLINE
  5
145
100
AcDbEntity
  8
Layer_1
 62
7
100
AcDbSpline
 70
8
 71
3
 72
8
 73
4
 74
0
 40
0
 40
0
 40
0
 40
0
 40
1
 40
1
 40
1
 40
1
 10
128.146897
 20
5.746580
 30
0.0
 10
128.146897
 20
6.220930
 30
0.0
 10
128.531434
 20
6.605468
 30
0.0
 10
129.005786
 20
6.605468
 30
0.0
  0
SPLINE
  5
146
100
AcDbEntity
  8
Layer_1
 62
7
100
AcDbSpline
 70
8
 71
3
 72
8
 73
4
 74
0
 40
0
 40
0
 40
0
 40
0
 40
1
 40
1
 40
1
 40
1
 10
129.005786
 20
6.605468
 30
0.0
 10
129.480138
 20
6.605468
 30
0.0
 10
129.864675
 20
6.220930
 30
0.0
 10
129.864675
 20
5.746580
 30
0.0
  0
LWPOLYLINE
  5
147
100
AcDbEntity
  8
Layer_1
 62
7
100
AcDbPolyline
 90
2
 70
0
 10
129.864675
 20
33.464589
 30
0.0
 10
129.864675
 20
33.464589
 30
0.0
  0
SPLINE
  5
148
100
AcDbEntity
  8
Layer_1
 62
7
100
AcDbSpline
 70
8
 71
3
 72
8
 73
4
 74
0
 40
0
 40
0
 40
0
 40
0
 40
1
 40
1
 40
1
 40
1
 10
96.864658
 20
19.605582
 30
0.0
 10
96.864658
 20
19.131230
 30
0.0
 10
96.480121
 20
18.746693
 30
0.0
 10
96.005769
 20
18.746693
 30
0.0
  0
SPLINE
  5
149
100
AcDbEntity
  8
Layer_1
 62
7
100
AcDbSpline
 70
8
 71
3
 72
8
 73
4
 74
0
 40
0
 40
0
 40
0
 40
0
 40
1
 40
1
 40
1
 40
1
 10
96.005769
 20
18.746693
 30
0.0
 10
95.531417
 20
18.746693
 30
0.0
 10
95.146881
 20
19.131230
 30
0.0
 10
95.146881
 20
19.605582
 30
0.0
  0
SPLINE
  5
14a
100
AcDbEntity
  8
Layer_1
 62
7
100
AcDbSpline
 70
8
 71
3
 72
8
 73
4
 74
0
 40
0
 40
0
 40
0
 40
0
 40
1
 40
1
 40
1
 40
1
 10
95.146881
 20
19.605582
 30
0.0
 10
95.146881
 20
20.079932
 30
0.0
 10
95.531417
 20
20.464470
 30
0.0
 10
96.005769
 20
20.464470
 30
0.0
  0
SPLINE
  5
14b
100
AcDbEntity
  8
Layer_1
 62
7
100
AcDbSpline
 70
8
 71
3
 72
8
 73
4
 74
0
 40
0
 40
0
 40
0
 40
0
 40
1
 40
1
 40
1
 40
1
 10
96.005769
 20
20.464470
 30
0.0
 10
96.480121
 20
20.464470
 30
0.0
 10
96.864658
 20
20.079932
 30
0.0
 10
96.864658
 20
19.605582
 30
0.0
  0
LWPOLYLINE
  5
14c
100
AcDbEntity
  8
Layer_1
 62
7
100
AcDbPolyline
 90
2
 70
0
 10
129.864675
 20
5.746580
 30
0.0
 10
129.864675
 20
5.746580
 30
0.0
  0
LWPOLYLINE
  5
14d
100
AcDbEntity
  8
Layer_1
 62
7
100
AcDbPolyline
 90
2
 70
0
 10
96.864658
 20
19.605582
 30
0.0
 10
96.864658
 20
19.605582
 30
0.0
  0
SPLINE
  5
14e
100
AcDbEntity
  8
Layer_1
 62
7
100
AcDbSpline
 70
8
 71
3
 72
8
 73
4
 74
0
 40
0
 40
0
 40
0
 40
0
 40
1
 40
1
 40
1
 40
1
 10
10.903202
 20
67.470386
 30
0.0
 10
10.903202
 20
66.996034
 30
0.0
 10
10.518665
 20
66.611497
 30
0.0
 10
10.044313
 20
66.611497
 30
0.0
  0
SPLINE
  5
14f
100
AcDbEntity
  8
Layer_1
 62
7
100
AcDbSpline
 70
8
 71
3
 72
8
 73
4
 74
0
 40
0
 40
0
 40
0
 40
0
 40
1
 40
1
 40
1
 40
1
 10
10.044313
 20
66.611497
 30
0.0
 10
9.569961
 20
66.611497
 30
0.0
 10
9.185424
 20
66.996034
 30
0.0
 10
9.185424
 20
67.470386
 30
0.0
  0
SPLINE
  5
150
100
AcDbEntity
  8
Layer_1
 62
7
100
AcDbSpline
 70
8
 71
3
 72
8
 73
4
 74
0
 40
0
 40
0
 40
0
 40
0
 40
1
 40
1
 40
1
 40
1
 10
9.185424
 20
67.470386
 30
0.0
 10
9.185424
 20
67.944736
 30
0.0
 10
9.569961
 20
68.329274
 30
0.0
 10
10.044313
 20
68.329274
 30
0.0
  0
SPLINE
  5
151
100
AcDbEntity
  8
Layer_1
 62
7
100
AcDbSpline
 70
8
 71
3
 72
8
 73
4
 74
0
 40
0
 40
0
 40
0
 40
0
 40
1
 40
1
 40
1
 40
1
 10
10.044313
 20
68.329274
 30
0.0
 10
10.518665
 20
68.329274
 30
0.0
 10
10.903202
 20
67.944736
 30
0.0
 10
10.903202
 20
67.470386
 30
0.0
  0
LWPOLYLINE
  5
152
100
AcDbEntity
  8
Layer_1
 62
7
100
AcDbPolyline
 90
5
 70
0
 10
5.185425
 20
69.220269
 30
0.0
 10
44.903202
 20
69.220269
 30
0.0
 10
44.903202
 20
38.002492
 30
0.0
 10
5.185425
 20
38.002492
 30
0.0
 10
5.185425
 20
69.220269
 30
0.0
  0
SPLINE
  5
153
100
AcDbEntity
  8
Layer_1
 62
7
100
AcDbSpline
 70
8
 71
3
 72
8
 73
4
 74
0
 40
0
 40
0
 40
0
 40
0
 40
1
 40
1
 40
1
 40
1
 10
10.903202
 20
39.752376
 30
0.0
 10
10.903202
 20
39.278024
 30
0.0
 10
10.518665
 20
38.893487
 30
0.0
 10
10.044313
 20
38.893487
 30
0.0
  0
SPLINE
  5
154
100
AcDbEntity
  8
Layer_1
 62
7
100
AcDbSpline
 70
8
 71
3
 72
8
 73
4
 74
0
 40
0
 40
0
 40
0
 40
0
 40
1
 40
1
 40
1
 40
1
 10
10.044313
 20
38.893487
 30
0.0
 10
9.569961
 20
38.893487
 30
0.0
 10
9.185424
 20
39.278024
 30
0.0
 10
9.185424
 20
39.752376
 30
0.0
  0
SPLINE
  5
155
100
AcDbEntity
  8
Layer_1
 62
7
100
AcDbSpline
 70
8
 71
3
 72
8
 73
4
 74
0
 40
0
 40
0
 40
0
 40
0
 40
1
 40
1
 40
1
 40
1
 10
9.185424
 20
39.752376
 30
0.0
 10
9.185424
 20
40.226726
 30
0.0
 10
9.569961
 20
40.611265
 30
0.0
 10
10.044313
 20
40.611265
 30
0.0
  0
SPLINE
  5
156
100
AcDbEntity
  8
Layer_1
 62
7
100
AcDbSpline
 70
8
 71
3
 72
8
 73
4
 74
0
 40
0
 40
0
 40
0
 40
0
 40
1
 40
1
 40
1
 40
1
 10
10.044313
 20
40.611265
 30
0.0
 10
10.518665
 20
40.611265
 30
0.0
 10
10.903202
 20
40.226726
 30
0.0
 10
10.903202
 20
39.752376
 30
0.0
  0
LWPOLYLINE
  5
157
100
AcDbEntity
  8
Layer_1
 62
7
100
AcDbPolyline
 90
2
 70
0
 10
10.903202
 20
67.470386
 30
0.0
 10
10.903202
 20
67.470386
 30
0.0
  0
SPLINE
  5
158
100
AcDbEntity
  8
Layer_1
 62
7
100
AcDbSpline
 70
8
 71
3
 72
8
 73
4
 74
0
 40
0
 40
0
 40
0
 40
0
 40
1
 40
1
 40
1
 40
1
 10
41.903217
 20
67.470386
 30
0.0
 10
41.903217
 20
66.996034
 30
0.0
 10
41.518680
 20
66.611497
 30
0.0
 10
41.044328
 20
66.611497
 30
0.0
  0
SPLINE
  5
159
100
AcDbEntity
  8
Layer_1
 62
7
100
AcDbSpline
 70
8
 71
3
 72
8
 73
4
 74
0
 40
0
 40
0
 40
0
 40
0
 40
1
 40
1
 40
1
 40
1
 10
41.044328
 20
66.611497
 30
0.0
 10
40.569976
 20
66.611497
 30
0.0
 10
40.185439
 20
66.996034
 30
0.0
 10
40.185439
 20
67.470386
 30
0.0
  0
SPLINE
  5
15a
100
AcDbEntity
  8
Layer_1
 62
7
100
AcDbSpline
 70
8
 71
3
 72
8
 73
4
 74
0
 40
0
 40
0
 40
0
 40
0
 40
1
 40
1
 40
1
 40
1
 10
40.185439
 20
67.470386
 30
0.0
 10
40.185439
 20
67.944736
 30
0.0
 10
40.569976
 20
68.329274
 30
0.0
 10
41.044328
 20
68.329274
 30
0.0
  0
SPLINE
  5
15b
100
AcDbEntity
  8
Layer_1
 62
7
100
AcDbSpline
 70
8
 71
3
 72
8
 73
4
 74
0
 40
0
 40
0
 40
0
 40
0
 40
1
 40
1
 40
1
 40
1
 10
41.044328
 20
68.329274
 30
0.0
 10
41.518680
 20
68.329274
 30
0.0
 10
41.903217
 20
67.944736
 30
0.0
 10
41.903217
 20
67.470386
 30
0.0
  0
LWPOLYLINE
  5
15c
100
AcDbEntity
  8
Layer_1
 62
7
100
AcDbPolyline
 90
2
 70
0
 10
10.903202
 20
39.752376
 30
0.0
 10
10.903202
 20
39.752376
 30
0.0
  0
SPLINE
  5
15d
100
AcDbEntity
  8
Layer_1
 62
7
100
AcDbSpline
 70
8
 71
3
 72
8
 73
4
 74
0
 40
0
 40
0
 40
0
 40
0
 40
1
 40
1
 40
1
 40
1
 10
41.903217
 20
39.752376
 30
0.0
 10
41.903217
 20
39.278024
 30
0.0
 10
41.518680
 20
38.893487
 30
0.0
 10
41.044328
 20
38.893487
 30
0.0
  0
SPLINE
  5
15e
100
AcDbEntity
  8
Layer_1
 62
7
100
AcDbSpline
 70
8
 71
3
 72
8
 73
4
 74
0
 40
0
 40
0
 40
0
 40
0
 40
1
 40
1
 40
1
 40
1
 10
41.044328
 20
38.893487
 30
0.0
 10
40.569976
 20
38.893487
 30
0.0
 10
40.185439
 20
39.278024
 30
0.0
 10
40.185439
 20
39.752376
 30
0.0
  0
SPLINE
  5
15f
100
AcDbEntity
  8
Layer_1
 62
7
100
AcDbSpline
 70
8
 71
3
 72
8
 73
4
 74
0
 40
0
 40
0
 40
0
 40
0
 40
1
 40
1
 40
1
 40
1
 10
40.185439
 20
39.752376
 30
0.0
 10
40.185439
 20
40.226726
 30
0.0
 10
40.569976
 20
40.611265
 30
0.0
 10
41.044328
 20
40.611265
 30
0.0
  0
SPLINE
  5
160
100
AcDbEntity
  8
Layer_1
 62
7
100
AcDbSpline
 70
8
 71
3
 72
8
 73
4
 74
0
 40
0
 40
0
 40
0
 40
0
 40
1
 40
1
 40
1
 40
1
 10
41.044328
 20
40.611265
 30
0.0
 10
41.518680
 20
40.611265
 30
0.0
 10
41.903217
 20
40.226726
 30
0.0
 10
41.903217
 20
39.752376
 30
0.0
  0
LWPOLYLINE
  5
161
100
AcDbEntity
  8
Layer_1
 62
7
100
AcDbPolyline
 90
2
 70
0
 10
41.903217
 20
67.470386
 30
0.0
 10
41.903217
 20
67.470386
 30
0.0
  0
SPLINE
  5
162
100
AcDbEntity
  8
Layer_1
 62
7
100
AcDbSpline
 70
8
 71
3
 72
8
 73
4
 74
0
 40
0
 40
0
 40
0
 40
0
 40
1
 40
1
 40
1
 40
1
 10
8.903200
 20
53.611378
 30
0.0
 10
8.903200
 20
53.137026
 30
0.0
 10
8.518663
 20
52.752489
 30
0.0
 10
8.044311
 20
52.752489
 30
0.0
  0
SPLINE
  5
163
100
AcDbEntity
  8
Layer_1
 62
7
100
AcDbSpline
 70
8
 71
3
 72
8
 73
4
 74
0
 40
0
 40
0
 40
0
 40
0
 40
1
 40
1
 40
1
 40
1
 10
8.044311
 20
52.752489
 30
0.0
 10
7.569959
 20
52.752489
 30
0.0
 10
7.185423
 20
53.137026
 30
0.0
 10
7.185423
 20
53.611378
 30
0.0
  0
SPLINE
  5
164
100
AcDbEntity
  8
Layer_1
 62
7
100
AcDbSpline
 70
8
 71
3
 72
8
 73
4
 74
0
 40
0
 40
0
 40
0
 40
0
 40
1
 40
1
 40
1
 40
1
 10
7.185423
 20
53.611378
 30
0.0
 10
7.185423
 20
54.085728
 30
0.0
 10
7.569959
 20
54.470267
 30
0.0
 10
8.044311
 20
54.470267
 30
0.0
  0
SPLINE
  5
165
100
AcDbEntity
  8
Layer_1
 62
7
100
AcDbSpline
 70
8
 71
3
 72
8
 73
4
 74
0
 40
0
 40
0
 40
0
 40
0
 40
1
 40
1
 40
1
 40
1
 10
8.044311
 20
54.470267
 30
0.0
 10
8.518663
 20
54.470267
 30
0.0
 10
8.903200
 20
54.085728
 30
0.0
 10
8.903200
 20
53.611378
 30
0.0
  0
LWPOLYLINE
  5
166
100
AcDbEntity
  8
Layer_1
 62
7
100
AcDbPolyline
 90
2
 70
0
 10
41.903217
 20
39.752376
 30
0.0
 10
41.903217
 20
39.752376
 30
0.0
  0
LWPOLYLINE
  5
167
100
AcDbEntity
  8
Layer_1
 62
7
100
AcDbPolyline
 90
2
 70
0
 10
8.903200
 20
53.611378
 30
0.0
 10
8.903200
 20
53.611378
 30
0.0
  0
SPLINE
  5
168
100
AcDbEntity
  8
Layer_1
 62
7
100
AcDbSpline
 70
8
 71
3
 72
8
 73
4
 74
0
 40
0
 40
0
 40
0
 40
0
 40
1
 40
1
 40
1
 40
1
 10
54.878309
 20
67.470386
 30
0.0
 10
54.878309
 20
66.996034
 30
0.0
 10
54.493772
 20
66.611497
 30
0.0
 10
54.019420
 20
66.611497
 30
0.0
  0
SPLINE
  5
169
100
AcDbEntity
  8
Layer_1
 62
7
100
AcDbSpline
 70
8
 71
3
 72
8
 73
4
 74
0
 40
0
 40
0
 40
0
 40
0
 40
1
 40
1
 40
1
 40
1
 10
54.019420
 20
66.611497
 30
0.0
 10
53.545068
 20
66.611497
 30
0.0
 10
53.160532
 20
66.996034
 30
0.0
 10
53.160532
 20
67.470386
 30
0.0
  0
SPLINE
  5
16a
100
AcDbEntity
  8
Layer_1
 62
7
100
AcDbSpline
 70
8
 71
3
 72
8
 73
4
 74
0
 40
0
 40
0
 40
0
 40
0
 40
1
 40
1
 40
1
 40
1
 10
53.160532
 20
67.470386
 30
0.0
 10
53.160532
 20
67.944736
 30
0.0
 10
53.545068
 20
68.329274
 30
0.0
 10
54.019420
 20
68.329274
 30
0.0
  0
SPLINE
  5
16b
100
AcDbEntity
  8
Layer_1
 62
7
100
AcDbSpline
 70
8
 71
3
 72
8
 73
4
 74
0
 40
0
 40
0
 40
0
 40
0
 40
1
 40
1
 40
1
 40
1
 10
54.019420
 20
68.329274
 30
0.0
 10
54.493772
 20
68.329274
 30
0.0
 10
54.878309
 20
67.944736
 30
0.0
 10
54.878309
 20
67.470386
 30
0.0
  0
LWPOLYLINE
  5
16c
100
AcDbEntity
  8
Layer_1
 62
7
100
AcDbPolyline
 90
5
 70
0
 10
49.160532
 20
69.220269
 30
0.0
 10
88.878309
 20
69.220269
 30
0.0
 10
88.878309
 20
38.002492
 30
0.0
 10
49.160532
 20
38.002492
 30
0.0
 10
49.160532
 20
69.220269
 30
0.0
  0
SPLINE
  5
16d
100
AcDbEntity
  8
Layer_1
 62
7
100
AcDbSpline
 70
8
 71
3
 72
8
 73
4
 74
0
 40
0
 40
0
 40
0
 40
0
 40
1
 40
1
 40
1
 40
1
 10
54.878309
 20
39.752376
 30
0.0
 10
54.878309
 20
39.278024
 30
0.0
 10
54.493772
 20
38.893487
 30
0.0
 10
54.019420
 20
38.893487
 30
0.0
  0
SPLINE
  5
16e
100
AcDbEntity
  8
Layer_1
 62
7
100
AcDbSpline
 70
8
 71
3
 72
8
 73
4
 74
0
 40
0
 40
0
 40
0
 40
0
 40
1
 40
1
 40
1
 40
1
 10
54.019420
 20
38.893487
 30
0.0
 10
53.545068
 20
38.893487
 30
0.0
 10
53.160532
 20
39.278024
 30
0.0
 10
53.160532
 20
39.752376
 30
0.0
  0
SPLINE
  5
16f
100
AcDbEntity
  8
Layer_1
 62
7
100
AcDbSpline
 70
8
 71
3
 72
8
 73
4
 74
0
 40
0
 40
0
 40
0
 40
0
 40
1
 40
1
 40
1
 40
1
 10
53.160532
 20
39.752376
 30
0.0
 10
53.160532
 20
40.226726
 30
0.0
 10
53.545068
 20
40.611265
 30
0.0
 10
54.019420
 20
40.611265
 30
0.0
  0
SPLINE
  5
170
100
AcDbEntity
  8
Layer_1
 62
7
100
AcDbSpline
 70
8
 71
3
 72
8
 73
4
 74
0
 40
0
 40
0
 40
0
 40
0
 40
1
 40
1
 40
1
 40
1
 10
54.019420
 20
40.611265
 30
0.0
 10
54.493772
 20
40.611265
 30
0.0
 10
54.878309
 20
40.226726
 30
0.0
 10
54.878309
 20
39.752376
 30
0.0
  0
LWPOLYLINE
  5
171
100
AcDbEntity
  8
Layer_1
 62
7
100
AcDbPolyline
 90
2
 70
0
 10
54.878309
 20
67.470386
 30
0.0
 10
54.878309
 20
67.470386
 30
0.0
  0
SPLINE
  5
172
100
AcDbEntity
  8
Layer_1
 62
7
100
AcDbSpline
 70
8
 71
3
 72
8
 73
4
 74
0
 40
0
 40
0
 40
0
 40
0
 40
1
 40
1
 40
1
 40
1
 10
85.878324
 20
67.470386
 30
0.0
 10
85.878324
 20
66.996034
 30
0.0
 10
85.493787
 20
66.611497
 30
0.0
 10
85.019435
 20
66.611497
 30
0.0
  0
SPLINE
  5
173
100
AcDbEntity
  8
Layer_1
 62
7
100
AcDbSpline
 70
8
 71
3
 72
8
 73
4
 74
0
 40
0
 40
0
 40
0
 40
0
 40
1
 40
1
 40
1
 40
1
 10
85.019435
 20
66.611497
 30
0.0
 10
84.545083
 20
66.611497
 30
0.0
 10
84.160547
 20
66.996034
 30
0.0
 10
84.160547
 20
67.470386
 30
0.0
  0
SPLINE
  5
174
100
AcDbEntity
  8
Layer_1
 62
7
100
AcDbSpline
 70
8
 71
3
 72
8
 73
4
 74
0
 40
0
 40
0
 40
0
 40
0
 40
1
 40
1
 40
1
 40
1
 10
84.160547
 20
67.470386
 30
0.0
 10
84.160547
 20
67.944736
 30
0.0
 10
84.545083
 20
68.329274
 30
0.0
 10
85.019435
 20
68.329274
 30
0.0
  0
SPLINE
  5
175
100
AcDbEntity
  8
Layer_1
 62
7
100
AcDbSpline
 70
8
 71
3
 72
8
 73
4
 74
0
 40
0
 40
0
 40
0
 40
0
 40
1
 40
1
 40
1
 40
1
 10
85.019435
 20
68.329274
 30
0.0
 10
85.493787
 20
68.329274
 30
0.0
 10
85.878324
 20
67.944736
 30
0.0
 10
85.878324
 20
67.470386
 30
0.0
  0
LWPOLYLINE
  5
176
100
AcDbEntity
  8
Layer_1
 62
7
100
AcDbPolyline
 90
2
 70
0
 10
54.878309
 20
39.752376
 30
0.0
 10
54.878309
 20
39.752376
 30
0.0
  0
SPLINE
  5
177
100
AcDbEntity
  8
Layer_1
 62
7
100
AcDbSpline
 70
8
 71
3
 72
8
 73
4
 74
0
 40
0
 40
0
 40
0
 40
0
 40
1
 40
1
 40
1
 40
1
 10
85.878324
 20
39.752376
 30
0.0
 10
85.878324
 20
39.278024
 30
0.0
 10
85.493787
 20
38.893487
 30
0.0
 10
85.019435
 20
38.893487
 30
0.0
  0
SPLINE
  5
178
100
AcDbEntity
  8
Layer_1
 62
7
100
AcDbSpline
 70
8
 71
3
 72
8
 73
4
 74
0
 40
0
 40
0
 40
0
 40
0
 40
1
 40
1
 40
1
 40
1
 10
85.019435
 20
38.893487
 30
0.0
 10
84.545083
 20
38.893487
 30
0.0
 10
84.160547
 20
39.278024
 30
0.0
 10
84.160547
 20
39.752376
 30
0.0
  0
SPLINE
  5
179
100
AcDbEntity
  8
Layer_1
 62
7
100
AcDbSpline
 70
8
 71
3
 72
8
 73
4
 74
0
 40
0
 40
0
 40
0
 40
0
 40
1
 40
1
 40
1
 40
1
 10
84.160547
 20
39.752376
 30
0.0
 10
84.160547
 20
40.226726
 30
0.0
 10
84.545083
 20
40.611265
 30
0.0
 10
85.019435
 20
40.611265
 30
0.0
  0
SPLINE
  5
17a
100
AcDbEntity
  8
Layer_1
 62
7
100
AcDbSpline
 70
8
 71
3
 72
8
 73
4
 74
0
 40
0
 40
0
 40
0
 40
0
 40
1
 40
1
 40
1
 40
1
 10
85.019435
 20
40.611265
 30
0.0
 10
85.493787
 20
40.611265
 30
0.0
 10
85.878324
 20
40.226726
 30
0.0
 10
85.878324
 20
39.752376
 30
0.0
  0
LWPOLYLINE
  5
17b
100
AcDbEntity
  8
Layer_1
 62
7
100
AcDbPolyline
 90
2
 70
0
 10
85.878324
 20
67.470386
 30
0.0
 10
85.878324
 20
67.470386
 30
0.0
  0
SPLINE
  5
17c
100
AcDbEntity
  8
Layer_1
 62
7
100
AcDbSpline
 70
8
 71
3
 72
8
 73
4
 74
0
 40
0
 40
0
 40
0
 40
0
 40
1
 40
1
 40
1
 40
1
 10
52.878307
 20
53.611378
 30
0.0
 10
52.878307
 20
53.137026
 30
0.0
 10
52.493770
 20
52.752489
 30
0.0
 10
52.019419
 20
52.752489
 30
0.0
  0
SPLINE
  5
17d
100
AcDbEntity
  8
Layer_1
 62
7
100
AcDbSpline
 70
8
 71
3
 72
8
 73
4
 74
0
 40
0
 40
0
 40
0
 40
0
 40
1
 40
1
 40
1
 40
1
 10
52.019419
 20
52.752489
 30
0.0
 10
51.545067
 20
52.752489
 30
0.0
 10
51.160530
 20
53.137026
 30
0.0
 10
51.160530
 20
53.611378
 30
0.0
  0
SPLINE
  5
17e
100
AcDbEntity
  8
Layer_1
 62
7
100
AcDbSpline
 70
8
 71
3
 72
8
 73
4
 74
0
 40
0
 40
0
 40
0
 40
0
 40
1
 40
1
 40
1
 40
1
 10
51.160530
 20
53.611378
 30
0.0
 10
51.160530
 20
54.085728
 30
0.0
 10
51.545067
 20
54.470267
 30
0.0
 10
52.019419
 20
54.470267
 30
0.0
  0
SPLINE
  5
17f
100
AcDbEntity
  8
Layer_1
 62
7
100
AcDbSpline
 70
8
 71
3
 72
8
 73
4
 74
0
 40
0
 40
0
 40
0
 40
0
 40
1
 40
1
 40
1
 40
1
 10
52.019419
 20
54.470267
 30
0.0
 10
52.493770
 20
54.470267
 30
0.0
 10
52.878307
 20
54.085728
 30
0.0
 10
52.878307
 20
53.611378
 30
0.0
  0
LWPOLYLINE
  5
180
100
AcDbEntity
  8
Layer_1
 62
7
100
AcDbPolyline
 90
2
 70
0
 10
85.878324
 20
39.752376
 30
0.0
 10
85.878324
 20
39.752376
 30
0.0
  0
LWPOLYLINE
  5
181
100
AcDbEntity
  8
Layer_1
 62
7
100
AcDbPolyline
 90
2
 70
0
 10
52.878307
 20
53.611378
 30
0.0
 10
52.878307
 20
53.611378
 30
0.0
  0
SPLINE
  5
182
100
AcDbEntity
  8
Layer_1
 62
7
100
AcDbSpline
 70
8
 71
3
 72
8
 73
4
 74
0
 40
0
 40
0
 40
0
 40
0
 40
1
 40
1
 40
1
 40
1
 10
98.864660
 20
67.470386
 30
0.0
 10
98.864660
 20
66.996034
 30
0.0
 10
98.480123
 20
66.611497
 30
0.0
 10
98.005771
 20
66.611497
 30
0.0
  0
SPLINE
  5
183
100
AcDbEntity
  8
Layer_1
 62
7
100
AcDbSpline
 70
8
 71
3
 72
8
 73
4
 74
0
 40
0
 40
0
 40
0
 40
0
 40
1
 40
1
 40
1
 40
1
 10
98.005771
 20
66.611497
 30
0.0
 10
97.531419
 20
66.611497
 30
0.0
 10
97.146882
 20
66.996034
 30
0.0
 10
97.146882
 20
67.470386
 30
0.0
  0
SPLINE
  5
184
100
AcDbEntity
  8
Layer_1
 62
7
100
AcDbSpline
 70
8
 71
3
 72
8
 73
4
 74
0
 40
0
 40
0
 40
0
 40
0
 40
1
 40
1
 40
1
 40
1
 10
97.146882
 20
67.470386
 30
0.0
 10
97.146882
 20
67.944736
 30
0.0
 10
97.531419
 20
68.329274
 30
0.0
 10
98.005771
 20
68.329274
 30
0.0
  0
SPLINE
  5
185
100
AcDbEntity
  8
Layer_1
 62
7
100
AcDbSpline
 70
8
 71
3
 72
8
 73
4
 74
0
 40
0
 40
0
 40
0
 40
0
 40
1
 40
1
 40
1
 40
1
 10
98.005771
 20
68.329274
 30
0.0
 10
98.480123
 20
68.329274
 30
0.0
 10
98.864660
 20
67.944736
 30
0.0
 10
98.864660
 20
67.470386
 30
0.0
  0
LWPOLYLINE
  5
186
100
AcDbEntity
  8
Layer_1
 62
7
100
AcDbPolyline
 90
5
 70
0
 10
93.146883
 20
69.220269
 30
0.0
 10
132.864660
 20
69.220269
 30
0.0
 10
132.864660
 20
38.002492
 30
0.0
 10
93.146883
 20
38.002492
 30
0.0
 10
93.146883
 20
69.220269
 30
0.0
  0
SPLINE
  5
187
100
AcDbEntity
  8
Layer_1
 62
7
100
AcDbSpline
 70
8
 71
3
 72
8
 73
4
 74
0
 40
0
 40
0
 40
0
 40
0
 40
1
 40
1
 40
1
 40
1
 10
98.864660
 20
39.752376
 30
0.0
 10
98.864660
 20
39.278024
 30
0.0
 10
98.480123
 20
38.893487
 30
0.0
 10
98.005771
 20
38.893487
 30
0.0
  0
SPLINE
  5
188
100
AcDbEntity
  8
Layer_1
 62
7
100
AcDbSpline
 70
8
 71
3
 72
8
 73
4
 74
0
 40
0
 40
0
 40
0
 40
0
 40
1
 40
1
 40
1
 40
1
 10
98.005771
 20
38.893487
 30
0.0
 10
97.531419
 20
38.893487
 30
0.0
 10
97.146882
 20
39.278024
 30
0.0
 10
97.146882
 20
39.752376
 30
0.0
  0
SPLINE
  5
189
100
AcDbEntity
  8
Layer_1
 62
7
100
AcDbSpline
 70
8
 71
3
 72
8
 73
4
 74
0
 40
0
 40
0
 40
0
 40
0
 40
1
 40
1
 40
1
 40
1
 10
97.146882
 20
39.752376
 30
0.0
 10
97.146882
 20
40.226726
 30
0.0
 10
97.531419
 20
40.611265
 30
0.0
 10
98.005771
 20
40.611265
 30
0.0
  0
SPLINE
  5
18a
100
AcDbEntity
  8
Layer_1
 62
7
100
AcDbSpline
 70
8
 71
3
 72
8
 73
4
 74
0
 40
0
 40
0
 40
0
 40
0
 40
1
 40
1
 40
1
 40
1
 10
98.005771
 20
40.611265
 30
0.0
 10
98.480123
 20
40.611265
 30
0.0
 10
98.864660
 20
40.226726
 30
0.0
 10
98.864660
 20
39.752376
 30
0.0
  0
LWPOLYLINE
  5
18b
100
AcDbEntity
  8
Layer_1
 62
7
100
AcDbPolyline
 90
2
 70
0
 10
98.864660
 20
67.470386
 30
0.0
 10
98.864660
 20
67.470386
 30
0.0
  0
SPLINE
  5
18c
100
AcDbEntity
  8
Layer_1
 62
7
100
AcDbSpline
 70
8
 71
3
 72
8
 73
4
 74
0
 40
0
 40
0
 40
0
 40
0
 40
1
 40
1
 40
1
 40
1
 10
129.864675
 20
67.470386
 30
0.0
 10
129.864675
 20
66.996034
 30
0.0
 10
129.480138
 20
66.611497
 30
0.0
 10
129.005786
 20
66.611497
 30
0.0
  0
SPLINE
  5
18d
100
AcDbEntity
  8
Layer_1
 62
7
100
AcDbSpline
 70
8
 71
3
 72
8
 73
4
 74
0
 40
0
 40
0
 40
0
 40
0
 40
1
 40
1
 40
1
 40
1
 10
129.005786
 20
66.611497
 30
0.0
 10
128.531434
 20
66.611497
 30
0.0
 10
128.146897
 20
66.996034
 30
0.0
 10
128.146897
 20
67.470386
 30
0.0
  0
SPLINE
  5
18e
100
AcDbEntity
  8
Layer_1
 62
7
100
AcDbSpline
 70
8
 71
3
 72
8
 73
4
 74
0
 40
0
 40
0
 40
0
 40
0
 40
1
 40
1
 40
1
 40
1
 10
128.146897
 20
67.470386
 30
0.0
 10
128.146897
 20
67.944736
 30
0.0
 10
128.531434
 20
68.329274
 30
0.0
 10
129.005786
 20
68.329274
 30
0.0
  0
SPLINE
  5
18f
100
AcDbEntity
  8
Layer_1
 62
7
100
AcDbSpline
 70
8
 71
3
 72
8
 73
4
 74
0
 40
0
 40
0
 40
0
 40
0
 40
1
 40
1
 40
1
 40
1
 10
129.005786
 20
68.329274
 30
0.0
 10
129.480138
 20
68.329274
 30
0.0
 10
129.864675
 20
67.944736
 30
0.0
 10
129.864675
 20
67.470386
 30
0.0
  0
LWPOLYLINE
  5
190
100
AcDbEntity
  8
Layer_1
 62
7
100
AcDbPolyline
 90
2
 70
0
 10
98.864660
 20
39.752376
 30
0.0
 10
98.864660
 20
39.752376
 30
0.0
  0
SPLINE
  5
191
100
AcDbEntity
  8
Layer_1
 62
7
100
AcDbSpline
 70
8
 71
3
 72
8
 73
4
 74
0
 40
0
 40
0
 40
0
 40
0
 40
1
 40
1
 40
1
 40
1
 10
129.864675
 20
39.752376
 30
0.0
 10
129.864675
 20
39.278024
 30
0.0
 10
129.480138
 20
38.893487
 30
0.0
 10
129.005786
 20
38.893487
 30
0.0
  0
SPLINE
  5
192
100
AcDbEntity
  8
Layer_1
 62
7
100
AcDbSpline
 70
8
 71
3
 72
8
 73
4
 74
0
 40
0
 40
0
 40
0
 40
0
 40
1
 40
1
 40
1
 40
1
 10
129.005786
 20
38.893487
 30
0.0
 10
128.531434
 20
38.893487
 30
0.0
 10
128.146897
 20
39.278024
 30
0.0
 10
128.146897
 20
39.752376
 30
0.0
  0
SPLINE
  5
193
100
AcDbEntity
  8
Layer_1
 62
7
100
AcDbSpline
 70
8
 71
3
 72
8
 73
4
 74
0
 40
0
 40
0
 40
0
 40
0
 40
1
 40
1
 40
1
 40
1
 10
128.146897
 20
39.752376
 30
0.0
 10
128.146897
 20
40.226726
 30
0.0
 10
128.531434
 20
40.611265
 30
0.0
 10
129.005786
 20
40.611265
 30
0.0
  0
SPLINE
  5
194
100
AcDbEntity
  8
Layer_1
 62
7
100
AcDbSpline
 70
8
 71
3
 72
8
 73
4
 74
0
 40
0
 40
0
 40
0
 40
0
 40
1
 40
1
 40
1
 40
1
 10
129.005786
 20
40.611265
 30
0.0
 10
129.480138
 20
40.611265
 30
0.0
 10
129.864675
 20
40.226726
 30
0.0
 10
129.864675
 20
39.752376
 30
0.0
  0
LWPOLYLINE
  5
195
100
AcDbEntity
  8
Layer_1
 62
7
100
AcDbPolyline
 90
2
 70
0
 10
129.864675
 20
67.470386
 30
0.0
 10
129.864675
 20
67.470386
 30
0.0
  0
SPLINE
  5
196
100
AcDbEntity
  8
Layer_1
 62
7
100
AcDbSpline
 70
8
 71
3
 72
8
 73
4
 74
0
 40
0
 40
0
 40
0
 40
0
 40
1
 40
1
 40
1
 40
1
 10
96.864658
 20
53.611378
 30
0.0
 10
96.864658
 20
53.137026
 30
0.0
 10
96.480121
 20
52.752489
 30
0.0
 10
96.005769
 20
52.752489
 30
0.0
  0
SPLINE
  5
197
100
AcDbEntity
  8
Layer_1
 62
7
100
AcDbSpline
 70
8
 71
3
 72
8
 73
4
 74
0
 40
0
 40
0
 40
0
 40
0
 40
1
 40
1
 40
1
 40
1
 10
96.005769
 20
52.752489
 30
0.0
 10
95.531417
 20
52.752489
 30
0.0
 10
95.146881
 20
53.137026
 30
0.0
 10
95.146881
 20
53.611378
 30
0.0
  0
SPLINE
  5
198
100
AcDbEntity
  8
Layer_1
 62
7
100
AcDbSpline
 70
8
 71
3
 72
8
 73
4
 74
0
 40
0
 40
0
 40
0
 40
0
 40
1
 40
1
 40
1
 40
1
 10
95.146881
 20
53.611378
 30
0.0
 10
95.146881
 20
54.085728
 30
0.0
 10
95.531417
 20
54.470267
 30
0.0
 10
96.005769
 20
54.470267
 30
0.0
  0
SPLINE
  5
199
100
AcDbEntity
  8
Layer_1
 62
7
100
AcDbSpline
 70
8
 71
3
 72
8
 73
4
 74
0
 40
0
 40
0
 40
0
 40
0
 40
1
 40
1
 40
1
 40
1
 10
96.005769
 20
54.470267
 30
0.0
 10
96.480121
 20
54.470267
 30
0.0
 10
96.864658
 20
54.085728
 30
0.0
 10
96.864658
 20
53.611378
 30
0.0
  0
LWPOLYLINE
  5
19a
100
AcDbEntity
  8
Layer_1
 62
7
100
AcDbPolyline
 90
2
 70
0
 10
129.864675
 20
39.752376
 30
0.0
 10
129.864675
 20
39.752376
 30
0.0
  0
LWPOLYLINE
  5
19b
100
AcDbEntity
  8
Layer_1
 62
7
100
AcDbPolyline
 90
2
 70
0
 10
96.864658
 20
53.611378
 30
0.0
 10
96.864658
 20
53.611378
 30
0.0
  0
SPLINE
  5
19c
100
AcDbEntity
  8
Layer_1
 62
7
100
AcDbSpline
 70
8
 71
3
 72
8
 73
4
 74
0
 40
0
 40
0
 40
0
 40
0
 40
1
 40
1
 40
1
 40
1
 10
10.903202
 20
101.476182
 30
0.0
 10
10.903202
 20
101.001830
 30
0.0
 10
10.518665
 20
100.617294
 30
0.0
 10
10.044313
 20
100.617294
 30
0.0
  0
SPLINE
  5
19d
100
AcDbEntity
  8
Layer_1
 62
7
100
AcDbSpline
 70
8
 71
3
 72
8
 73
4
 74
0
 40
0
 40
0
 40
0
 40
0
 40
1
 40
1
 40
1
 40
1
 10
10.044313
 20
100.617294
 30
0.0
 10
9.569961
 20
100.617294
 30
0.0
 10
9.185424
 20
101.001830
 30
0.0
 10
9.185424
 20
101.476182
 30
0.0
  0
SPLINE
  5
19e
100
AcDbEntity
  8
Layer_1
 62
7
100
AcDbSpline
 70
8
 71
3
 72
8
 73
4
 74
0
 40
0
 40
0
 40
0
 40
0
 40
1
 40
1
 40
1
 40
1
 10
9.185424
 20
101.476182
 30
0.0
 10
9.185424
 20
101.950533
 30
0.0
 10
9.569961
 20
102.335071
 30
0.0
 10
10.044313
 20
102.335071
 30
0.0
  0
SPLINE
  5
19f
100
AcDbEntity
  8
Layer_1
 62
7
100
AcDbSpline
 70
8
 71
3
 72
8
 73
4
 74
0
 40
0
 40
0
 40
0
 40
0
 40
1
 40
1
 40
1
 40
1
 10
10.044313
 20
102.335071
 30
0.0
 10
10.518665
 20
102.335071
 30
0.0
 10
10.903202
 20
101.950533
 30
0.0
 10
10.903202
 20
101.476182
 30
0.0
  0
LWPOLYLINE
  5
1a0
100
AcDbEntity
  8
Layer_1
 62
7
100
AcDbPolyline
 90
5
 70
0
 10
5.185425
 20
103.226066
 30
0.0
 10
44.903202
 20
103.226066
 30
0.0
 10
44.903202
 20
72.008289
 30
0.0
 10
5.185425
 20
72.008289
 30
0.0
 10
5.185425
 20
103.226066
 30
0.0
  0
SPLINE
  5
1a1
100
AcDbEntity
  8
Layer_1
 62
7
100
AcDbSpline
 70
8
 71
3
 72
8
 73
4
 74
0
 40
0
 40
0
 40
0
 40
0
 40
1
 40
1
 40
1
 40
1
 10
10.903202
 20
73.758173
 30
0.0
 10
10.903202
 20
73.283821
 30
0.0
 10
10.518665
 20
72.899284
 30
0.0
 10
10.044313
 20
72.899284
 30
0.0
  0
SPLINE
  5
1a2
100
AcDbEntity
  8
Layer_1
 62
7
100
AcDbSpline
 70
8
 71
3
 72
8
 73
4
 74
0
 40
0
 40
0
 40
0
 40
0
 40
1
 40
1
 40
1
 40
1
 10
10.044313
 20
72.899284
 30
0.0
 10
9.569961
 20
72.899284
 30
0.0
 10
9.185424
 20
73.283821
 30
0.0
 10
9.185424
 20
73.758173
 30
0.0
  0
SPLINE
  5
1a3
100
AcDbEntity
  8
Layer_1
 62
7
100
AcDbSpline
 70
8
 71
3
 72
8
 73
4
 74
0
 40
0
 40
0
 40
0
 40
0
 40
1
 40
1
 40
1
 40
1
 10
9.185424
 20
73.758173
 30
0.0
 10
9.185424
 20
74.232523
 30
0.0
 10
9.569961
 20
74.617061
 30
0.0
 10
10.044313
 20
74.617061
 30
0.0
  0
SPLINE
  5
1a4
100
AcDbEntity
  8
Layer_1
 62
7
100
AcDbSpline
 70
8
 71
3
 72
8
 73
4
 74
0
 40
0
 40
0
 40
0
 40
0
 40
1
 40
1
 40
1
 40
1
 10
10.044313
 20
74.617061
 30
0.0
 10
10.518665
 20
74.617061
 30
0.0
 10
10.903202
 20
74.232523
 30
0.0
 10
10.903202
 20
73.758173
 30
0.0
  0
LWPOLYLINE
  5
1a5
100
AcDbEntity
  8
Layer_1
 62
7
100
AcDbPolyline
 90
2
 70
0
 10
10.903202
 20
101.476182
 30
0.0
 10
10.903202
 20
101.476182
 30
0.0
  0
SPLINE
  5
1a6
100
AcDbEntity
  8
Layer_1
 62
7
100
AcDbSpline
 70
8
 71
3
 72
8
 73
4
 74
0
 40
0
 40
0
 40
0
 40
0
 40
1
 40
1
 40
1
 40
1
 10
41.903217
 20
101.476182
 30
0.0
 10
41.903217
 20
101.001830
 30
0.0
 10
41.518680
 20
100.617294
 30
0.0
 10
41.044328
 20
100.617294
 30
0.0
  0
SPLINE
  5
1a7
100
AcDbEntity
  8
Layer_1
 62
7
100
AcDbSpline
 70
8
 71
3
 72
8
 73
4
 74
0
 40
0
 40
0
 40
0
 40
0
 40
1
 40
1
 40
1
 40
1
 10
41.044328
 20
100.617294
 30
0.0
 10
40.569976
 20
100.617294
 30
0.0
 10
40.185439
 20
101.001830
 30
0.0
 10
40.185439
 20
101.476182
 30
0.0
  0
SPLINE
  5
1a8
100
AcDbEntity
  8
Layer_1
 62
7
100
AcDbSpline
 70
8
 71
3
 72
8
 73
4
 74
0
 40
0
 40
0
 40
0
 40
0
 40
1
 40
1
 40
1
 40
1
 10
40.185439
 20
101.476182
 30
0.0
 10
40.185439
 20
101.950533
 30
0.0
 10
40.569976
 20
102.335071
 30
0.0
 10
41.044328
 20
102.335071
 30
0.0
  0
SPLINE
  5
1a9
100
AcDbEntity
  8
Layer_1
 62
7
100
AcDbSpline
 70
8
 71
3
 72
8
 73
4
 74
0
 40
0
 40
0
 40
0
 40
0
 40
1
 40
1
 40
1
 40
1
 10
41.044328
 20
102.335071
 30
0.0
 10
41.518680
 20
102.335071
 30
0.0
 10
41.903217
 20
101.950533
 30
0.0
 10
41.903217
 20
101.476182
 30
0.0
  0
LWPOLYLINE
  5
1aa
100
AcDbEntity
  8
Layer_1
 62
7
100
AcDbPolyline
 90
2
 70
0
 10
10.903202
 20
73.758173
 30
0.0
 10
10.903202
 20
73.758173
 30
0.0
  0
SPLINE
  5
1ab
100
AcDbEntity
  8
Layer_1
 62
7
100
AcDbSpline
 70
8
 71
3
 72
8
 73
4
 74
0
 40
0
 40
0
 40
0
 40
0
 40
1
 40
1
 40
1
 40
1
 10
41.903217
 20
73.758173
 30
0.0
 10
41.903217
 20
73.283821
 30
0.0
 10
41.518680
 20
72.899284
 30
0.0
 10
41.044328
 20
72.899284
 30
0.0
  0
SPLINE
  5
1ac
100
AcDbEntity
  8
Layer_1
 62
7
100
AcDbSpline
 70
8
 71
3
 72
8
 73
4
 74
0
 40
0
 40
0
 40
0
 40
0
 40
1
 40
1
 40
1
 40
1
 10
41.044328
 20
72.899284
 30
0.0
 10
40.569976
 20
72.899284
 30
0.0
 10
40.185439
 20
73.283821
 30
0.0
 10
40.185439
 20
73.758173
 30
0.0
  0
SPLINE
  5
1ad
100
AcDbEntity
  8
Layer_1
 62
7
100
AcDbSpline
 70
8
 71
3
 72
8
 73
4
 74
0
 40
0
 40
0
 40
0
 40
0
 40
1
 40
1
 40
1
 40
1
 10
40.185439
 20
73.758173
 30
0.0
 10
40.185439
 20
74.232523
 30
0.0
 10
40.569976
 20
74.617061
 30
0.0
 10
41.044328
 20
74.617061
 30
0.0
  0
SPLINE
  5
1ae
100
AcDbEntity
  8
Layer_1
 62
7
100
AcDbSpline
 70
8
 71
3
 72
8
 73
4
 74
0
 40
0
 40
0
 40
0
 40
0
 40
1
 40
1
 40
1
 40
1
 10
41.044328
 20
74.617061
 30
0.0
 10
41.518680
 20
74.617061
 30
0.0
 10
41.903217
 20
74.232523
 30
0.0
 10
41.903217
 20
73.758173
 30
0.0
  0
LWPOLYLINE
  5
1af
100
AcDbEntity
  8
Layer_1
 62
7
100
AcDbPolyline
 90
2
 70
0
 10
41.903217
 20
101.476182
 30
0.0
 10
41.903217
 20
101.476182
 30
0.0
  0
SPLINE
  5
1b0
100
AcDbEntity
  8
Layer_1
 62
7
100
AcDbSpline
 70
8
 71
3
 72
8
 73
4
 74
0
 40
0
 40
0
 40
0
 40
0
 40
1
 40
1
 40
1
 40
1
 10
8.903200
 20
87.617175
 30
0.0
 10
8.903200
 20
87.142823
 30
0.0
 10
8.518663
 20
86.758286
 30
0.0
 10
8.044311
 20
86.758286
 30
0.0
  0
SPLINE
  5
1b1
100
AcDbEntity
  8
Layer_1
 62
7
100
AcDbSpline
 70
8
 71
3
 72
8
 73
4
 74
0
 40
0
 40
0
 40
0
 40
0
 40
1
 40
1
 40
1
 40
1
 10
8.044311
 20
86.758286
 30
0.0
 10
7.569959
 20
86.758286
 30
0.0
 10
7.185423
 20
87.142823
 30
0.0
 10
7.185423
 20
87.617175
 30
0.0
  0
SPLINE
  5
1b2
100
AcDbEntity
  8
Layer_1
 62
7
100
AcDbSpline
 70
8
 71
3
 72
8
 73
4
 74
0
 40
0
 40
0
 40
0
 40
0
 40
1
 40
1
 40
1
 40
1
 10
7.185423
 20
87.617175
 30
0.0
 10
7.185423
 20
88.091525
 30
0.0
 10
7.569959
 20
88.476063
 30
0.0
 10
8.044311
 20
88.476063
 30
0.0
  0
SPLINE
  5
1b3
100
AcDbEntity
  8
Layer_1
 62
7
100
AcDbSpline
 70
8
 71
3
 72
8
 73
4
 74
0
 40
0
 40
0
 40
0
 40
0
 40
1
 40
1
 40
1
 40
1
 10
8.044311
 20
88.476063
 30
0.0
 10
8.518663
 20
88.476063
 30
0.0
 10
8.903200
 20
88.091525
 30
0.0
 10
8.903200
 20
87.617175
 30
0.0
  0
LWPOLYLINE
  5
1b4
100
AcDbEntity
  8
Layer_1
 62
7
100
AcDbPolyline
 90
2
 70
0
 10
41.903217
 20
73.758173
 30
0.0
 10
41.903217
 20
73.758173
 30
0.0
  0
LWPOLYLINE
  5
1b5
100
AcDbEntity
  8
Layer_1
 62
7
100
AcDbPolyline
 90
2
 70
0
 10
8.903200
 20
87.617175
 30
0.0
 10
8.903200
 20
87.617175
 30
0.0
  0
SPLINE
  5
1b6
100
AcDbEntity
  8
Layer_1
 62
7
100
AcDbSpline
 70
8
 71
3
 72
8
 73
4
 74
0
 40
0
 40
0
 40
0
 40
0
 40
1
 40
1
 40
1
 40
1
 10
54.878309
 20
101.476182
 30
0.0
 10
54.878309
 20
101.001830
 30
0.0
 10
54.493772
 20
100.617294
 30
0.0
 10
54.019420
 20
100.617294
 30
0.0
  0
SPLINE
  5
1b7
100
AcDbEntity
  8
Layer_1
 62
7
100
AcDbSpline
 70
8
 71
3
 72
8
 73
4
 74
0
 40
0
 40
0
 40
0
 40
0
 40
1
 40
1
 40
1
 40
1
 10
54.019420
 20
100.617294
 30
0.0
 10
53.545068
 20
100.617294
 30
0.0
 10
53.160532
 20
101.001830
 30
0.0
 10
53.160532
 20
101.476182
 30
0.0
  0
SPLINE
  5
1b8
100
AcDbEntity
  8
Layer_1
 62
7
100
AcDbSpline
 70
8
 71
3
 72
8
 73
4
 74
0
 40
0
 40
0
 40
0
 40
0
 40
1
 40
1
 40
1
 40
1
 10
53.160532
 20
101.476182
 30
0.0
 10
53.160532
 20
101.950533
 30
0.0
 10
53.545068
 20
102.335071
 30
0.0
 10
54.019420
 20
102.335071
 30
0.0
  0
SPLINE
  5
1b9
100
AcDbEntity
  8
Layer_1
 62
7
100
AcDbSpline
 70
8
 71
3
 72
8
 73
4
 74
0
 40
0
 40
0
 40
0
 40
0
 40
1
 40
1
 40
1
 40
1
 10
54.019420
 20
102.335071
 30
0.0
 10
54.493772
 20
102.335071
 30
0.0
 10
54.878309
 20
101.950533
 30
0.0
 10
54.878309
 20
101.476182
 30
0.0
  0
LWPOLYLINE
  5
1ba
100
AcDbEntity
  8
Layer_1
 62
7
100
AcDbPolyline
 90
5
 70
0
 10
49.160532
 20
103.226066
 30
0.0
 10
88.878309
 20
103.226066
 30
0.0
 10
88.878309
 20
72.008289
 30
0.0
 10
49.160532
 20
72.008289
 30
0.0
 10
49.160532
 20
103.226066
 30
0.0
  0
SPLINE
  5
1bb
100
AcDbEntity
  8
Layer_1
 62
7
100
AcDbSpline
 70
8
 71
3
 72
8
 73
4
 74
0
 40
0
 40
0
 40
0
 40
0
 40
1
 40
1
 40
1
 40
1
 10
54.878309
 20
73.758173
 30
0.0
 10
54.878309
 20
73.283821
 30
0.0
 10
54.493772
 20
72.899284
 30
0.0
 10
54.019420
 20
72.899284
 30
0.0
  0
SPLINE
  5
1bc
100
AcDbEntity
  8
Layer_1
 62
7
100
AcDbSpline
 70
8
 71
3
 72
8
 73
4
 74
0
 40
0
 40
0
 40
0
 40
0
 40
1
 40
1
 40
1
 40
1
 10
54.019420
 20
72.899284
 30
0.0
 10
53.545068
 20
72.899284
 30
0.0
 10
53.160532
 20
73.283821
 30
0.0
 10
53.160532
 20
73.758173
 30
0.0
  0
SPLINE
  5
1bd
100
AcDbEntity
  8
Layer_1
 62
7
100
AcDbSpline
 70
8
 71
3
 72
8
 73
4
 74
0
 40
0
 40
0
 40
0
 40
0
 40
1
 40
1
 40
1
 40
1
 10
53.160532
 20
73.758173
 30
0.0
 10
53.160532
 20
74.232523
 30
0.0
 10
53.545068
 20
74.617061
 30
0.0
 10
54.019420
 20
74.617061
 30
0.0
  0
SPLINE
  5
1be
100
AcDbEntity
  8
Layer_1
 62
7
100
AcDbSpline
 70
8
 71
3
 72
8
 73
4
 74
0
 40
0
 40
0
 40
0
 40
0
 40
1
 40
1
 40
1
 40
1
 10
54.019420
 20
74.617061
 30
0.0
 10
54.493772
 20
74.617061
 30
0.0
 10
54.878309
 20
74.232523
 30
0.0
 10
54.878309
 20
73.758173
 30
0.0
  0
LWPOLYLINE
  5
1bf
100
AcDbEntity
  8
Layer_1
 62
7
100
AcDbPolyline
 90
2
 70
0
 10
54.878309
 20
101.476182
 30
0.0
 10
54.878309
 20
101.476182
 30
0.0
  0
SPLINE
  5
1c0
100
AcDbEntity
  8
Layer_1
 62
7
100
AcDbSpline
 70
8
 71
3
 72
8
 73
4
 74
0
 40
0
 40
0
 40
0
 40
0
 40
1
 40
1
 40
1
 40
1
 10
85.878324
 20
101.476182
 30
0.0
 10
85.878324
 20
101.001830
 30
0.0
 10
85.493787
 20
100.617294
 30
0.0
 10
85.019435
 20
100.617294
 30
0.0
  0
SPLINE
  5
1c1
100
AcDbEntity
  8
Layer_1
 62
7
100
AcDbSpline
 70
8
 71
3
 72
8
 73
4
 74
0
 40
0
 40
0
 40
0
 40
0
 40
1
 40
1
 40
1
 40
1
 10
85.019435
 20
100.617294
 30
0.0
 10
84.545083
 20
100.617294
 30
0.0
 10
84.160547
 20
101.001830
 30
0.0
 10
84.160547
 20
101.476182
 30
0.0
  0
SPLINE
  5
1c2
100
AcDbEntity
  8
Layer_1
 62
7
100
AcDbSpline
 70
8
 71
3
 72
8
 73
4
 74
0
 40
0
 40
0
 40
0
 40
0
 40
1
 40
1
 40
1
 40
1
 10
84.160547
 20
101.476182
 30
0.0
 10
84.160547
 20
101.950533
 30
0.0
 10
84.545083
 20
102.335071
 30
0.0
 10
85.019435
 20
102.335071
 30
0.0
  0
SPLINE
  5
1c3
100
AcDbEntity
  8
Layer_1
 62
7
100
AcDbSpline
 70
8
 71
3
 72
8
 73
4
 74
0
 40
0
 40
0
 40
0
 40
0
 40
1
 40
1
 40
1
 40
1
 10
85.019435
 20
102.335071
 30
0.0
 10
85.493787
 20
102.335071
 30
0.0
 10
85.878324
 20
101.950533
 30
0.0
 10
85.878324
 20
101.476182
 30
0.0
  0
LWPOLYLINE
  5
1c4
100
AcDbEntity
  8
Layer_1
 62
7
100
AcDbPolyline
 90
2
 70
0
 10
54.878309
 20
73.758173
 30
0.0
 10
54.878309
 20
73.758173
 30
0.0
  0
SPLINE
  5
1c5
100
AcDbEntity
  8
Layer_1
 62
7
100
AcDbSpline
 70
8
 71
3
 72
8
 73
4
 74
0
 40
0
 40
0
 40
0
 40
0
 40
1
 40
1
 40
1
 40
1
 10
85.878324
 20
73.758173
 30
0.0
 10
85.878324
 20
73.283821
 30
0.0
 10
85.493787
 20
72.899284
 30
0.0
 10
85.019435
 20
72.899284
 30
0.0
  0
SPLINE
  5
1c6
100
AcDbEntity
  8
Layer_1
 62
7
100
AcDbSpline
 70
8
 71
3
 72
8
 73
4
 74
0
 40
0
 40
0
 40
0
 40
0
 40
1
 40
1
 40
1
 40
1
 10
85.019435
 20
72.899284
 30
0.0
 10
84.545083
 20
72.899284
 30
0.0
 10
84.160547
 20
73.283821
 30
0.0
 10
84.160547
 20
73.758173
 30
0.0
  0
SPLINE
  5
1c7
100
AcDbEntity
  8
Layer_1
 62
7
100
AcDbSpline
 70
8
 71
3
 72
8
 73
4
 74
0
 40
0
 40
0
 40
0
 40
0
 40
1
 40
1
 40
1
 40
1
 10
84.160547
 20
73.758173
 30
0.0
 10
84.160547
 20
74.232523
 30
0.0
 10
84.545083
 20
74.617061
 30
0.0
 10
85.019435
 20
74.617061
 30
0.0
  0
SPLINE
  5
1c8
100
AcDbEntity
  8
Layer_1
 62
7
100
AcDbSpline
 70
8
 71
3
 72
8
 73
4
 74
0
 40
0
 40
0
 40
0
 40
0
 40
1
 40
1
 40
1
 40
1
 10
85.019435
 20
74.617061
 30
0.0
 10
85.493787
 20
74.617061
 30
0.0
 10
85.878324
 20
74.232523
 30
0.0
 10
85.878324
 20
73.758173
 30
0.0
  0
LWPOLYLINE
  5
1c9
100
AcDbEntity
  8
Layer_1
 62
7
100
AcDbPolyline
 90
2
 70
0
 10
85.878324
 20
101.476182
 30
0.0
 10
85.878324
 20
101.476182
 30
0.0
  0
SPLINE
  5
1ca
100
AcDbEntity
  8
Layer_1
 62
7
100
AcDbSpline
 70
8
 71
3
 72
8
 73
4
 74
0
 40
0
 40
0
 40
0
 40
0
 40
1
 40
1
 40
1
 40
1
 10
52.878307
 20
87.617175
 30
0.0
 10
52.878307
 20
87.142823
 30
0.0
 10
52.493770
 20
86.758286
 30
0.0
 10
52.019419
 20
86.758286
 30
0.0
  0
SPLINE
  5
1cb
100
AcDbEntity
  8
Layer_1
 62
7
100
AcDbSpline
 70
8
 71
3
 72
8
 73
4
 74
0
 40
0
 40
0
 40
0
 40
0
 40
1
 40
1
 40
1
 40
1
 10
52.019419
 20
86.758286
 30
0.0
 10
51.545067
 20
86.758286
 30
0.0
 10
51.160530
 20
87.142823
 30
0.0
 10
51.160530
 20
87.617175
 30
0.0
  0
SPLINE
  5
1cc
100
AcDbEntity
  8
Layer_1
 62
7
100
AcDbSpline
 70
8
 71
3
 72
8
 73
4
 74
0
 40
0
 40
0
 40
0
 40
0
 40
1
 40
1
 40
1
 40
1
 10
51.160530
 20
87.617175
 30
0.0
 10
51.160530
 20
88.091525
 30
0.0
 10
51.545067
 20
88.476063
 30
0.0
 10
52.019419
 20
88.476063
 30
0.0
  0
SPLINE
  5
1cd
100
AcDbEntity
  8
Layer_1
 62
7
100
AcDbSpline
 70
8
 71
3
 72
8
 73
4
 74
0
 40
0
 40
0
 40
0
 40
0
 40
1
 40
1
 40
1
 40
1
 10
52.019419
 20
88.476063
 30
0.0
 10
52.493770
 20
88.476063
 30
0.0
 10
52.878307
 20
88.091525
 30
0.0
 10
52.878307
 20
87.617175
 30
0.0
  0
LWPOLYLINE
  5
1ce
100
AcDbEntity
  8
Layer_1
 62
7
100
AcDbPolyline
 90
2
 70
0
 10
85.878324
 20
73.758173
 30
0.0
 10
85.878324
 20
73.758173
 30
0.0
  0
LWPOLYLINE
  5
1cf
100
AcDbEntity
  8
Layer_1
 62
7
100
AcDbPolyline
 90
2
 70
0
 10
52.878307
 20
87.617175
 30
0.0
 10
52.878307
 20
87.617175
 30
0.0
  0
SPLINE
  5
1d0
100
AcDbEntity
  8
Layer_1
 62
7
100
AcDbSpline
 70
8
 71
3
 72
8
 73
4
 74
0
 40
0
 40
0
 40
0
 40
0
 40
1
 40
1
 40
1
 40
1
 10
98.864660
 20
101.476182
 30
0.0
 10
98.864660
 20
101.001830
 30
0.0
 10
98.480123
 20
100.617294
 30
0.0
 10
98.005771
 20
100.617294
 30
0.0
  0
SPLINE
  5
1d1
100
AcDbEntity
  8
Layer_1
 62
7
100
AcDbSpline
 70
8
 71
3
 72
8
 73
4
 74
0
 40
0
 40
0
 40
0
 40
0
 40
1
 40
1
 40
1
 40
1
 10
98.005771
 20
100.617294
 30
0.0
 10
97.531419
 20
100.617294
 30
0.0
 10
97.146882
 20
101.001830
 30
0.0
 10
97.146882
 20
101.476182
 30
0.0
  0
SPLINE
  5
1d2
100
AcDbEntity
  8
Layer_1
 62
7
100
AcDbSpline
 70
8
 71
3
 72
8
 73
4
 74
0
 40
0
 40
0
 40
0
 40
0
 40
1
 40
1
 40
1
 40
1
 10
97.146882
 20
101.476182
 30
0.0
 10
97.146882
 20
101.950533
 30
0.0
 10
97.531419
 20
102.335071
 30
0.0
 10
98.005771
 20
102.335071
 30
0.0
  0
SPLINE
  5
1d3
100
AcDbEntity
  8
Layer_1
 62
7
100
AcDbSpline
 70
8
 71
3
 72
8
 73
4
 74
0
 40
0
 40
0
 40
0
 40
0
 40
1
 40
1
 40
1
 40
1
 10
98.005771
 20
102.335071
 30
0.0
 10
98.480123
 20
102.335071
 30
0.0
 10
98.864660
 20
101.950533
 30
0.0
 10
98.864660
 20
101.476182
 30
0.0
  0
LWPOLYLINE
  5
1d4
100
AcDbEntity
  8
Layer_1
 62
7
100
AcDbPolyline
 90
5
 70
0
 10
93.146883
 20
103.226066
 30
0.0
 10
132.864660
 20
103.226066
 30
0.0
 10
132.864660
 20
72.008289
 30
0.0
 10
93.146883
 20
72.008289
 30
0.0
 10
93.146883
 20
103.226066
 30
0.0
  0
SPLINE
  5
1d5
100
AcDbEntity
  8
Layer_1
 62
7
100
AcDbSpline
 70
8
 71
3
 72
8
 73
4
 74
0
 40
0
 40
0
 40
0
 40
0
 40
1
 40
1
 40
1
 40
1
 10
98.864660
 20
73.758173
 30
0.0
 10
98.864660
 20
73.283821
 30
0.0
 10
98.480123
 20
72.899284
 30
0.0
 10
98.005771
 20
72.899284
 30
0.0
  0
SPLINE
  5
1d6
100
AcDbEntity
  8
Layer_1
 62
7
100
AcDbSpline
 70
8
 71
3
 72
8
 73
4
 74
0
 40
0
 40
0
 40
0
 40
0
 40
1
 40
1
 40
1
 40
1
 10
98.005771
 20
72.899284
 30
0.0
 10
97.531419
 20
72.899284
 30
0.0
 10
97.146882
 20
73.283821
 30
0.0
 10
97.146882
 20
73.758173
 30
0.0
  0
SPLINE
  5
1d7
100
AcDbEntity
  8
Layer_1
 62
7
100
AcDbSpline
 70
8
 71
3
 72
8
 73
4
 74
0
 40
0
 40
0
 40
0
 40
0
 40
1
 40
1
 40
1
 40
1
 10
97.146882
 20
73.758173
 30
0.0
 10
97.146882
 20
74.232523
 30
0.0
 10
97.531419
 20
74.617061
 30
0.0
 10
98.005771
 20
74.617061
 30
0.0
  0
SPLINE
  5
1d8
100
AcDbEntity
  8
Layer_1
 62
7
100
AcDbSpline
 70
8
 71
3
 72
8
 73
4
 74
0
 40
0
 40
0
 40
0
 40
0
 40
1
 40
1
 40
1
 40
1
 10
98.005771
 20
74.617061
 30
0.0
 10
98.480123
 20
74.617061
 30
0.0
 10
98.864660
 20
74.232523
 30
0.0
 10
98.864660
 20
73.758173
 30
0.0
  0
LWPOLYLINE
  5
1d9
100
AcDbEntity
  8
Layer_1
 62
7
100
AcDbPolyline
 90
2
 70
0
 10
98.864660
 20
101.476182
 30
0.0
 10
98.864660
 20
101.476182
 30
0.0
  0
SPLINE
  5
1da
100
AcDbEntity
  8
Layer_1
 62
7
100
AcDbSpline
 70
8
 71
3
 72
8
 73
4
 74
0
 40
0
 40
0
 40
0
 40
0
 40
1
 40
1
 40
1
 40
1
 10
129.864675
 20
101.476182
 30
0.0
 10
129.864675
 20
101.001830
 30
0.0
 10
129.480138
 20
100.617294
 30
0.0
 10
129.005786
 20
100.617294
 30
0.0
  0
SPLINE
  5
1db
100
AcDbEntity
  8
Layer_1
 62
7
100
AcDbSpline
 70
8
 71
3
 72
8
 73
4
 74
0
 40
0
 40
0
 40
0
 40
0
 40
1
 40
1
 40
1
 40
1
 10
129.005786
 20
100.617294
 30
0.0
 10
128.531434
 20
100.617294
 30
0.0
 10
128.146897
 20
101.001830
 30
0.0
 10
128.146897
 20
101.476182
 30
0.0
  0
SPLINE
  5
1dc
100
AcDbEntity
  8
Layer_1
 62
7
100
AcDbSpline
 70
8
 71
3
 72
8
 73
4
 74
0
 40
0
 40
0
 40
0
 40
0
 40
1
 40
1
 40
1
 40
1
 10
128.146897
 20
101.476182
 30
0.0
 10
128.146897
 20
101.950533
 30
0.0
 10
128.531434
 20
102.335071
 30
0.0
 10
129.005786
 20
102.335071
 30
0.0
  0
SPLINE
  5
1dd
100
AcDbEntity
  8
Layer_1
 62
7
100
AcDbSpline
 70
8
 71
3
 72
8
 73
4
 74
0
 40
0
 40
0
 40
0
 40
0
 40
1
 40
1
 40
1
 40
1
 10
129.005786
 20
102.335071
 30
0.0
 10
129.480138
 20
102.335071
 30
0.0
 10
129.864675
 20
101.950533
 30
0.0
 10
129.864675
 20
101.476182
 30
0.0
  0
LWPOLYLINE
  5
1de
100
AcDbEntity
  8
Layer_1
 62
7
100
AcDbPolyline
 90
2
 70
0
 10
98.864660
 20
73.758173
 30
0.0
 10
98.864660
 20
73.758173
 30
0.0
  0
SPLINE
  5
1df
100
AcDbEntity
  8
Layer_1
 62
7
100
AcDbSpline
 70
8
 71
3
 72
8
 73
4
 74
0
 40
0
 40
0
 40
0
 40
0
 40
1
 40
1
 40
1
 40
1
 10
129.864675
 20
73.758173
 30
0.0
 10
129.864675
 20
73.283821
 30
0.0
 10
129.480138
 20
72.899284
 30
0.0
 10
129.005786
 20
72.899284
 30
0.0
  0
SPLINE
  5
1e0
100
AcDbEntity
  8
Layer_1
 62
7
100
AcDbSpline
 70
8
 71
3
 72
8
 73
4
 74
0
 40
0
 40
0
 40
0
 40
0
 40
1
 40
1
 40
1
 40
1
 10
129.005786
 20
72.899284
 30
0.0
 10
128.531434
 20
72.899284
 30
0.0
 10
128.146897
 20
73.283821
 30
0.0
 10
128.146897
 20
73.758173
 30
0.0
  0
SPLINE
  5
1e1
100
AcDbEntity
  8
Layer_1
 62
7
100
AcDbSpline
 70
8
 71
3
 72
8
 73
4
 74
0
 40
0
 40
0
 40
0
 40
0
 40
1
 40
1
 40
1
 40
1
 10
128.146897
 20
73.758173
 30
0.0
 10
128.146897
 20
74.232523
 30
0.0
 10
128.531434
 20
74.617061
 30
0.0
 10
129.005786
 20
74.617061
 30
0.0
  0
SPLINE
  5
1e2
100
AcDbEntity
  8
Layer_1
 62
7
100
AcDbSpline
 70
8
 71
3
 72
8
 73
4
 74
0
 40
0
 40
0
 40
0
 40
0
 40
1
 40
1
 40
1
 40
1
 10
129.005786
 20
74.617061
 30
0.0
 10
129.480138
 20
74.617061
 30
0.0
 10
129.864675
 20
74.232523
 30
0.0
 10
129.864675
 20
73.758173
 30
0.0
  0
LWPOLYLINE
  5
1e3
100
AcDbEntity
  8
Layer_1
 62
7
100
AcDbPolyline
 90
2
 70
0
 10
129.864675
 20
101.476182
 30
0.0
 10
129.864675
 20
101.476182
 30
0.0
  0
SPLINE
  5
1e4
100
AcDbEntity
  8
Layer_1
 62
7
100
AcDbSpline
 70
8
 71
3
 72
8
 73
4
 74
0
 40
0
 40
0
 40
0
 40
0
 40
1
 40
1
 40
1
 40
1
 10
96.864658
 20
87.617175
 30
0.0
 10
96.864658
 20
87.142823
 30
0.0
 10
96.480121
 20
86.758286
 30
0.0
 10
96.005769
 20
86.758286
 30
0.0
  0
SPLINE
  5
1e5
100
AcDbEntity
  8
Layer_1
 62
7
100
AcDbSpline
 70
8
 71
3
 72
8
 73
4
 74
0
 40
0
 40
0
 40
0
 40
0
 40
1
 40
1
 40
1
 40
1
 10
96.005769
 20
86.758286
 30
0.0
 10
95.531417
 20
86.758286
 30
0.0
 10
95.146881
 20
87.142823
 30
0.0
 10
95.146881
 20
87.617175
 30
0.0
  0
SPLINE
  5
1e6
100
AcDbEntity
  8
Layer_1
 62
7
100
AcDbSpline
 70
8
 71
3
 72
8
 73
4
 74
0
 40
0
 40
0
 40
0
 40
0
 40
1
 40
1
 40
1
 40
1
 10
95.146881
 20
87.617175
 30
0.0
 10
95.146881
 20
88.091525
 30
0.0
 10
95.531417
 20
88.476063
 30
0.0
 10
96.005769
 20
88.476063
 30
0.0
  0
SPLINE
  5
1e7
100
AcDbEntity
  8
Layer_1
 62
7
100
AcDbSpline
 70
8
 71
3
 72
8
 73
4
 74
0
 40
0
 40
0
 40
0
 40
0
 40
1
 40
1
 40
1
 40
1
 10
96.005769
 20
88.476063
 30
0.0
 10
96.480121
 20
88.476063
 30
0.0
 10
96.864658
 20
88.091525
 30
0.0
 10
96.864658
 20
87.617175
 30
0.0
  0
LWPOLYLINE
  5
1e8
100
AcDbEntity
  8
Layer_1
 62
7
100
AcDbPolyline
 90
2
 70
0
 10
129.864675
 20
73.758173
 30
0.0
 10
129.864675
 20
73.758173
 30
0.0
  0
LWPOLYLINE
  5
1e9
100
AcDbEntity
  8
Layer_1
 62
7
100
AcDbPolyline
 90
2
 70
0
 10
96.864658
 20
87.617175
 30
0.0
 10
96.864658
 20
87.617175
 30
0.0
  0
SPLINE
  5
1ea
100
AcDbEntity
  8
Layer_1
 62
7
100
AcDbSpline
 70
8
 71
3
 72
8
 73
4
 74
0
 40
0
 40
0
 40
0
 40
0
 40
1
 40
1
 40
1
 40
1
 10
10.903202
 20
135.481979
 30
0.0
 10
10.903202
 20
135.007627
 30
0.0
 10
10.518665
 20
134.623090
 30
0.0
 10
10.044313
 20
134.623090
 30
0.0
  0
SPLINE
  5
1eb
100
AcDbEntity
  8
Layer_1
 62
7
100
AcDbSpline
 70
8
 71
3
 72
8
 73
4
 74
0
 40
0
 40
0
 40
0
 40
0
 40
1
 40
1
 40
1
 40
1
 10
10.044313
 20
134.623090
 30
0.0
 10
9.569961
 20
134.623090
 30
0.0
 10
9.185424
 20
135.007627
 30
0.0
 10
9.185424
 20
135.481979
 30
0.0
  0
SPLINE
  5
1ec
100
AcDbEntity
  8
Layer_1
 62
7
100
AcDbSpline
 70
8
 71
3
 72
8
 73
4
 74
0
 40
0
 40
0
 40
0
 40
0
 40
1
 40
1
 40
1
 40
1
 10
9.185424
 20
135.481979
 30
0.0
 10
9.185424
 20
135.956329
 30
0.0
 10
9.569961
 20
136.340868
 30
0.0
 10
10.044313
 20
136.340868
 30
0.0
  0
SPLINE
  5
1ed
100
AcDbEntity
  8
Layer_1
 62
7
100
AcDbSpline
 70
8
 71
3
 72
8
 73
4
 74
0
 40
0
 40
0
 40
0
 40
0
 40
1
 40
1
 40
1
 40
1
 10
10.044313
 20
136.340868
 30
0.0
 10
10.518665
 20
136.340868
 30
0.0
 10
10.903202
 20
135.956329
 30
0.0
 10
10.903202
 20
135.481979
 30
0.0
  0
LWPOLYLINE
  5
1ee
100
AcDbEntity
  8
Layer_1
 62
7
100
AcDbPolyline
 90
5
 70
0
 10
5.185425
 20
137.231862
 30
0.0
 10
44.903202
 20
137.231862
 30
0.0
 10
44.903202
 20
106.014085
 30
0.0
 10
5.185425
 20
106.014085
 30
0.0
 10
5.185425
 20
137.231862
 30
0.0
  0
SPLINE
  5
1ef
100
AcDbEntity
  8
Layer_1
 62
7
100
AcDbSpline
 70
8
 71
3
 72
8
 73
4
 74
0
 40
0
 40
0
 40
0
 40
0
 40
1
 40
1
 40
1
 40
1
 10
10.903202
 20
107.763969
 30
0.0
 10
10.903202
 20
107.289617
 30
0.0
 10
10.518665
 20
106.905081
 30
0.0
 10
10.044313
 20
106.905081
 30
0.0
  0
SPLINE
  5
1f0
100
AcDbEntity
  8
Layer_1
 62
7
100
AcDbSpline
 70
8
 71
3
 72
8
 73
4
 74
0
 40
0
 40
0
 40
0
 40
0
 40
1
 40
1
 40
1
 40
1
 10
10.044313
 20
106.905081
 30
0.0
 10
9.569961
 20
106.905081
 30
0.0
 10
9.185424
 20
107.289617
 30
0.0
 10
9.185424
 20
107.763969
 30
0.0
  0
SPLINE
  5
1f1
100
AcDbEntity
  8
Layer_1
 62
7
100
AcDbSpline
 70
8
 71
3
 72
8
 73
4
 74
0
 40
0
 40
0
 40
0
 40
0
 40
1
 40
1
 40
1
 40
1
 10
9.185424
 20
107.763969
 30
0.0
 10
9.185424
 20
108.238320
 30
0.0
 10
9.569961
 20
108.622858
 30
0.0
 10
10.044313
 20
108.622858
 30
0.0
  0
SPLINE
  5
1f2
100
AcDbEntity
  8
Layer_1
 62
7
100
AcDbSpline
 70
8
 71
3
 72
8
 73
4
 74
0
 40
0
 40
0
 40
0
 40
0
 40
1
 40
1
 40
1
 40
1
 10
10.044313
 20
108.622858
 30
0.0
 10
10.518665
 20
108.622858
 30
0.0
 10
10.903202
 20
108.238320
 30
0.0
 10
10.903202
 20
107.763969
 30
0.0
  0
LWPOLYLINE
  5
1f3
100
AcDbEntity
  8
Layer_1
 62
7
100
AcDbPolyline
 90
2
 70
0
 10
10.903202
 20
135.481979
 30
0.0
 10
10.903202
 20
135.481979
 30
0.0
  0
SPLINE
  5
1f4
100
AcDbEntity
  8
Layer_1
 62
7
100
AcDbSpline
 70
8
 71
3
 72
8
 73
4
 74
0
 40
0
 40
0
 40
0
 40
0
 40
1
 40
1
 40
1
 40
1
 10
41.903217
 20
135.481979
 30
0.0
 10
41.903217
 20
135.007627
 30
0.0
 10
41.518680
 20
134.623090
 30
0.0
 10
41.044328
 20
134.623090
 30
0.0
  0
SPLINE
  5
1f5
100
AcDbEntity
  8
Layer_1
 62
7
100
AcDbSpline
 70
8
 71
3
 72
8
 73
4
 74
0
 40
0
 40
0
 40
0
 40
0
 40
1
 40
1
 40
1
 40
1
 10
41.044328
 20
134.623090
 30
0.0
 10
40.569976
 20
134.623090
 30
0.0
 10
40.185439
 20
135.007627
 30
0.0
 10
40.185439
 20
135.481979
 30
0.0
  0
SPLINE
  5
1f6
100
AcDbEntity
  8
Layer_1
 62
7
100
AcDbSpline
 70
8
 71
3
 72
8
 73
4
 74
0
 40
0
 40
0
 40
0
 40
0
 40
1
 40
1
 40
1
 40
1
 10
40.185439
 20
135.481979
 30
0.0
 10
40.185439
 20
135.956329
 30
0.0
 10
40.569976
 20
136.340868
 30
0.0
 10
41.044328
 20
136.340868
 30
0.0
  0
SPLINE
  5
1f7
100
AcDbEntity
  8
Layer_1
 62
7
100
AcDbSpline
 70
8
 71
3
 72
8
 73
4
 74
0
 40
0
 40
0
 40
0
 40
0
 40
1
 40
1
 40
1
 40
1
 10
41.044328
 20
136.340868
 30
0.0
 10
41.518680
 20
136.340868
 30
0.0
 10
41.903217
 20
135.956329
 30
0.0
 10
41.903217
 20
135.481979
 30
0.0
  0
LWPOLYLINE
  5
1f8
100
AcDbEntity
  8
Layer_1
 62
7
100
AcDbPolyline
 90
2
 70
0
 10
10.903202
 20
107.763969
 30
0.0
 10
10.903202
 20
107.763969
 30
0.0
  0
SPLINE
  5
1f9
100
AcDbEntity
  8
Layer_1
 62
7
100
AcDbSpline
 70
8
 71
3
 72
8
 73
4
 74
0
 40
0
 40
0
 40
0
 40
0
 40
1
 40
1
 40
1
 40
1
 10
41.903217
 20
107.763969
 30
0.0
 10
41.903217
 20
107.289617
 30
0.0
 10
41.518680
 20
106.905081
 30
0.0
 10
41.044328
 20
106.905081
 30
0.0
  0
SPLINE
  5
1fa
100
AcDbEntity
  8
Layer_1
 62
7
100
AcDbSpline
 70
8
 71
3
 72
8
 73
4
 74
0
 40
0
 40
0
 40
0
 40
0
 40
1
 40
1
 40
1
 40
1
 10
41.044328
 20
106.905081
 30
0.0
 10
40.569976
 20
106.905081
 30
0.0
 10
40.185439
 20
107.289617
 30
0.0
 10
40.185439
 20
107.763969
 30
0.0
  0
SPLINE
  5
1fb
100
AcDbEntity
  8
Layer_1
 62
7
100
AcDbSpline
 70
8
 71
3
 72
8
 73
4
 74
0
 40
0
 40
0
 40
0
 40
0
 40
1
 40
1
 40
1
 40
1
 10
40.185439
 20
107.763969
 30
0.0
 10
40.185439
 20
108.238320
 30
0.0
 10
40.569976
 20
108.622858
 30
0.0
 10
41.044328
 20
108.622858
 30
0.0
  0
SPLINE
  5
1fc
100
AcDbEntity
  8
Layer_1
 62
7
100
AcDbSpline
 70
8
 71
3
 72
8
 73
4
 74
0
 40
0
 40
0
 40
0
 40
0
 40
1
 40
1
 40
1
 40
1
 10
41.044328
 20
108.622858
 30
0.0
 10
41.518680
 20
108.622858
 30
0.0
 10
41.903217
 20
108.238320
 30
0.0
 10
41.903217
 20
107.763969
 30
0.0
  0
LWPOLYLINE
  5
1fd
100
AcDbEntity
  8
Layer_1
 62
7
100
AcDbPolyline
 90
2
 70
0
 10
41.903217
 20
135.481979
 30
0.0
 10
41.903217
 20
135.481979
 30
0.0
  0
SPLINE
  5
1fe
100
AcDbEntity
  8
Layer_1
 62
7
100
AcDbSpline
 70
8
 71
3
 72
8
 73
4
 74
0
 40
0
 40
0
 40
0
 40
0
 40
1
 40
1
 40
1
 40
1
 10
8.903200
 20
121.622971
 30
0.0
 10
8.903200
 20
121.148619
 30
0.0
 10
8.518663
 20
120.764083
 30
0.0
 10
8.044311
 20
120.764083
 30
0.0
  0
SPLINE
  5
1ff
100
AcDbEntity
  8
Layer_1
 62
7
100
AcDbSpline
 70
8
 71
3
 72
8
 73
4
 74
0
 40
0
 40
0
 40
0
 40
0
 40
1
 40
1
 40
1
 40
1
 10
8.044311
 20
120.764083
 30
0.0
 10
7.569959
 20
120.764083
 30
0.0
 10
7.185423
 20
121.148619
 30
0.0
 10
7.185423
 20
121.622971
 30
0.0
  0
SPLINE
  5
200
100
AcDbEntity
  8
Layer_1
 62
7
100
AcDbSpline
 70
8
 71
3
 72
8
 73
4
 74
0
 40
0
 40
0
 40
0
 40
0
 40
1
 40
1
 40
1
 40
1
 10
7.185423
 20
121.622971
 30
0.0
 10
7.185423
 20
122.097322
 30
0.0
 10
7.569959
 20
122.481860
 30
0.0
 10
8.044311
 20
122.481860
 30
0.0
  0
SPLINE
  5
201
100
AcDbEntity
  8
Layer_1
 62
7
100
AcDbSpline
 70
8
 71
3
 72
8
 73
4
 74
0
 40
0
 40
0
 40
0
 40
0
 40
1
 40
1
 40
1
 40
1
 10
8.044311
 20
122.481860
 30
0.0
 10
8.518663
 20
122.481860
 30
0.0
 10
8.903200
 20
122.097322
 30
0.0
 10
8.903200
 20
121.622971
 30
0.0
  0
LWPOLYLINE
  5
202
100
AcDbEntity
  8
Layer_1
 62
7
100
AcDbPolyline
 90
2
 70
0
 10
41.903217
 20
107.763969
 30
0.0
 10
41.903217
 20
107.763969
 30
0.0
  0
LWPOLYLINE
  5
203
100
AcDbEntity
  8
Layer_1
 62
7
100
AcDbPolyline
 90
2
 70
0
 10
8.903200
 20
121.622971
 30
0.0
 10
8.903200
 20
121.622971
 30
0.0
  0
SPLINE
  5
204
100
AcDbEntity
  8
Layer_1
 62
7
100
AcDbSpline
 70
8
 71
3
 72
8
 73
4
 74
0
 40
0
 40
0
 40
0
 40
0
 40
1
 40
1
 40
1
 40
1
 10
54.878309
 20
135.481979
 30
0.0
 10
54.878309
 20
135.007627
 30
0.0
 10
54.493772
 20
134.623090
 30
0.0
 10
54.019420
 20
134.623090
 30
0.0
  0
SPLINE
  5
205
100
AcDbEntity
  8
Layer_1
 62
7
100
AcDbSpline
 70
8
 71
3
 72
8
 73
4
 74
0
 40
0
 40
0
 40
0
 40
0
 40
1
 40
1
 40
1
 40
1
 10
54.019420
 20
134.623090
 30
0.0
 10
53.545068
 20
134.623090
 30
0.0
 10
53.160532
 20
135.007627
 30
0.0
 10
53.160532
 20
135.481979
 30
0.0
  0
SPLINE
  5
206
100
AcDbEntity
  8
Layer_1
 62
7
100
AcDbSpline
 70
8
 71
3
 72
8
 73
4
 74
0
 40
0
 40
0
 40
0
 40
0
 40
1
 40
1
 40
1
 40
1
 10
53.160532
 20
135.481979
 30
0.0
 10
53.160532
 20
135.956329
 30
0.0
 10
53.545068
 20
136.340868
 30
0.0
 10
54.019420
 20
136.340868
 30
0.0
  0
SPLINE
  5
207
100
AcDbEntity
  8
Layer_1
 62
7
100
AcDbSpline
 70
8
 71
3
 72
8
 73
4
 74
0
 40
0
 40
0
 40
0
 40
0
 40
1
 40
1
 40
1
 40
1
 10
54.019420
 20
136.340868
 30
0.0
 10
54.493772
 20
136.340868
 30
0.0
 10
54.878309
 20
135.956329
 30
0.0
 10
54.878309
 20
135.481979
 30
0.0
  0
LWPOLYLINE
  5
208
100
AcDbEntity
  8
Layer_1
 62
7
100
AcDbPolyline
 90
5
 70
0
 10
49.160532
 20
137.231862
 30
0.0
 10
88.878309
 20
137.231862
 30
0.0
 10
88.878309
 20
106.014085
 30
0.0
 10
49.160532
 20
106.014085
 30
0.0
 10
49.160532
 20
137.231862
 30
0.0
  0
SPLINE
  5
209
100
AcDbEntity
  8
Layer_1
 62
7
100
AcDbSpline
 70
8
 71
3
 72
8
 73
4
 74
0
 40
0
 40
0
 40
0
 40
0
 40
1
 40
1
 40
1
 40
1
 10
54.878309
 20
107.763969
 30
0.0
 10
54.878309
 20
107.289617
 30
0.0
 10
54.493772
 20
106.905081
 30
0.0
 10
54.019420
 20
106.905081
 30
0.0
  0
SPLINE
  5
20a
100
AcDbEntity
  8
Layer_1
 62
7
100
AcDbSpline
 70
8
 71
3
 72
8
 73
4
 74
0
 40
0
 40
0
 40
0
 40
0
 40
1
 40
1
 40
1
 40
1
 10
54.019420
 20
106.905081
 30
0.0
 10
53.545068
 20
106.905081
 30
0.0
 10
53.160532
 20
107.289617
 30
0.0
 10
53.160532
 20
107.763969
 30
0.0
  0
SPLINE
  5
20b
100
AcDbEntity
  8
Layer_1
 62
7
100
AcDbSpline
 70
8
 71
3
 72
8
 73
4
 74
0
 40
0
 40
0
 40
0
 40
0
 40
1
 40
1
 40
1
 40
1
 10
53.160532
 20
107.763969
 30
0.0
 10
53.160532
 20
108.238320
 30
0.0
 10
53.545068
 20
108.622858
 30
0.0
 10
54.019420
 20
108.622858
 30
0.0
  0
SPLINE
  5
20c
100
AcDbEntity
  8
Layer_1
 62
7
100
AcDbSpline
 70
8
 71
3
 72
8
 73
4
 74
0
 40
0
 40
0
 40
0
 40
0
 40
1
 40
1
 40
1
 40
1
 10
54.019420
 20
108.622858
 30
0.0
 10
54.493772
 20
108.622858
 30
0.0
 10
54.878309
 20
108.238320
 30
0.0
 10
54.878309
 20
107.763969
 30
0.0
  0
LWPOLYLINE
  5
20d
100
AcDbEntity
  8
Layer_1
 62
7
100
AcDbPolyline
 90
2
 70
0
 10
54.878309
 20
135.481979
 30
0.0
 10
54.878309
 20
135.481979
 30
0.0
  0
SPLINE
  5
20e
100
AcDbEntity
  8
Layer_1
 62
7
100
AcDbSpline
 70
8
 71
3
 72
8
 73
4
 74
0
 40
0
 40
0
 40
0
 40
0
 40
1
 40
1
 40
1
 40
1
 10
85.878324
 20
135.481979
 30
0.0
 10
85.878324
 20
135.007627
 30
0.0
 10
85.493787
 20
134.623090
 30
0.0
 10
85.019435
 20
134.623090
 30
0.0
  0
SPLINE
  5
20f
100
AcDbEntity
  8
Layer_1
 62
7
100
AcDbSpline
 70
8
 71
3
 72
8
 73
4
 74
0
 40
0
 40
0
 40
0
 40
0
 40
1
 40
1
 40
1
 40
1
 10
85.019435
 20
134.623090
 30
0.0
 10
84.545083
 20
134.623090
 30
0.0
 10
84.160547
 20
135.007627
 30
0.0
 10
84.160547
 20
135.481979
 30
0.0
  0
SPLINE
  5
210
100
AcDbEntity
  8
Layer_1
 62
7
100
AcDbSpline
 70
8
 71
3
 72
8
 73
4
 74
0
 40
0
 40
0
 40
0
 40
0
 40
1
 40
1
 40
1
 40
1
 10
84.160547
 20
135.481979
 30
0.0
 10
84.160547
 20
135.956329
 30
0.0
 10
84.545083
 20
136.340868
 30
0.0
 10
85.019435
 20
136.340868
 30
0.0
  0
SPLINE
  5
211
100
AcDbEntity
  8
Layer_1
 62
7
100
AcDbSpline
 70
8
 71
3
 72
8
 73
4
 74
0
 40
0
 40
0
 40
0
 40
0
 40
1
 40
1
 40
1
 40
1
 10
85.019435
 20
136.340868
 30
0.0
 10
85.493787
 20
136.340868
 30
0.0
 10
85.878324
 20
135.956329
 30
0.0
 10
85.878324
 20
135.481979
 30
0.0
  0
LWPOLYLINE
  5
212
100
AcDbEntity
  8
Layer_1
 62
7
100
AcDbPolyline
 90
2
 70
0
 10
54.878309
 20
107.763969
 30
0.0
 10
54.878309
 20
107.763969
 30
0.0
  0
SPLINE
  5
213
100
AcDbEntity
  8
Layer_1
 62
7
100
AcDbSpline
 70
8
 71
3
 72
8
 73
4
 74
0
 40
0
 40
0
 40
0
 40
0
 40
1
 40
1
 40
1
 40
1
 10
85.878324
 20
107.763969
 30
0.0
 10
85.878324
 20
107.289617
 30
0.0
 10
85.493787
 20
106.905081
 30
0.0
 10
85.019435
 20
106.905081
 30
0.0
  0
SPLINE
  5
214
100
AcDbEntity
  8
Layer_1
 62
7
100
AcDbSpline
 70
8
 71
3
 72
8
 73
4
 74
0
 40
0
 40
0
 40
0
 40
0
 40
1
 40
1
 40
1
 40
1
 10
85.019435
 20
106.905081
 30
0.0
 10
84.545083
 20
106.905081
 30
0.0
 10
84.160547
 20
107.289617
 30
0.0
 10
84.160547
 20
107.763969
 30
0.0
  0
SPLINE
  5
215
100
AcDbEntity
  8
Layer_1
 62
7
100
AcDbSpline
 70
8
 71
3
 72
8
 73
4
 74
0
 40
0
 40
0
 40
0
 40
0
 40
1
 40
1
 40
1
 40
1
 10
84.160547
 20
107.763969
 30
0.0
 10
84.160547
 20
108.238320
 30
0.0
 10
84.545083
 20
108.622858
 30
0.0
 10
85.019435
 20
108.622858
 30
0.0
  0
SPLINE
  5
216
100
AcDbEntity
  8
Layer_1
 62
7
100
AcDbSpline
 70
8
 71
3
 72
8
 73
4
 74
0
 40
0
 40
0
 40
0
 40
0
 40
1
 40
1
 40
1
 40
1
 10
85.019435
 20
108.622858
 30
0.0
 10
85.493787
 20
108.622858
 30
0.0
 10
85.878324
 20
108.238320
 30
0.0
 10
85.878324
 20
107.763969
 30
0.0
  0
LWPOLYLINE
  5
217
100
AcDbEntity
  8
Layer_1
 62
7
100
AcDbPolyline
 90
2
 70
0
 10
85.878324
 20
135.481979
 30
0.0
 10
85.878324
 20
135.481979
 30
0.0
  0
SPLINE
  5
218
100
AcDbEntity
  8
Layer_1
 62
7
100
AcDbSpline
 70
8
 71
3
 72
8
 73
4
 74
0
 40
0
 40
0
 40
0
 40
0
 40
1
 40
1
 40
1
 40
1
 10
52.878307
 20
121.622971
 30
0.0
 10
52.878307
 20
121.148619
 30
0.0
 10
52.493770
 20
120.764083
 30
0.0
 10
52.019419
 20
120.764083
 30
0.0
  0
SPLINE
  5
219
100
AcDbEntity
  8
Layer_1
 62
7
100
AcDbSpline
 70
8
 71
3
 72
8
 73
4
 74
0
 40
0
 40
0
 40
0
 40
0
 40
1
 40
1
 40
1
 40
1
 10
52.019419
 20
120.764083
 30
0.0
 10
51.545067
 20
120.764083
 30
0.0
 10
51.160530
 20
121.148619
 30
0.0
 10
51.160530
 20
121.622971
 30
0.0
  0
SPLINE
  5
21a
100
AcDbEntity
  8
Layer_1
 62
7
100
AcDbSpline
 70
8
 71
3
 72
8
 73
4
 74
0
 40
0
 40
0
 40
0
 40
0
 40
1
 40
1
 40
1
 40
1
 10
51.160530
 20
121.622971
 30
0.0
 10
51.160530
 20
122.097322
 30
0.0
 10
51.545067
 20
122.481860
 30
0.0
 10
52.019419
 20
122.481860
 30
0.0
  0
SPLINE
  5
21b
100
AcDbEntity
  8
Layer_1
 62
7
100
AcDbSpline
 70
8
 71
3
 72
8
 73
4
 74
0
 40
0
 40
0
 40
0
 40
0
 40
1
 40
1
 40
1
 40
1
 10
52.019419
 20
122.481860
 30
0.0
 10
52.493770
 20
122.481860
 30
0.0
 10
52.878307
 20
122.097322
 30
0.0
 10
52.878307
 20
121.622971
 30
0.0
  0
LWPOLYLINE
  5
21c
100
AcDbEntity
  8
Layer_1
 62
7
100
AcDbPolyline
 90
2
 70
0
 10
85.878324
 20
107.763969
 30
0.0
 10
85.878324
 20
107.763969
 30
0.0
  0
LWPOLYLINE
  5
21d
100
AcDbEntity
  8
Layer_1
 62
7
100
AcDbPolyline
 90
2
 70
0
 10
52.878307
 20
121.622971
 30
0.0
 10
52.878307
 20
121.622971
 30
0.0
  0
SPLINE
  5
21e
100
AcDbEntity
  8
Layer_1
 62
7
100
AcDbSpline
 70
8
 71
3
 72
8
 73
4
 74
0
 40
0
 40
0
 40
0
 40
0
 40
1
 40
1
 40
1
 40
1
 10
98.864660
 20
135.481979
 30
0.0
 10
98.864660
 20
135.007627
 30
0.0
 10
98.480123
 20
134.623090
 30
0.0
 10
98.005771
 20
134.623090
 30
0.0
  0
SPLINE
  5
21f
100
AcDbEntity
  8
Layer_1
 62
7
100
AcDbSpline
 70
8
 71
3
 72
8
 73
4
 74
0
 40
0
 40
0
 40
0
 40
0
 40
1
 40
1
 40
1
 40
1
 10
98.005771
 20
134.623090
 30
0.0
 10
97.531419
 20
134.623090
 30
0.0
 10
97.146882
 20
135.007627
 30
0.0
 10
97.146882
 20
135.481979
 30
0.0
  0
SPLINE
  5
220
100
AcDbEntity
  8
Layer_1
 62
7
100
AcDbSpline
 70
8
 71
3
 72
8
 73
4
 74
0
 40
0
 40
0
 40
0
 40
0
 40
1
 40
1
 40
1
 40
1
 10
97.146882
 20
135.481979
 30
0.0
 10
97.146882
 20
135.956329
 30
0.0
 10
97.531419
 20
136.340868
 30
0.0
 10
98.005771
 20
136.340868
 30
0.0
  0
SPLINE
  5
221
100
AcDbEntity
  8
Layer_1
 62
7
100
AcDbSpline
 70
8
 71
3
 72
8
 73
4
 74
0
 40
0
 40
0
 40
0
 40
0
 40
1
 40
1
 40
1
 40
1
 10
98.005771
 20
136.340868
 30
0.0
 10
98.480123
 20
136.340868
 30
0.0
 10
98.864660
 20
135.956329
 30
0.0
 10
98.864660
 20
135.481979
 30
0.0
  0
LWPOLYLINE
  5
222
100
AcDbEntity
  8
Layer_1
 62
7
100
AcDbPolyline
 90
5
 70
0
 10
93.146883
 20
137.231862
 30
0.0
 10
132.864660
 20
137.231862
 30
0.0
 10
132.864660
 20
106.014085
 30
0.0
 10
93.146883
 20
106.014085
 30
0.0
 10
93.146883
 20
137.231862
 30
0.0
  0
SPLINE
  5
223
100
AcDbEntity
  8
Layer_1
 62
7
100
AcDbSpline
 70
8
 71
3
 72
8
 73
4
 74
0
 40
0
 40
0
 40
0
 40
0
 40
1
 40
1
 40
1
 40
1
 10
98.864660
 20
107.763969
 30
0.0
 10
98.864660
 20
107.289617
 30
0.0
 10
98.480123
 20
106.905081
 30
0.0
 10
98.005771
 20
106.905081
 30
0.0
  0
SPLINE
  5
224
100
AcDbEntity
  8
Layer_1
 62
7
100
AcDbSpline
 70
8
 71
3
 72
8
 73
4
 74
0
 40
0
 40
0
 40
0
 40
0
 40
1
 40
1
 40
1
 40
1
 10
98.005771
 20
106.905081
 30
0.0
 10
97.531419
 20
106.905081
 30
0.0
 10
97.146882
 20
107.289617
 30
0.0
 10
97.146882
 20
107.763969
 30
0.0
  0
SPLINE
  5
225
100
AcDbEntity
  8
Layer_1
 62
7
100
AcDbSpline
 70
8
 71
3
 72
8
 73
4
 74
0
 40
0
 40
0
 40
0
 40
0
 40
1
 40
1
 40
1
 40
1
 10
97.146882
 20
107.763969
 30
0.0
 10
97.146882
 20
108.238320
 30
0.0
 10
97.531419
 20
108.622858
 30
0.0
 10
98.005771
 20
108.622858
 30
0.0
  0
SPLINE
  5
226
100
AcDbEntity
  8
Layer_1
 62
7
100
AcDbSpline
 70
8
 71
3
 72
8
 73
4
 74
0
 40
0
 40
0
 40
0
 40
0
 40
1
 40
1
 40
1
 40
1
 10
98.005771
 20
108.622858
 30
0.0
 10
98.480123
 20
108.622858
 30
0.0
 10
98.864660
 20
108.238320
 30
0.0
 10
98.864660
 20
107.763969
 30
0.0
  0
LWPOLYLINE
  5
227
100
AcDbEntity
  8
Layer_1
 62
7
100
AcDbPolyline
 90
2
 70
0
 10
98.864660
 20
135.481979
 30
0.0
 10
98.864660
 20
135.481979
 30
0.0
  0
SPLINE
  5
228
100
AcDbEntity
  8
Layer_1
 62
7
100
AcDbSpline
 70
8
 71
3
 72
8
 73
4
 74
0
 40
0
 40
0
 40
0
 40
0
 40
1
 40
1
 40
1
 40
1
 10
129.864675
 20
135.481979
 30
0.0
 10
129.864675
 20
135.007627
 30
0.0
 10
129.480138
 20
134.623090
 30
0.0
 10
129.005786
 20
134.623090
 30
0.0
  0
SPLINE
  5
229
100
AcDbEntity
  8
Layer_1
 62
7
100
AcDbSpline
 70
8
 71
3
 72
8
 73
4
 74
0
 40
0
 40
0
 40
0
 40
0
 40
1
 40
1
 40
1
 40
1
 10
129.005786
 20
134.623090
 30
0.0
 10
128.531434
 20
134.623090
 30
0.0
 10
128.146897
 20
135.007627
 30
0.0
 10
128.146897
 20
135.481979
 30
0.0
  0
SPLINE
  5
22a
100
AcDbEntity
  8
Layer_1
 62
7
100
AcDbSpline
 70
8
 71
3
 72
8
 73
4
 74
0
 40
0
 40
0
 40
0
 40
0
 40
1
 40
1
 40
1
 40
1
 10
128.146897
 20
135.481979
 30
0.0
 10
128.146897
 20
135.956329
 30
0.0
 10
128.531434
 20
136.340868
 30
0.0
 10
129.005786
 20
136.340868
 30
0.0
  0
SPLINE
  5
22b
100
AcDbEntity
  8
Layer_1
 62
7
100
AcDbSpline
 70
8
 71
3
 72
8
 73
4
 74
0
 40
0
 40
0
 40
0
 40
0
 40
1
 40
1
 40
1
 40
1
 10
129.005786
 20
136.340868
 30
0.0
 10
129.480138
 20
136.340868
 30
0.0
 10
129.864675
 20
135.956329
 30
0.0
 10
129.864675
 20
135.481979
 30
0.0
  0
LWPOLYLINE
  5
22c
100
AcDbEntity
  8
Layer_1
 62
7
100
AcDbPolyline
 90
2
 70
0
 10
98.864660
 20
107.763969
 30
0.0
 10
98.864660
 20
107.763969
 30
0.0
  0
SPLINE
  5
22d
100
AcDbEntity
  8
Layer_1
 62
7
100
AcDbSpline
 70
8
 71
3
 72
8
 73
4
 74
0
 40
0
 40
0
 40
0
 40
0
 40
1
 40
1
 40
1
 40
1
 10
129.864675
 20
107.763969
 30
0.0
 10
129.864675
 20
107.289617
 30
0.0
 10
129.480138
 20
106.905081
 30
0.0
 10
129.005786
 20
106.905081
 30
0.0
  0
SPLINE
  5
22e
100
AcDbEntity
  8
Layer_1
 62
7
100
AcDbSpline
 70
8
 71
3
 72
8
 73
4
 74
0
 40
0
 40
0
 40
0
 40
0
 40
1
 40
1
 40
1
 40
1
 10
129.005786
 20
106.905081
 30
0.0
 10
128.531434
 20
106.905081
 30
0.0
 10
128.146897
 20
107.289617
 30
0.0
 10
128.146897
 20
107.763969
 30
0.0
  0
SPLINE
  5
22f
100
AcDbEntity
  8
Layer_1
 62
7
100
AcDbSpline
 70
8
 71
3
 72
8
 73
4
 74
0
 40
0
 40
0
 40
0
 40
0
 40
1
 40
1
 40
1
 40
1
 10
128.146897
 20
107.763969
 30
0.0
 10
128.146897
 20
108.238320
 30
0.0
 10
128.531434
 20
108.622858
 30
0.0
 10
129.005786
 20
108.622858
 30
0.0
  0
SPLINE
  5
230
100
AcDbEntity
  8
Layer_1
 62
7
100
AcDbSpline
 70
8
 71
3
 72
8
 73
4
 74
0
 40
0
 40
0
 40
0
 40
0
 40
1
 40
1
 40
1
 40
1
 10
129.005786
 20
108.622858
 30
0.0
 10
129.480138
 20
108.622858
 30
0.0
 10
129.864675
 20
108.238320
 30
0.0
 10
129.864675
 20
107.763969
 30
0.0
  0
LWPOLYLINE
  5
231
100
AcDbEntity
  8
Layer_1
 62
7
100
AcDbPolyline
 90
2
 70
0
 10
129.864675
 20
135.481979
 30
0.0
 10
129.864675
 20
135.481979
 30
0.0
  0
SPLINE
  5
232
100
AcDbEntity
  8
Layer_1
 62
7
100
AcDbSpline
 70
8
 71
3
 72
8
 73
4
 74
0
 40
0
 40
0
 40
0
 40
0
 40
1
 40
1
 40
1
 40
1
 10
96.864658
 20
121.622971
 30
0.0
 10
96.864658
 20
121.148619
 30
0.0
 10
96.480121
 20
120.764083
 30
0.0
 10
96.005769
 20
120.764083
 30
0.0
  0
SPLINE
  5
233
100
AcDbEntity
  8
Layer_1
 62
7
100
AcDbSpline
 70
8
 71
3
 72
8
 73
4
 74
0
 40
0
 40
0
 40
0
 40
0
 40
1
 40
1
 40
1
 40
1
 10
96.005769
 20
120.764083
 30
0.0
 10
95.531417
 20
120.764083
 30
0.0
 10
95.146881
 20
121.148619
 30
0.0
 10
95.146881
 20
121.622971
 30
0.0
  0
SPLINE
  5
234
100
AcDbEntity
  8
Layer_1
 62
7
100
AcDbSpline
 70
8
 71
3
 72
8
 73
4
 74
0
 40
0
 40
0
 40
0
 40
0
 40
1
 40
1
 40
1
 40
1
 10
95.146881
 20
121.622971
 30
0.0
 10
95.146881
 20
122.097322
 30
0.0
 10
95.531417
 20
122.481860
 30
0.0
 10
96.005769
 20
122.481860
 30
0.0
  0
SPLINE
  5
235
100
AcDbEntity
  8
Layer_1
 62
7
100
AcDbSpline
 70
8
 71
3
 72
8
 73
4
 74
0
 40
0
 40
0
 40
0
 40
0
 40
1
 40
1
 40
1
 40
1
 10
96.005769
 20
122.481860
 30
0.0
 10
96.480121
 20
122.481860
 30
0.0
 10
96.864658
 20
122.097322
 30
0.0
 10
96.864658
 20
121.622971
 30
0.0
  0
LWPOLYLINE
  5
236
100
AcDbEntity
  8
Layer_1
 62
7
100
AcDbPolyline
 90
2
 70
0
 10
129.864675
 20
107.763969
 30
0.0
 10
129.864675
 20
107.763969
 30
0.0
  0
LWPOLYLINE
  5
237
100
AcDbEntity
  8
Layer_1
 62
7
100
AcDbPolyline
 90
2
 70
0
 10
96.864658
 20
121.622971
 30
0.0
 10
96.864658
 20
121.622971
 30
0.0
  0
SPLINE
  5
238
100
AcDbEntity
  8
Layer_1
 62
7
100
AcDbSpline
 70
8
 71
3
 72
8
 73
4
 74
0
 40
0
 40
0
 40
0
 40
0
 40
1
 40
1
 40
1
 40
1
 10
10.903202
 20
169.487775
 30
0.0
 10
10.903202
 20
169.013424
 30
0.0
 10
10.518665
 20
168.628887
 30
0.0
 10
10.044313
 20
168.628887
 30
0.0
  0
SPLINE
  5
239
100
AcDbEntity
  8
Layer_1
 62
7
100
AcDbSpline
 70
8
 71
3
 72
8
 73
4
 74
0
 40
0
 40
0
 40
0
 40
0
 40
1
 40
1
 40
1
 40
1
 10
10.044313
 20
168.628887
 30
0.0
 10
9.569961
 20
168.628887
 30
0.0
 10
9.185424
 20
169.013424
 30
0.0
 10
9.185424
 20
169.487775
 30
0.0
  0
SPLINE
  5
23a
100
AcDbEntity
  8
Layer_1
 62
7
100
AcDbSpline
 70
8
 71
3
 72
8
 73
4
 74
0
 40
0
 40
0
 40
0
 40
0
 40
1
 40
1
 40
1
 40
1
 10
9.185424
 20
169.487775
 30
0.0
 10
9.185424
 20
169.962126
 30
0.0
 10
9.569961
 20
170.346664
 30
0.0
 10
10.044313
 20
170.346664
 30
0.0
  0
SPLINE
  5
23b
100
AcDbEntity
  8
Layer_1
 62
7
100
AcDbSpline
 70
8
 71
3
 72
8
 73
4
 74
0
 40
0
 40
0
 40
0
 40
0
 40
1
 40
1
 40
1
 40
1
 10
10.044313
 20
170.346664
 30
0.0
 10
10.518665
 20
170.346664
 30
0.0
 10
10.903202
 20
169.962126
 30
0.0
 10
10.903202
 20
169.487775
 30
0.0
  0
LWPOLYLINE
  5
23c
100
AcDbEntity
  8
Layer_1
 62
7
100
AcDbPolyline
 90
5
 70
0
 10
5.185425
 20
171.237659
 30
0.0
 10
44.903202
 20
171.237659
 30
0.0
 10
44.903202
 20
140.019882
 30
0.0
 10
5.185425
 20
140.019882
 30
0.0
 10
5.185425
 20
171.237659
 30
0.0
  0
SPLINE
  5
23d
100
AcDbEntity
  8
Layer_1
 62
7
100
AcDbSpline
 70
8
 71
3
 72
8
 73
4
 74
0
 40
0
 40
0
 40
0
 40
0
 40
1
 40
1
 40
1
 40
1
 10
10.903202
 20
141.769766
 30
0.0
 10
10.903202
 20
141.295414
 30
0.0
 10
10.518665
 20
140.910877
 30
0.0
 10
10.044313
 20
140.910877
 30
0.0
  0
SPLINE
  5
23e
100
AcDbEntity
  8
Layer_1
 62
7
100
AcDbSpline
 70
8
 71
3
 72
8
 73
4
 74
0
 40
0
 40
0
 40
0
 40
0
 40
1
 40
1
 40
1
 40
1
 10
10.044313
 20
140.910877
 30
0.0
 10
9.569961
 20
140.910877
 30
0.0
 10
9.185424
 20
141.295414
 30
0.0
 10
9.185424
 20
141.769766
 30
0.0
  0
SPLINE
  5
23f
100
AcDbEntity
  8
Layer_1
 62
7
100
AcDbSpline
 70
8
 71
3
 72
8
 73
4
 74
0
 40
0
 40
0
 40
0
 40
0
 40
1
 40
1
 40
1
 40
1
 10
9.185424
 20
141.769766
 30
0.0
 10
9.185424
 20
142.244116
 30
0.0
 10
9.569961
 20
142.628655
 30
0.0
 10
10.044313
 20
142.628655
 30
0.0
  0
SPLINE
  5
240
100
AcDbEntity
  8
Layer_1
 62
7
100
AcDbSpline
 70
8
 71
3
 72
8
 73
4
 74
0
 40
0
 40
0
 40
0
 40
0
 40
1
 40
1
 40
1
 40
1
 10
10.044313
 20
142.628655
 30
0.0
 10
10.518665
 20
142.628655
 30
0.0
 10
10.903202
 20
142.244116
 30
0.0
 10
10.903202
 20
141.769766
 30
0.0
  0
LWPOLYLINE
  5
241
100
AcDbEntity
  8
Layer_1
 62
7
100
AcDbPolyline
 90
2
 70
0
 10
10.903202
 20
169.487775
 30
0.0
 10
10.903202
 20
169.487775
 30
0.0
  0
SPLINE
  5
242
100
AcDbEntity
  8
Layer_1
 62
7
100
AcDbSpline
 70
8
 71
3
 72
8
 73
4
 74
0
 40
0
 40
0
 40
0
 40
0
 40
1
 40
1
 40
1
 40
1
 10
41.903217
 20
169.487775
 30
0.0
 10
41.903217
 20
169.013424
 30
0.0
 10
41.518680
 20
168.628887
 30
0.0
 10
41.044328
 20
168.628887
 30
0.0
  0
SPLINE
  5
243
100
AcDbEntity
  8
Layer_1
 62
7
100
AcDbSpline
 70
8
 71
3
 72
8
 73
4
 74
0
 40
0
 40
0
 40
0
 40
0
 40
1
 40
1
 40
1
 40
1
 10
41.044328
 20
168.628887
 30
0.0
 10
40.569976
 20
168.628887
 30
0.0
 10
40.185439
 20
169.013424
 30
0.0
 10
40.185439
 20
169.487775
 30
0.0
  0
SPLINE
  5
244
100
AcDbEntity
  8
Layer_1
 62
7
100
AcDbSpline
 70
8
 71
3
 72
8
 73
4
 74
0
 40
0
 40
0
 40
0
 40
0
 40
1
 40
1
 40
1
 40
1
 10
40.185439
 20
169.487775
 30
0.0
 10
40.185439
 20
169.962126
 30
0.0
 10
40.569976
 20
170.346664
 30
0.0
 10
41.044328
 20
170.346664
 30
0.0
  0
SPLINE
  5
245
100
AcDbEntity
  8
Layer_1
 62
7
100
AcDbSpline
 70
8
 71
3
 72
8
 73
4
 74
0
 40
0
 40
0
 40
0
 40
0
 40
1
 40
1
 40
1
 40
1
 10
41.044328
 20
170.346664
 30
0.0
 10
41.518680
 20
170.346664
 30
0.0
 10
41.903217
 20
169.962126
 30
0.0
 10
41.903217
 20
169.487775
 30
0.0
  0
LWPOLYLINE
  5
246
100
AcDbEntity
  8
Layer_1
 62
7
100
AcDbPolyline
 90
2
 70
0
 10
10.903202
 20
141.769766
 30
0.0
 10
10.903202
 20
141.769766
 30
0.0
  0
SPLINE
  5
247
100
AcDbEntity
  8
Layer_1
 62
7
100
AcDbSpline
 70
8
 71
3
 72
8
 73
4
 74
0
 40
0
 40
0
 40
0
 40
0
 40
1
 40
1
 40
1
 40
1
 10
41.903217
 20
141.769766
 30
0.0
 10
41.903217
 20
141.295414
 30
0.0
 10
41.518680
 20
140.910877
 30
0.0
 10
41.044328
 20
140.910877
 30
0.0
  0
SPLINE
  5
248
100
AcDbEntity
  8
Layer_1
 62
7
100
AcDbSpline
 70
8
 71
3
 72
8
 73
4
 74
0
 40
0
 40
0
 40
0
 40
0
 40
1
 40
1
 40
1
 40
1
 10
41.044328
 20
140.910877
 30
0.0
 10
40.569976
 20
140.910877
 30
0.0
 10
40.185439
 20
141.295414
 30
0.0
 10
40.185439
 20
141.769766
 30
0.0
  0
SPLINE
  5
249
100
AcDbEntity
  8
Layer_1
 62
7
100
AcDbSpline
 70
8
 71
3
 72
8
 73
4
 74
0
 40
0
 40
0
 40
0
 40
0
 40
1
 40
1
 40
1
 40
1
 10
40.185439
 20
141.769766
 30
0.0
 10
40.185439
 20
142.244116
 30
0.0
 10
40.569976
 20
142.628655
 30
0.0
 10
41.044328
 20
142.628655
 30
0.0
  0
SPLINE
  5
24a
100
AcDbEntity
  8
Layer_1
 62
7
100
AcDbSpline
 70
8
 71
3
 72
8
 73
4
 74
0
 40
0
 40
0
 40
0
 40
0
 40
1
 40
1
 40
1
 40
1
 10
41.044328
 20
142.628655
 30
0.0
 10
41.518680
 20
142.628655
 30
0.0
 10
41.903217
 20
142.244116
 30
0.0
 10
41.903217
 20
141.769766
 30
0.0
  0
LWPOLYLINE
  5
24b
100
AcDbEntity
  8
Layer_1
 62
7
100
AcDbPolyline
 90
2
 70
0
 10
41.903217
 20
169.487775
 30
0.0
 10
41.903217
 20
169.487775
 30
0.0
  0
SPLINE
  5
24c
100
AcDbEntity
  8
Layer_1
 62
7
100
AcDbSpline
 70
8
 71
3
 72
8
 73
4
 74
0
 40
0
 40
0
 40
0
 40
0
 40
1
 40
1
 40
1
 40
1
 10
8.903200
 20
155.628768
 30
0.0
 10
8.903200
 20
155.154416
 30
0.0
 10
8.518663
 20
154.769879
 30
0.0
 10
8.044311
 20
154.769879
 30
0.0
  0
SPLINE
  5
24d
100
AcDbEntity
  8
Layer_1
 62
7
100
AcDbSpline
 70
8
 71
3
 72
8
 73
4
 74
0
 40
0
 40
0
 40
0
 40
0
 40
1
 40
1
 40
1
 40
1
 10
8.044311
 20
154.769879
 30
0.0
 10
7.569959
 20
154.769879
 30
0.0
 10
7.185423
 20
155.154416
 30
0.0
 10
7.185423
 20
155.628768
 30
0.0
  0
SPLINE
  5
24e
100
AcDbEntity
  8
Layer_1
 62
7
100
AcDbSpline
 70
8
 71
3
 72
8
 73
4
 74
0
 40
0
 40
0
 40
0
 40
0
 40
1
 40
1
 40
1
 40
1
 10
7.185423
 20
155.628768
 30
0.0
 10
7.185423
 20
156.103118
 30
0.0
 10
7.569959
 20
156.487657
 30
0.0
 10
8.044311
 20
156.487657
 30
0.0
  0
SPLINE
  5
24f
100
AcDbEntity
  8
Layer_1
 62
7
100
AcDbSpline
 70
8
 71
3
 72
8
 73
4
 74
0
 40
0
 40
0
 40
0
 40
0
 40
1
 40
1
 40
1
 40
1
 10
8.044311
 20
156.487657
 30
0.0
 10
8.518663
 20
156.487657
 30
0.0
 10
8.903200
 20
156.103118
 30
0.0
 10
8.903200
 20
155.628768
 30
0.0
  0
LWPOLYLINE
  5
250
100
AcDbEntity
  8
Layer_1
 62
7
100
AcDbPolyline
 90
2
 70
0
 10
41.903217
 20
141.769766
 30
0.0
 10
41.903217
 20
141.769766
 30
0.0
  0
LWPOLYLINE
  5
251
100
AcDbEntity
  8
Layer_1
 62
7
100
AcDbPolyline
 90
2
 70
0
 10
8.903200
 20
155.628768
 30
0.0
 10
8.903200
 20
155.628768
 30
0.0
  0
SPLINE
  5
252
100
AcDbEntity
  8
Layer_1
 62
7
100
AcDbSpline
 70
8
 71
3
 72
8
 73
4
 74
0
 40
0
 40
0
 40
0
 40
0
 40
1
 40
1
 40
1
 40
1
 10
54.878309
 20
169.487775
 30
0.0
 10
54.878309
 20
169.013424
 30
0.0
 10
54.493772
 20
168.628887
 30
0.0
 10
54.019420
 20
168.628887
 30
0.0
  0
SPLINE
  5
253
100
AcDbEntity
  8
Layer_1
 62
7
100
AcDbSpline
 70
8
 71
3
 72
8
 73
4
 74
0
 40
0
 40
0
 40
0
 40
0
 40
1
 40
1
 40
1
 40
1
 10
54.019420
 20
168.628887
 30
0.0
 10
53.545068
 20
168.628887
 30
0.0
 10
53.160532
 20
169.013424
 30
0.0
 10
53.160532
 20
169.487775
 30
0.0
  0
SPLINE
  5
254
100
AcDbEntity
  8
Layer_1
 62
7
100
AcDbSpline
 70
8
 71
3
 72
8
 73
4
 74
0
 40
0
 40
0
 40
0
 40
0
 40
1
 40
1
 40
1
 40
1
 10
53.160532
 20
169.487775
 30
0.0
 10
53.160532
 20
169.962126
 30
0.0
 10
53.545068
 20
170.346664
 30
0.0
 10
54.019420
 20
170.346664
 30
0.0
  0
SPLINE
  5
255
100
AcDbEntity
  8
Layer_1
 62
7
100
AcDbSpline
 70
8
 71
3
 72
8
 73
4
 74
0
 40
0
 40
0
 40
0
 40
0
 40
1
 40
1
 40
1
 40
1
 10
54.019420
 20
170.346664
 30
0.0
 10
54.493772
 20
170.346664
 30
0.0
 10
54.878309
 20
169.962126
 30
0.0
 10
54.878309
 20
169.487775
 30
0.0
  0
LWPOLYLINE
  5
256
100
AcDbEntity
  8
Layer_1
 62
7
100
AcDbPolyline
 90
5
 70
0
 10
49.160532
 20
171.237659
 30
0.0
 10
88.878309
 20
171.237659
 30
0.0
 10
88.878309
 20
140.019882
 30
0.0
 10
49.160532
 20
140.019882
 30
0.0
 10
49.160532
 20
171.237659
 30
0.0
  0
SPLINE
  5
257
100
AcDbEntity
  8
Layer_1
 62
7
100
AcDbSpline
 70
8
 71
3
 72
8
 73
4
 74
0
 40
0
 40
0
 40
0
 40
0
 40
1
 40
1
 40
1
 40
1
 10
54.878309
 20
141.769766
 30
0.0
 10
54.878309
 20
141.295414
 30
0.0
 10
54.493772
 20
140.910877
 30
0.0
 10
54.019420
 20
140.910877
 30
0.0
  0
SPLINE
  5
258
100
AcDbEntity
  8
Layer_1
 62
7
100
AcDbSpline
 70
8
 71
3
 72
8
 73
4
 74
0
 40
0
 40
0
 40
0
 40
0
 40
1
 40
1
 40
1
 40
1
 10
54.019420
 20
140.910877
 30
0.0
 10
53.545068
 20
140.910877
 30
0.0
 10
53.160532
 20
141.295414
 30
0.0
 10
53.160532
 20
141.769766
 30
0.0
  0
SPLINE
  5
259
100
AcDbEntity
  8
Layer_1
 62
7
100
AcDbSpline
 70
8
 71
3
 72
8
 73
4
 74
0
 40
0
 40
0
 40
0
 40
0
 40
1
 40
1
 40
1
 40
1
 10
53.160532
 20
141.769766
 30
0.0
 10
53.160532
 20
142.244116
 30
0.0
 10
53.545068
 20
142.628655
 30
0.0
 10
54.019420
 20
142.628655
 30
0.0
  0
SPLINE
  5
25a
100
AcDbEntity
  8
Layer_1
 62
7
100
AcDbSpline
 70
8
 71
3
 72
8
 73
4
 74
0
 40
0
 40
0
 40
0
 40
0
 40
1
 40
1
 40
1
 40
1
 10
54.019420
 20
142.628655
 30
0.0
 10
54.493772
 20
142.628655
 30
0.0
 10
54.878309
 20
142.244116
 30
0.0
 10
54.878309
 20
141.769766
 30
0.0
  0
LWPOLYLINE
  5
25b
100
AcDbEntity
  8
Layer_1
 62
7
100
AcDbPolyline
 90
2
 70
0
 10
54.878309
 20
169.487775
 30
0.0
 10
54.878309
 20
169.487775
 30
0.0
  0
SPLINE
  5
25c
100
AcDbEntity
  8
Layer_1
 62
7
100
AcDbSpline
 70
8
 71
3
 72
8
 73
4
 74
0
 40
0
 40
0
 40
0
 40
0
 40
1
 40
1
 40
1
 40
1
 10
85.878324
 20
169.487775
 30
0.0
 10
85.878324
 20
169.013424
 30
0.0
 10
85.493787
 20
168.628887
 30
0.0
 10
85.019435
 20
168.628887
 30
0.0
  0
SPLINE
  5
25d
100
AcDbEntity
  8
Layer_1
 62
7
100
AcDbSpline
 70
8
 71
3
 72
8
 73
4
 74
0
 40
0
 40
0
 40
0
 40
0
 40
1
 40
1
 40
1
 40
1
 10
85.019435
 20
168.628887
 30
0.0
 10
84.545083
 20
168.628887
 30
0.0
 10
84.160547
 20
169.013424
 30
0.0
 10
84.160547
 20
169.487775
 30
0.0
  0
SPLINE
  5
25e
100
AcDbEntity
  8
Layer_1
 62
7
100
AcDbSpline
 70
8
 71
3
 72
8
 73
4
 74
0
 40
0
 40
0
 40
0
 40
0
 40
1
 40
1
 40
1
 40
1
 10
84.160547
 20
169.487775
 30
0.0
 10
84.160547
 20
169.962126
 30
0.0
 10
84.545083
 20
170.346664
 30
0.0
 10
85.019435
 20
170.346664
 30
0.0
  0
SPLINE
  5
25f
100
AcDbEntity
  8
Layer_1
 62
7
100
AcDbSpline
 70
8
 71
3
 72
8
 73
4
 74
0
 40
0
 40
0
 40
0
 40
0
 40
1
 40
1
 40
1
 40
1
 10
85.019435
 20
170.346664
 30
0.0
 10
85.493787
 20
170.346664
 30
0.0
 10
85.878324
 20
169.962126
 30
0.0
 10
85.878324
 20
169.487775
 30
0.0
  0
LWPOLYLINE
  5
260
100
AcDbEntity
  8
Layer_1
 62
7
100
AcDbPolyline
 90
2
 70
0
 10
54.878309
 20
141.769766
 30
0.0
 10
54.878309
 20
141.769766
 30
0.0
  0
SPLINE
  5
261
100
AcDbEntity
  8
Layer_1
 62
7
100
AcDbSpline
 70
8
 71
3
 72
8
 73
4
 74
0
 40
0
 40
0
 40
0
 40
0
 40
1
 40
1
 40
1
 40
1
 10
85.878324
 20
141.769766
 30
0.0
 10
85.878324
 20
141.295414
 30
0.0
 10
85.493787
 20
140.910877
 30
0.0
 10
85.019435
 20
140.910877
 30
0.0
  0
SPLINE
  5
262
100
AcDbEntity
  8
Layer_1
 62
7
100
AcDbSpline
 70
8
 71
3
 72
8
 73
4
 74
0
 40
0
 40
0
 40
0
 40
0
 40
1
 40
1
 40
1
 40
1
 10
85.019435
 20
140.910877
 30
0.0
 10
84.545083
 20
140.910877
 30
0.0
 10
84.160547
 20
141.295414
 30
0.0
 10
84.160547
 20
141.769766
 30
0.0
  0
SPLINE
  5
263
100
AcDbEntity
  8
Layer_1
 62
7
100
AcDbSpline
 70
8
 71
3
 72
8
 73
4
 74
0
 40
0
 40
0
 40
0
 40
0
 40
1
 40
1
 40
1
 40
1
 10
84.160547
 20
141.769766
 30
0.0
 10
84.160547
 20
142.244116
 30
0.0
 10
84.545083
 20
142.628655
 30
0.0
 10
85.019435
 20
142.628655
 30
0.0
  0
SPLINE
  5
264
100
AcDbEntity
  8
Layer_1
 62
7
100
AcDbSpline
 70
8
 71
3
 72
8
 73
4
 74
0
 40
0
 40
0
 40
0
 40
0
 40
1
 40
1
 40
1
 40
1
 10
85.019435
 20
142.628655
 30
0.0
 10
85.493787
 20
142.628655
 30
0.0
 10
85.878324
 20
142.244116
 30
0.0
 10
85.878324
 20
141.769766
 30
0.0
  0
LWPOLYLINE
  5
265
100
AcDbEntity
  8
Layer_1
 62
7
100
AcDbPolyline
 90
2
 70
0
 10
85.878324
 20
169.487775
 30
0.0
 10
85.878324
 20
169.487775
 30
0.0
  0
SPLINE
  5
266
100
AcDbEntity
  8
Layer_1
 62
7
100
AcDbSpline
 70
8
 71
3
 72
8
 73
4
 74
0
 40
0
 40
0
 40
0
 40
0
 40
1
 40
1
 40
1
 40
1
 10
52.878307
 20
155.628768
 30
0.0
 10
52.878307
 20
155.154416
 30
0.0
 10
52.493770
 20
154.769879
 30
0.0
 10
52.019419
 20
154.769879
 30
0.0
  0
SPLINE
  5
267
100
AcDbEntity
  8
Layer_1
 62
7
100
AcDbSpline
 70
8
 71
3
 72
8
 73
4
 74
0
 40
0
 40
0
 40
0
 40
0
 40
1
 40
1
 40
1
 40
1
 10
52.019419
 20
154.769879
 30
0.0
 10
51.545067
 20
154.769879
 30
0.0
 10
51.160530
 20
155.154416
 30
0.0
 10
51.160530
 20
155.628768
 30
0.0
  0
SPLINE
  5
268
100
AcDbEntity
  8
Layer_1
 62
7
100
AcDbSpline
 70
8
 71
3
 72
8
 73
4
 74
0
 40
0
 40
0
 40
0
 40
0
 40
1
 40
1
 40
1
 40
1
 10
51.160530
 20
155.628768
 30
0.0
 10
51.160530
 20
156.103118
 30
0.0
 10
51.545067
 20
156.487657
 30
0.0
 10
52.019419
 20
156.487657
 30
0.0
  0
SPLINE
  5
269
100
AcDbEntity
  8
Layer_1
 62
7
100
AcDbSpline
 70
8
 71
3
 72
8
 73
4
 74
0
 40
0
 40
0
 40
0
 40
0
 40
1
 40
1
 40
1
 40
1
 10
52.019419
 20
156.487657
 30
0.0
 10
52.493770
 20
156.487657
 30
0.0
 10
52.878307
 20
156.103118
 30
0.0
 10
52.878307
 20
155.628768
 30
0.0
  0
LWPOLYLINE
  5
26a
100
AcDbEntity
  8
Layer_1
 62
7
100
AcDbPolyline
 90
2
 70
0
 10
85.878324
 20
141.769766
 30
0.0
 10
85.878324
 20
141.769766
 30
0.0
  0
LWPOLYLINE
  5
26b
100
AcDbEntity
  8
Layer_1
 62
7
100
AcDbPolyline
 90
2
 70
0
 10
52.878307
 20
155.628768
 30
0.0
 10
52.878307
 20
155.628768
 30
0.0
  0
SPLINE
  5
26c
100
AcDbEntity
  8
Layer_1
 62
7
100
AcDbSpline
 70
8
 71
3
 72
8
 73
4
 74
0
 40
0
 40
0
 40
0
 40
0
 40
1
 40
1
 40
1
 40
1
 10
98.864660
 20
169.487775
 30
0.0
 10
98.864660
 20
169.013424
 30
0.0
 10
98.480123
 20
168.628887
 30
0.0
 10
98.005771
 20
168.628887
 30
0.0
  0
SPLINE
  5
26d
100
AcDbEntity
  8
Layer_1
 62
7
100
AcDbSpline
 70
8
 71
3
 72
8
 73
4
 74
0
 40
0
 40
0
 40
0
 40
0
 40
1
 40
1
 40
1
 40
1
 10
98.005771
 20
168.628887
 30
0.0
 10
97.531419
 20
168.628887
 30
0.0
 10
97.146882
 20
169.013424
 30
0.0
 10
97.146882
 20
169.487775
 30
0.0
  0
SPLINE
  5
26e
100
AcDbEntity
  8
Layer_1
 62
7
100
AcDbSpline
 70
8
 71
3
 72
8
 73
4
 74
0
 40
0
 40
0
 40
0
 40
0
 40
1
 40
1
 40
1
 40
1
 10
97.146882
 20
169.487775
 30
0.0
 10
97.146882
 20
169.962126
 30
0.0
 10
97.531419
 20
170.346664
 30
0.0
 10
98.005771
 20
170.346664
 30
0.0
  0
SPLINE
  5
26f
100
AcDbEntity
  8
Layer_1
 62
7
100
AcDbSpline
 70
8
 71
3
 72
8
 73
4
 74
0
 40
0
 40
0
 40
0
 40
0
 40
1
 40
1
 40
1
 40
1
 10
98.005771
 20
170.346664
 30
0.0
 10
98.480123
 20
170.346664
 30
0.0
 10
98.864660
 20
169.962126
 30
0.0
 10
98.864660
 20
169.487775
 30
0.0
  0
LWPOLYLINE
  5
270
100
AcDbEntity
  8
Layer_1
 62
7
100
AcDbPolyline
 90
5
 70
0
 10
93.146883
 20
171.237659
 30
0.0
 10
132.864660
 20
171.237659
 30
0.0
 10
132.864660
 20
140.019882
 30
0.0
 10
93.146883
 20
140.019882
 30
0.0
 10
93.146883
 20
171.237659
 30
0.0
  0
SPLINE
  5
271
100
AcDbEntity
  8
Layer_1
 62
7
100
AcDbSpline
 70
8
 71
3
 72
8
 73
4
 74
0
 40
0
 40
0
 40
0
 40
0
 40
1
 40
1
 40
1
 40
1
 10
98.864660
 20
141.769766
 30
0.0
 10
98.864660
 20
141.295414
 30
0.0
 10
98.480123
 20
140.910877
 30
0.0
 10
98.005771
 20
140.910877
 30
0.0
  0
SPLINE
  5
272
100
AcDbEntity
  8
Layer_1
 62
7
100
AcDbSpline
 70
8
 71
3
 72
8
 73
4
 74
0
 40
0
 40
0
 40
0
 40
0
 40
1
 40
1
 40
1
 40
1
 10
98.005771
 20
140.910877
 30
0.0
 10
97.531419
 20
140.910877
 30
0.0
 10
97.146882
 20
141.295414
 30
0.0
 10
97.146882
 20
141.769766
 30
0.0
  0
SPLINE
  5
273
100
AcDbEntity
  8
Layer_1
 62
7
100
AcDbSpline
 70
8
 71
3
 72
8
 73
4
 74
0
 40
0
 40
0
 40
0
 40
0
 40
1
 40
1
 40
1
 40
1
 10
97.146882
 20
141.769766
 30
0.0
 10
97.146882
 20
142.244116
 30
0.0
 10
97.531419
 20
142.628655
 30
0.0
 10
98.005771
 20
142.628655
 30
0.0
  0
SPLINE
  5
274
100
AcDbEntity
  8
Layer_1
 62
7
100
AcDbSpline
 70
8
 71
3
 72
8
 73
4
 74
0
 40
0
 40
0
 40
0
 40
0
 40
1
 40
1
 40
1
 40
1
 10
98.005771
 20
142.628655
 30
0.0
 10
98.480123
 20
142.628655
 30
0.0
 10
98.864660
 20
142.244116
 30
0.0
 10
98.864660
 20
141.769766
 30
0.0
  0
LWPOLYLINE
  5
275
100
AcDbEntity
  8
Layer_1
 62
7
100
AcDbPolyline
 90
2
 70
0
 10
98.864660
 20
169.487775
 30
0.0
 10
98.864660
 20
169.487775
 30
0.0
  0
SPLINE
  5
276
100
AcDbEntity
  8
Layer_1
 62
7
100
AcDbSpline
 70
8
 71
3
 72
8
 73
4
 74
0
 40
0
 40
0
 40
0
 40
0
 40
1
 40
1
 40
1
 40
1
 10
129.864675
 20
169.487775
 30
0.0
 10
129.864675
 20
169.013424
 30
0.0
 10
129.480138
 20
168.628887
 30
0.0
 10
129.005786
 20
168.628887
 30
0.0
  0
SPLINE
  5
277
100
AcDbEntity
  8
Layer_1
 62
7
100
AcDbSpline
 70
8
 71
3
 72
8
 73
4
 74
0
 40
0
 40
0
 40
0
 40
0
 40
1
 40
1
 40
1
 40
1
 10
129.005786
 20
168.628887
 30
0.0
 10
128.531434
 20
168.628887
 30
0.0
 10
128.146897
 20
169.013424
 30
0.0
 10
128.146897
 20
169.487775
 30
0.0
  0
SPLINE
  5
278
100
AcDbEntity
  8
Layer_1
 62
7
100
AcDbSpline
 70
8
 71
3
 72
8
 73
4
 74
0
 40
0
 40
0
 40
0
 40
0
 40
1
 40
1
 40
1
 40
1
 10
128.146897
 20
169.487775
 30
0.0
 10
128.146897
 20
169.962126
 30
0.0
 10
128.531434
 20
170.346664
 30
0.0
 10
129.005786
 20
170.346664
 30
0.0
  0
SPLINE
  5
279
100
AcDbEntity
  8
Layer_1
 62
7
100
AcDbSpline
 70
8
 71
3
 72
8
 73
4
 74
0
 40
0
 40
0
 40
0
 40
0
 40
1
 40
1
 40
1
 40
1
 10
129.005786
 20
170.346664
 30
0.0
 10
129.480138
 20
170.346664
 30
0.0
 10
129.864675
 20
169.962126
 30
0.0
 10
129.864675
 20
169.487775
 30
0.0
  0
LWPOLYLINE
  5
27a
100
AcDbEntity
  8
Layer_1
 62
7
100
AcDbPolyline
 90
2
 70
0
 10
98.864660
 20
141.769766
 30
0.0
 10
98.864660
 20
141.769766
 30
0.0
  0
SPLINE
  5
27b
100
AcDbEntity
  8
Layer_1
 62
7
100
AcDbSpline
 70
8
 71
3
 72
8
 73
4
 74
0
 40
0
 40
0
 40
0
 40
0
 40
1
 40
1
 40
1
 40
1
 10
129.864675
 20
141.769766
 30
0.0
 10
129.864675
 20
141.295414
 30
0.0
 10
129.480138
 20
140.910877
 30
0.0
 10
129.005786
 20
140.910877
 30
0.0
  0
SPLINE
  5
27c
100
AcDbEntity
  8
Layer_1
 62
7
100
AcDbSpline
 70
8
 71
3
 72
8
 73
4
 74
0
 40
0
 40
0
 40
0
 40
0
 40
1
 40
1
 40
1
 40
1
 10
129.005786
 20
140.910877
 30
0.0
 10
128.531434
 20
140.910877
 30
0.0
 10
128.146897
 20
141.295414
 30
0.0
 10
128.146897
 20
141.769766
 30
0.0
  0
SPLINE
  5
27d
100
AcDbEntity
  8
Layer_1
 62
7
100
AcDbSpline
 70
8
 71
3
 72
8
 73
4
 74
0
 40
0
 40
0
 40
0
 40
0
 40
1
 40
1
 40
1
 40
1
 10
128.146897
 20
141.769766
 30
0.0
 10
128.146897
 20
142.244116
 30
0.0
 10
128.531434
 20
142.628655
 30
0.0
 10
129.005786
 20
142.628655
 30
0.0
  0
SPLINE
  5
27e
100
AcDbEntity
  8
Layer_1
 62
7
100
AcDbSpline
 70
8
 71
3
 72
8
 73
4
 74
0
 40
0
 40
0
 40
0
 40
0
 40
1
 40
1
 40
1
 40
1
 10
129.005786
 20
142.628655
 30
0.0
 10
129.480138
 20
142.628655
 30
0.0
 10
129.864675
 20
142.244116
 30
0.0
 10
129.864675
 20
141.769766
 30
0.0
  0
LWPOLYLINE
  5
27f
100
AcDbEntity
  8
Layer_1
 62
7
100
AcDbPolyline
 90
2
 70
0
 10
129.864675
 20
169.487775
 30
0.0
 10
129.864675
 20
169.487775
 30
0.0
  0
SPLINE
  5
280
100
AcDbEntity
  8
Layer_1
 62
7
100
AcDbSpline
 70
8
 71
3
 72
8
 73
4
 74
0
 40
0
 40
0
 40
0
 40
0
 40
1
 40
1
 40
1
 40
1
 10
96.864658
 20
155.628768
 30
0.0
 10
96.864658
 20
155.154416
 30
0.0
 10
96.480121
 20
154.769879
 30
0.0
 10
96.005769
 20
154.769879
 30
0.0
  0
SPLINE
  5
281
100
AcDbEntity
  8
Layer_1
 62
7
100
AcDbSpline
 70
8
 71
3
 72
8
 73
4
 74
0
 40
0
 40
0
 40
0
 40
0
 40
1
 40
1
 40
1
 40
1
 10
96.005769
 20
154.769879
 30
0.0
 10
95.531417
 20
154.769879
 30
0.0
 10
95.146881
 20
155.154416
 30
0.0
 10
95.146881
 20
155.628768
 30
0.0
  0
SPLINE
  5
282
100
AcDbEntity
  8
Layer_1
 62
7
100
AcDbSpline
 70
8
 71
3
 72
8
 73
4
 74
0
 40
0
 40
0
 40
0
 40
0
 40
1
 40
1
 40
1
 40
1
 10
95.146881
 20
155.628768
 30
0.0
 10
95.146881
 20
156.103118
 30
0.0
 10
95.531417
 20
156.487657
 30
0.0
 10
96.005769
 20
156.487657
 30
0.0
  0
SPLINE
  5
283
100
AcDbEntity
  8
Layer_1
 62
7
100
AcDbSpline
 70
8
 71
3
 72
8
 73
4
 74
0
 40
0
 40
0
 40
0
 40
0
 40
1
 40
1
 40
1
 40
1
 10
96.005769
 20
156.487657
 30
0.0
 10
96.480121
 20
156.487657
 30
0.0
 10
96.864658
 20
156.103118
 30
0.0
 10
96.864658
 20
155.628768
 30
0.0
  0
LWPOLYLINE
  5
284
100
AcDbEntity
  8
Layer_1
 62
7
100
AcDbPolyline
 90
2
 70
0
 10
129.864675
 20
141.769766
 30
0.0
 10
129.864675
 20
141.769766
 30
0.0
  0
LWPOLYLINE
  5
285
100
AcDbEntity
  8
Layer_1
 62
7
100
AcDbPolyline
 90
2
 70
0
 10
96.864658
 20
155.628768
 30
0.0
 10
96.864658
 20
155.628768
 30
0.0
  0
SPLINE
  5
286
100
AcDbEntity
  8
Layer_1
 62
7
100
AcDbSpline
 70
8
 71
3
 72
8
 73
4
 74
0
 40
0
 40
0
 40
0
 40
0
 40
1
 40
1
 40
1
 40
1
 10
10.903202
 20
203.493582
 30
0.0
 10
10.903202
 20
203.019230
 30
0.0
 10
10.518665
 20
202.634693
 30
0.0
 10
10.044313
 20
202.634693
 30
0.0
  0
SPLINE
  5
287
100
AcDbEntity
  8
Layer_1
 62
7
100
AcDbSpline
 70
8
 71
3
 72
8
 73
4
 74
0
 40
0
 40
0
 40
0
 40
0
 40
1
 40
1
 40
1
 40
1
 10
10.044313
 20
202.634693
 30
0.0
 10
9.569961
 20
202.634693
 30
0.0
 10
9.185424
 20
203.019230
 30
0.0
 10
9.185424
 20
203.493582
 30
0.0
  0
SPLINE
  5
288
100
AcDbEntity
  8
Layer_1
 62
7
100
AcDbSpline
 70
8
 71
3
 72
8
 73
4
 74
0
 40
0
 40
0
 40
0
 40
0
 40
1
 40
1
 40
1
 40
1
 10
9.185424
 20
203.493582
 30
0.0
 10
9.185424
 20
203.967932
 30
0.0
 10
9.569961
 20
204.352471
 30
0.0
 10
10.044313
 20
204.352471
 30
0.0
  0
SPLINE
  5
289
100
AcDbEntity
  8
Layer_1
 62
7
100
AcDbSpline
 70
8
 71
3
 72
8
 73
4
 74
0
 40
0
 40
0
 40
0
 40
0
 40
1
 40
1
 40
1
 40
1
 10
10.044313
 20
204.352471
 30
0.0
 10
10.518665
 20
204.352471
 30
0.0
 10
10.903202
 20
203.967932
 30
0.0
 10
10.903202
 20
203.493582
 30
0.0
  0
LWPOLYLINE
  5
28a
100
AcDbEntity
  8
Layer_1
 62
7
100
AcDbPolyline
 90
5
 70
0
 10
5.185425
 20
205.243465
 30
0.0
 10
44.903202
 20
205.243465
 30
0.0
 10
44.903202
 20
174.025689
 30
0.0
 10
5.185425
 20
174.025689
 30
0.0
 10
5.185425
 20
205.243465
 30
0.0
  0
SPLINE
  5
28b
100
AcDbEntity
  8
Layer_1
 62
7
100
AcDbSpline
 70
8
 71
3
 72
8
 73
4
 74
0
 40
0
 40
0
 40
0
 40
0
 40
1
 40
1
 40
1
 40
1
 10
10.903202
 20
175.775572
 30
0.0
 10
10.903202
 20
175.301221
 30
0.0
 10
10.518665
 20
174.916684
 30
0.0
 10
10.044313
 20
174.916684
 30
0.0
  0
SPLINE
  5
28c
100
AcDbEntity
  8
Layer_1
 62
7
100
AcDbSpline
 70
8
 71
3
 72
8
 73
4
 74
0
 40
0
 40
0
 40
0
 40
0
 40
1
 40
1
 40
1
 40
1
 10
10.044313
 20
174.916684
 30
0.0
 10
9.569961
 20
174.916684
 30
0.0
 10
9.185424
 20
175.301221
 30
0.0
 10
9.185424
 20
175.775572
 30
0.0
  0
SPLINE
  5
28d
100
AcDbEntity
  8
Layer_1
 62
7
100
AcDbSpline
 70
8
 71
3
 72
8
 73
4
 74
0
 40
0
 40
0
 40
0
 40
0
 40
1
 40
1
 40
1
 40
1
 10
9.185424
 20
175.775572
 30
0.0
 10
9.185424
 20
176.249923
 30
0.0
 10
9.569961
 20
176.634461
 30
0.0
 10
10.044313
 20
176.634461
 30
0.0
  0
SPLINE
  5
28e
100
AcDbEntity
  8
Layer_1
 62
7
100
AcDbSpline
 70
8
 71
3
 72
8
 73
4
 74
0
 40
0
 40
0
 40
0
 40
0
 40
1
 40
1
 40
1
 40
1
 10
10.044313
 20
176.634461
 30
0.0
 10
10.518665
 20
176.634461
 30
0.0
 10
10.903202
 20
176.249923
 30
0.0
 10
10.903202
 20
175.775572
 30
0.0
  0
LWPOLYLINE
  5
28f
100
AcDbEntity
  8
Layer_1
 62
7
100
AcDbPolyline
 90
2
 70
0
 10
10.903202
 20
203.493582
 30
0.0
 10
10.903202
 20
203.493582
 30
0.0
  0
SPLINE
  5
290
100
AcDbEntity
  8
Layer_1
 62
7
100
AcDbSpline
 70
8
 71
3
 72
8
 73
4
 74
0
 40
0
 40
0
 40
0
 40
0
 40
1
 40
1
 40
1
 40
1
 10
41.903217
 20
203.493582
 30
0.0
 10
41.903217
 20
203.019230
 30
0.0
 10
41.518680
 20
202.634693
 30
0.0
 10
41.044328
 20
202.634693
 30
0.0
  0
SPLINE
  5
291
100
AcDbEntity
  8
Layer_1
 62
7
100
AcDbSpline
 70
8
 71
3
 72
8
 73
4
 74
0
 40
0
 40
0
 40
0
 40
0
 40
1
 40
1
 40
1
 40
1
 10
41.044328
 20
202.634693
 30
0.0
 10
40.569976
 20
202.634693
 30
0.0
 10
40.185439
 20
203.019230
 30
0.0
 10
40.185439
 20
203.493582
 30
0.0
  0
SPLINE
  5
292
100
AcDbEntity
  8
Layer_1
 62
7
100
AcDbSpline
 70
8
 71
3
 72
8
 73
4
 74
0
 40
0
 40
0
 40
0
 40
0
 40
1
 40
1
 40
1
 40
1
 10
40.185439
 20
203.493582
 30
0.0
 10
40.185439
 20
203.967932
 30
0.0
 10
40.569976
 20
204.352471
 30
0.0
 10
41.044328
 20
204.352471
 30
0.0
  0
SPLINE
  5
293
100
AcDbEntity
  8
Layer_1
 62
7
100
AcDbSpline
 70
8
 71
3
 72
8
 73
4
 74
0
 40
0
 40
0
 40
0
 40
0
 40
1
 40
1
 40
1
 40
1
 10
41.044328
 20
204.352471
 30
0.0
 10
41.518680
 20
204.352471
 30
0.0
 10
41.903217
 20
203.967932
 30
0.0
 10
41.903217
 20
203.493582
 30
0.0
  0
LWPOLYLINE
  5
294
100
AcDbEntity
  8
Layer_1
 62
7
100
AcDbPolyline
 90
2
 70
0
 10
10.903202
 20
175.775572
 30
0.0
 10
10.903202
 20
175.775572
 30
0.0
  0
SPLINE
  5
295
100
AcDbEntity
  8
Layer_1
 62
7
100
AcDbSpline
 70
8
 71
3
 72
8
 73
4
 74
0
 40
0
 40
0
 40
0
 40
0
 40
1
 40
1
 40
1
 40
1
 10
41.903217
 20
175.775572
 30
0.0
 10
41.903217
 20
175.301221
 30
0.0
 10
41.518680
 20
174.916684
 30
0.0
 10
41.044328
 20
174.916684
 30
0.0
  0
SPLINE
  5
296
100
AcDbEntity
  8
Layer_1
 62
7
100
AcDbSpline
 70
8
 71
3
 72
8
 73
4
 74
0
 40
0
 40
0
 40
0
 40
0
 40
1
 40
1
 40
1
 40
1
 10
41.044328
 20
174.916684
 30
0.0
 10
40.569976
 20
174.916684
 30
0.0
 10
40.185439
 20
175.301221
 30
0.0
 10
40.185439
 20
175.775572
 30
0.0
  0
SPLINE
  5
297
100
AcDbEntity
  8
Layer_1
 62
7
100
AcDbSpline
 70
8
 71
3
 72
8
 73
4
 74
0
 40
0
 40
0
 40
0
 40
0
 40
1
 40
1
 40
1
 40
1
 10
40.185439
 20
175.775572
 30
0.0
 10
40.185439
 20
176.249923
 30
0.0
 10
40.569976
 20
176.634461
 30
0.0
 10
41.044328
 20
176.634461
 30
0.0
  0
SPLINE
  5
298
100
AcDbEntity
  8
Layer_1
 62
7
100
AcDbSpline
 70
8
 71
3
 72
8
 73
4
 74
0
 40
0
 40
0
 40
0
 40
0
 40
1
 40
1
 40
1
 40
1
 10
41.044328
 20
176.634461
 30
0.0
 10
41.518680
 20
176.634461
 30
0.0
 10
41.903217
 20
176.249923
 30
0.0
 10
41.903217
 20
175.775572
 30
0.0
  0
LWPOLYLINE
  5
299
100
AcDbEntity
  8
Layer_1
 62
7
100
AcDbPolyline
 90
2
 70
0
 10
41.903217
 20
203.493582
 30
0.0
 10
41.903217
 20
203.493582
 30
0.0
  0
SPLINE
  5
29a
100
AcDbEntity
  8
Layer_1
 62
7
100
AcDbSpline
 70
8
 71
3
 72
8
 73
4
 74
0
 40
0
 40
0
 40
0
 40
0
 40
1
 40
1
 40
1
 40
1
 10
8.903200
 20
189.634574
 30
0.0
 10
8.903200
 20
189.160223
 30
0.0
 10
8.518663
 20
188.775686
 30
0.0
 10
8.044311
 20
188.775686
 30
0.0
  0
SPLINE
  5
29b
100
AcDbEntity
  8
Layer_1
 62
7
100
AcDbSpline
 70
8
 71
3
 72
8
 73
4
 74
0
 40
0
 40
0
 40
0
 40
0
 40
1
 40
1
 40
1
 40
1
 10
8.044311
 20
188.775686
 30
0.0
 10
7.569959
 20
188.775686
 30
0.0
 10
7.185423
 20
189.160223
 30
0.0
 10
7.185423
 20
189.634574
 30
0.0
  0
SPLINE
  5
29c
100
AcDbEntity
  8
Layer_1
 62
7
100
AcDbSpline
 70
8
 71
3
 72
8
 73
4
 74
0
 40
0
 40
0
 40
0
 40
0
 40
1
 40
1
 40
1
 40
1
 10
7.185423
 20
189.634574
 30
0.0
 10
7.185423
 20
190.108925
 30
0.0
 10
7.569959
 20
190.493463
 30
0.0
 10
8.044311
 20
190.493463
 30
0.0
  0
SPLINE
  5
29d
100
AcDbEntity
  8
Layer_1
 62
7
100
AcDbSpline
 70
8
 71
3
 72
8
 73
4
 74
0
 40
0
 40
0
 40
0
 40
0
 40
1
 40
1
 40
1
 40
1
 10
8.044311
 20
190.493463
 30
0.0
 10
8.518663
 20
190.493463
 30
0.0
 10
8.903200
 20
190.108925
 30
0.0
 10
8.903200
 20
189.634574
 30
0.0
  0
LWPOLYLINE
  5
29e
100
AcDbEntity
  8
Layer_1
 62
7
100
AcDbPolyline
 90
2
 70
0
 10
41.903217
 20
175.775572
 30
0.0
 10
41.903217
 20
175.775572
 30
0.0
  0
LWPOLYLINE
  5
29f
100
AcDbEntity
  8
Layer_1
 62
7
100
AcDbPolyline
 90
2
 70
0
 10
8.903200
 20
189.634574
 30
0.0
 10
8.903200
 20
189.634574
 30
0.0
  0
SPLINE
  5
2a0
100
AcDbEntity
  8
Layer_1
 62
7
100
AcDbSpline
 70
8
 71
3
 72
8
 73
4
 74
0
 40
0
 40
0
 40
0
 40
0
 40
1
 40
1
 40
1
 40
1
 10
54.878309
 20
203.493582
 30
0.0
 10
54.878309
 20
203.019230
 30
0.0
 10
54.493772
 20
202.634693
 30
0.0
 10
54.019420
 20
202.634693
 30
0.0
  0
SPLINE
  5
2a1
100
AcDbEntity
  8
Layer_1
 62
7
100
AcDbSpline
 70
8
 71
3
 72
8
 73
4
 74
0
 40
0
 40
0
 40
0
 40
0
 40
1
 40
1
 40
1
 40
1
 10
54.019420
 20
202.634693
 30
0.0
 10
53.545068
 20
202.634693
 30
0.0
 10
53.160532
 20
203.019230
 30
0.0
 10
53.160532
 20
203.493582
 30
0.0
  0
SPLINE
  5
2a2
100
AcDbEntity
  8
Layer_1
 62
7
100
AcDbSpline
 70
8
 71
3
 72
8
 73
4
 74
0
 40
0
 40
0
 40
0
 40
0
 40
1
 40
1
 40
1
 40
1
 10
53.160532
 20
203.493582
 30
0.0
 10
53.160532
 20
203.967932
 30
0.0
 10
53.545068
 20
204.352471
 30
0.0
 10
54.019420
 20
204.352471
 30
0.0
  0
SPLINE
  5
2a3
100
AcDbEntity
  8
Layer_1
 62
7
100
AcDbSpline
 70
8
 71
3
 72
8
 73
4
 74
0
 40
0
 40
0
 40
0
 40
0
 40
1
 40
1
 40
1
 40
1
 10
54.019420
 20
204.352471
 30
0.0
 10
54.493772
 20
204.352471
 30
0.0
 10
54.878309
 20
203.967932
 30
0.0
 10
54.878309
 20
203.493582
 30
0.0
  0
LWPOLYLINE
  5
2a4
100
AcDbEntity
  8
Layer_1
 62
7
100
AcDbPolyline
 90
5
 70
0
 10
49.160532
 20
205.243465
 30
0.0
 10
88.878309
 20
205.243465
 30
0.0
 10
88.878309
 20
174.025689
 30
0.0
 10
49.160532
 20
174.025689
 30
0.0
 10
49.160532
 20
205.243465
 30
0.0
  0
SPLINE
  5
2a5
100
AcDbEntity
  8
Layer_1
 62
7
100
AcDbSpline
 70
8
 71
3
 72
8
 73
4
 74
0
 40
0
 40
0
 40
0
 40
0
 40
1
 40
1
 40
1
 40
1
 10
54.878309
 20
175.775572
 30
0.0
 10
54.878309
 20
175.301221
 30
0.0
 10
54.493772
 20
174.916684
 30
0.0
 10
54.019420
 20
174.916684
 30
0.0
  0
SPLINE
  5
2a6
100
AcDbEntity
  8
Layer_1
 62
7
100
AcDbSpline
 70
8
 71
3
 72
8
 73
4
 74
0
 40
0
 40
0
 40
0
 40
0
 40
1
 40
1
 40
1
 40
1
 10
54.019420
 20
174.916684
 30
0.0
 10
53.545068
 20
174.916684
 30
0.0
 10
53.160532
 20
175.301221
 30
0.0
 10
53.160532
 20
175.775572
 30
0.0
  0
SPLINE
  5
2a7
100
AcDbEntity
  8
Layer_1
 62
7
100
AcDbSpline
 70
8
 71
3
 72
8
 73
4
 74
0
 40
0
 40
0
 40
0
 40
0
 40
1
 40
1
 40
1
 40
1
 10
53.160532
 20
175.775572
 30
0.0
 10
53.160532
 20
176.249923
 30
0.0
 10
53.545068
 20
176.634461
 30
0.0
 10
54.019420
 20
176.634461
 30
0.0
  0
SPLINE
  5
2a8
100
AcDbEntity
  8
Layer_1
 62
7
100
AcDbSpline
 70
8
 71
3
 72
8
 73
4
 74
0
 40
0
 40
0
 40
0
 40
0
 40
1
 40
1
 40
1
 40
1
 10
54.019420
 20
176.634461
 30
0.0
 10
54.493772
 20
176.634461
 30
0.0
 10
54.878309
 20
176.249923
 30
0.0
 10
54.878309
 20
175.775572
 30
0.0
  0
LWPOLYLINE
  5
2a9
100
AcDbEntity
  8
Layer_1
 62
7
100
AcDbPolyline
 90
2
 70
0
 10
54.878309
 20
203.493582
 30
0.0
 10
54.878309
 20
203.493582
 30
0.0
  0
SPLINE
  5
2aa
100
AcDbEntity
  8
Layer_1
 62
7
100
AcDbSpline
 70
8
 71
3
 72
8
 73
4
 74
0
 40
0
 40
0
 40
0
 40
0
 40
1
 40
1
 40
1
 40
1
 10
85.878324
 20
203.493582
 30
0.0
 10
85.878324
 20
203.019230
 30
0.0
 10
85.493787
 20
202.634693
 30
0.0
 10
85.019435
 20
202.634693
 30
0.0
  0
SPLINE
  5
2ab
100
AcDbEntity
  8
Layer_1
 62
7
100
AcDbSpline
 70
8
 71
3
 72
8
 73
4
 74
0
 40
0
 40
0
 40
0
 40
0
 40
1
 40
1
 40
1
 40
1
 10
85.019435
 20
202.634693
 30
0.0
 10
84.545083
 20
202.634693
 30
0.0
 10
84.160547
 20
203.019230
 30
0.0
 10
84.160547
 20
203.493582
 30
0.0
  0
SPLINE
  5
2ac
100
AcDbEntity
  8
Layer_1
 62
7
100
AcDbSpline
 70
8
 71
3
 72
8
 73
4
 74
0
 40
0
 40
0
 40
0
 40
0
 40
1
 40
1
 40
1
 40
1
 10
84.160547
 20
203.493582
 30
0.0
 10
84.160547
 20
203.967932
 30
0.0
 10
84.545083
 20
204.352471
 30
0.0
 10
85.019435
 20
204.352471
 30
0.0
  0
SPLINE
  5
2ad
100
AcDbEntity
  8
Layer_1
 62
7
100
AcDbSpline
 70
8
 71
3
 72
8
 73
4
 74
0
 40
0
 40
0
 40
0
 40
0
 40
1
 40
1
 40
1
 40
1
 10
85.019435
 20
204.352471
 30
0.0
 10
85.493787
 20
204.352471
 30
0.0
 10
85.878324
 20
203.967932
 30
0.0
 10
85.878324
 20
203.493582
 30
0.0
  0
LWPOLYLINE
  5
2ae
100
AcDbEntity
  8
Layer_1
 62
7
100
AcDbPolyline
 90
2
 70
0
 10
54.878309
 20
175.775572
 30
0.0
 10
54.878309
 20
175.775572
 30
0.0
  0
SPLINE
  5
2af
100
AcDbEntity
  8
Layer_1
 62
7
100
AcDbSpline
 70
8
 71
3
 72
8
 73
4
 74
0
 40
0
 40
0
 40
0
 40
0
 40
1
 40
1
 40
1
 40
1
 10
85.878324
 20
175.775572
 30
0.0
 10
85.878324
 20
175.301221
 30
0.0
 10
85.493787
 20
174.916684
 30
0.0
 10
85.019435
 20
174.916684
 30
0.0
  0
SPLINE
  5
2b0
100
AcDbEntity
  8
Layer_1
 62
7
100
AcDbSpline
 70
8
 71
3
 72
8
 73
4
 74
0
 40
0
 40
0
 40
0
 40
0
 40
1
 40
1
 40
1
 40
1
 10
85.019435
 20
174.916684
 30
0.0
 10
84.545083
 20
174.916684
 30
0.0
 10
84.160547
 20
175.301221
 30
0.0
 10
84.160547
 20
175.775572
 30
0.0
  0
SPLINE
  5
2b1
100
AcDbEntity
  8
Layer_1
 62
7
100
AcDbSpline
 70
8
 71
3
 72
8
 73
4
 74
0
 40
0
 40
0
 40
0
 40
0
 40
1
 40
1
 40
1
 40
1
 10
84.160547
 20
175.775572
 30
0.0
 10
84.160547
 20
176.249923
 30
0.0
 10
84.545083
 20
176.634461
 30
0.0
 10
85.019435
 20
176.634461
 30
0.0
  0
SPLINE
  5
2b2
100
AcDbEntity
  8
Layer_1
 62
7
100
AcDbSpline
 70
8
 71
3
 72
8
 73
4
 74
0
 40
0
 40
0
 40
0
 40
0
 40
1
 40
1
 40
1
 40
1
 10
85.019435
 20
176.634461
 30
0.0
 10
85.493787
 20
176.634461
 30
0.0
 10
85.878324
 20
176.249923
 30
0.0
 10
85.878324
 20
175.775572
 30
0.0
  0
LWPOLYLINE
  5
2b3
100
AcDbEntity
  8
Layer_1
 62
7
100
AcDbPolyline
 90
2
 70
0
 10
85.878324
 20
203.493582
 30
0.0
 10
85.878324
 20
203.493582
 30
0.0
  0
SPLINE
  5
2b4
100
AcDbEntity
  8
Layer_1
 62
7
100
AcDbSpline
 70
8
 71
3
 72
8
 73
4
 74
0
 40
0
 40
0
 40
0
 40
0
 40
1
 40
1
 40
1
 40
1
 10
52.878307
 20
189.634574
 30
0.0
 10
52.878307
 20
189.160223
 30
0.0
 10
52.493770
 20
188.775686
 30
0.0
 10
52.019419
 20
188.775686
 30
0.0
  0
SPLINE
  5
2b5
100
AcDbEntity
  8
Layer_1
 62
7
100
AcDbSpline
 70
8
 71
3
 72
8
 73
4
 74
0
 40
0
 40
0
 40
0
 40
0
 40
1
 40
1
 40
1
 40
1
 10
52.019419
 20
188.775686
 30
0.0
 10
51.545067
 20
188.775686
 30
0.0
 10
51.160530
 20
189.160223
 30
0.0
 10
51.160530
 20
189.634574
 30
0.0
  0
SPLINE
  5
2b6
100
AcDbEntity
  8
Layer_1
 62
7
100
AcDbSpline
 70
8
 71
3
 72
8
 73
4
 74
0
 40
0
 40
0
 40
0
 40
0
 40
1
 40
1
 40
1
 40
1
 10
51.160530
 20
189.634574
 30
0.0
 10
51.160530
 20
190.108925
 30
0.0
 10
51.545067
 20
190.493463
 30
0.0
 10
52.019419
 20
190.493463
 30
0.0
  0
SPLINE
  5
2b7
100
AcDbEntity
  8
Layer_1
 62
7
100
AcDbSpline
 70
8
 71
3
 72
8
 73
4
 74
0
 40
0
 40
0
 40
0
 40
0
 40
1
 40
1
 40
1
 40
1
 10
52.019419
 20
190.493463
 30
0.0
 10
52.493770
 20
190.493463
 30
0.0
 10
52.878307
 20
190.108925
 30
0.0
 10
52.878307
 20
189.634574
 30
0.0
  0
LWPOLYLINE
  5
2b8
100
AcDbEntity
  8
Layer_1
 62
7
100
AcDbPolyline
 90
2
 70
0
 10
85.878324
 20
175.775572
 30
0.0
 10
85.878324
 20
175.775572
 30
0.0
  0
LWPOLYLINE
  5
2b9
100
AcDbEntity
  8
Layer_1
 62
7
100
AcDbPolyline
 90
2
 70
0
 10
52.878307
 20
189.634574
 30
0.0
 10
52.878307
 20
189.634574
 30
0.0
  0
SPLINE
  5
2ba
100
AcDbEntity
  8
Layer_1
 62
7
100
AcDbSpline
 70
8
 71
3
 72
8
 73
4
 74
0
 40
0
 40
0
 40
0
 40
0
 40
1
 40
1
 40
1
 40
1
 10
98.864660
 20
203.493582
 30
0.0
 10
98.864660
 20
203.019230
 30
0.0
 10
98.480123
 20
202.634693
 30
0.0
 10
98.005771
 20
202.634693
 30
0.0
  0
SPLINE
  5
2bb
100
AcDbEntity
  8
Layer_1
 62
7
100
AcDbSpline
 70
8
 71
3
 72
8
 73
4
 74
0
 40
0
 40
0
 40
0
 40
0
 40
1
 40
1
 40
1
 40
1
 10
98.005771
 20
202.634693
 30
0.0
 10
97.531419
 20
202.634693
 30
0.0
 10
97.146882
 20
203.019230
 30
0.0
 10
97.146882
 20
203.493582
 30
0.0
  0
SPLINE
  5
2bc
100
AcDbEntity
  8
Layer_1
 62
7
100
AcDbSpline
 70
8
 71
3
 72
8
 73
4
 74
0
 40
0
 40
0
 40
0
 40
0
 40
1
 40
1
 40
1
 40
1
 10
97.146882
 20
203.493582
 30
0.0
 10
97.146882
 20
203.967932
 30
0.0
 10
97.531419
 20
204.352471
 30
0.0
 10
98.005771
 20
204.352471
 30
0.0
  0
SPLINE
  5
2bd
100
AcDbEntity
  8
Layer_1
 62
7
100
AcDbSpline
 70
8
 71
3
 72
8
 73
4
 74
0
 40
0
 40
0
 40
0
 40
0
 40
1
 40
1
 40
1
 40
1
 10
98.005771
 20
204.352471
 30
0.0
 10
98.480123
 20
204.352471
 30
0.0
 10
98.864660
 20
203.967932
 30
0.0
 10
98.864660
 20
203.493582
 30
0.0
  0
LWPOLYLINE
  5
2be
100
AcDbEntity
  8
Layer_1
 62
7
100
AcDbPolyline
 90
5
 70
0
 10
93.146883
 20
205.243465
 30
0.0
 10
132.864660
 20
205.243465
 30
0.0
 10
132.864660
 20
174.025688
 30
0.0
 10
93.146883
 20
174.025688
 30
0.0
 10
93.146883
 20
205.243465
 30
0.0
  0
SPLINE
  5
2bf
100
AcDbEntity
  8
Layer_1
 62
7
100
AcDbSpline
 70
8
 71
3
 72
8
 73
4
 74
0
 40
0
 40
0
 40
0
 40
0
 40
1
 40
1
 40
1
 40
1
 10
98.864660
 20
175.775572
 30
0.0
 10
98.864660
 20
175.301220
 30
0.0
 10
98.480123
 20
174.916684
 30
0.0
 10
98.005771
 20
174.916684
 30
0.0
  0
SPLINE
  5
2c0
100
AcDbEntity
  8
Layer_1
 62
7
100
AcDbSpline
 70
8
 71
3
 72
8
 73
4
 74
0
 40
0
 40
0
 40
0
 40
0
 40
1
 40
1
 40
1
 40
1
 10
98.005771
 20
174.916684
 30
0.0
 10
97.531419
 20
174.916684
 30
0.0
 10
97.146882
 20
175.301220
 30
0.0
 10
97.146882
 20
175.775572
 30
0.0
  0
SPLINE
  5
2c1
100
AcDbEntity
  8
Layer_1
 62
7
100
AcDbSpline
 70
8
 71
3
 72
8
 73
4
 74
0
 40
0
 40
0
 40
0
 40
0
 40
1
 40
1
 40
1
 40
1
 10
97.146882
 20
175.775572
 30
0.0
 10
97.146882
 20
176.249923
 30
0.0
 10
97.531419
 20
176.634461
 30
0.0
 10
98.005771
 20
176.634461
 30
0.0
  0
SPLINE
  5
2c2
100
AcDbEntity
  8
Layer_1
 62
7
100
AcDbSpline
 70
8
 71
3
 72
8
 73
4
 74
0
 40
0
 40
0
 40
0
 40
0
 40
1
 40
1
 40
1
 40
1
 10
98.005771
 20
176.634461
 30
0.0
 10
98.480123
 20
176.634461
 30
0.0
 10
98.864660
 20
176.249923
 30
0.0
 10
98.864660
 20
175.775572
 30
0.0
  0
LWPOLYLINE
  5
2c3
100
AcDbEntity
  8
Layer_1
 62
7
100
AcDbPolyline
 90
2
 70
0
 10
98.864660
 20
203.493582
 30
0.0
 10
98.864660
 20
203.493582
 30
0.0
  0
SPLINE
  5
2c4
100
AcDbEntity
  8
Layer_1
 62
7
100
AcDbSpline
 70
8
 71
3
 72
8
 73
4
 74
0
 40
0
 40
0
 40
0
 40
0
 40
1
 40
1
 40
1
 40
1
 10
129.864675
 20
203.493582
 30
0.0
 10
129.864675
 20
203.019230
 30
0.0
 10
129.480138
 20
202.634693
 30
0.0
 10
129.005786
 20
202.634693
 30
0.0
  0
SPLINE
  5
2c5
100
AcDbEntity
  8
Layer_1
 62
7
100
AcDbSpline
 70
8
 71
3
 72
8
 73
4
 74
0
 40
0
 40
0
 40
0
 40
0
 40
1
 40
1
 40
1
 40
1
 10
129.005786
 20
202.634693
 30
0.0
 10
128.531434
 20
202.634693
 30
0.0
 10
128.146897
 20
203.019230
 30
0.0
 10
128.146897
 20
203.493582
 30
0.0
  0
SPLINE
  5
2c6
100
AcDbEntity
  8
Layer_1
 62
7
100
AcDbSpline
 70
8
 71
3
 72
8
 73
4
 74
0
 40
0
 40
0
 40
0
 40
0
 40
1
 40
1
 40
1
 40
1
 10
128.146897
 20
203.493582
 30
0.0
 10
128.146897
 20
203.967932
 30
0.0
 10
128.531434
 20
204.352471
 30
0.0
 10
129.005786
 20
204.352471
 30
0.0
  0
SPLINE
  5
2c7
100
AcDbEntity
  8
Layer_1
 62
7
100
AcDbSpline
 70
8
 71
3
 72
8
 73
4
 74
0
 40
0
 40
0
 40
0
 40
0
 40
1
 40
1
 40
1
 40
1
 10
129.005786
 20
204.352471
 30
0.0
 10
129.480138
 20
204.352471
 30
0.0
 10
129.864675
 20
203.967932
 30
0.0
 10
129.864675
 20
203.493582
 30
0.0
  0
LWPOLYLINE
  5
2c8
100
AcDbEntity
  8
Layer_1
 62
7
100
AcDbPolyline
 90
2
 70
0
 10
98.864660
 20
175.775572
 30
0.0
 10
98.864660
 20
175.775572
 30
0.0
  0
SPLINE
  5
2c9
100
AcDbEntity
  8
Layer_1
 62
7
100
AcDbSpline
 70
8
 71
3
 72
8
 73
4
 74
0
 40
0
 40
0
 40
0
 40
0
 40
1
 40
1
 40
1
 40
1
 10
129.864675
 20
175.775572
 30
0.0
 10
129.864675
 20
175.301220
 30
0.0
 10
129.480138
 20
174.916684
 30
0.0
 10
129.005786
 20
174.916684
 30
0.0
  0
SPLINE
  5
2ca
100
AcDbEntity
  8
Layer_1
 62
7
100
AcDbSpline
 70
8
 71
3
 72
8
 73
4
 74
0
 40
0
 40
0
 40
0
 40
0
 40
1
 40
1
 40
1
 40
1
 10
129.005786
 20
174.916684
 30
0.0
 10
128.531434
 20
174.916684
 30
0.0
 10
128.146897
 20
175.301220
 30
0.0
 10
128.146897
 20
175.775572
 30
0.0
  0
SPLINE
  5
2cb
100
AcDbEntity
  8
Layer_1
 62
7
100
AcDbSpline
 70
8
 71
3
 72
8
 73
4
 74
0
 40
0
 40
0
 40
0
 40
0
 40
1
 40
1
 40
1
 40
1
 10
128.146897
 20
175.775572
 30
0.0
 10
128.146897
 20
176.249923
 30
0.0
 10
128.531434
 20
176.634461
 30
0.0
 10
129.005786
 20
176.634461
 30
0.0
  0
SPLINE
  5
2cc
100
AcDbEntity
  8
Layer_1
 62
7
100
AcDbSpline
 70
8
 71
3
 72
8
 73
4
 74
0
 40
0
 40
0
 40
0
 40
0
 40
1
 40
1
 40
1
 40
1
 10
129.005786
 20
176.634461
 30
0.0
 10
129.480138
 20
176.634461
 30
0.0
 10
129.864675
 20
176.249923
 30
0.0
 10
129.864675
 20
175.775572
 30
0.0
  0
LWPOLYLINE
  5
2cd
100
AcDbEntity
  8
Layer_1
 62
7
100
AcDbPolyline
 90
2
 70
0
 10
129.864675
 20
203.493582
 30
0.0
 10
129.864675
 20
203.493582
 30
0.0
  0
SPLINE
  5
2ce
100
AcDbEntity
  8
Layer_1
 62
7
100
AcDbSpline
 70
8
 71
3
 72
8
 73
4
 74
0
 40
0
 40
0
 40
0
 40
0
 40
1
 40
1
 40
1
 40
1
 10
96.864658
 20
189.634574
 30
0.0
 10
96.864658
 20
189.160222
 30
0.0
 10
96.480121
 20
188.775686
 30
0.0
 10
96.005769
 20
188.775686
 30
0.0
  0
SPLINE
  5
2cf
100
AcDbEntity
  8
Layer_1
 62
7
100
AcDbSpline
 70
8
 71
3
 72
8
 73
4
 74
0
 40
0
 40
0
 40
0
 40
0
 40
1
 40
1
 40
1
 40
1
 10
96.005769
 20
188.775686
 30
0.0
 10
95.531417
 20
188.775686
 30
0.0
 10
95.146881
 20
189.160222
 30
0.0
 10
95.146881
 20
189.634574
 30
0.0
  0
SPLINE
  5
2d0
100
AcDbEntity
  8
Layer_1
 62
7
100
AcDbSpline
 70
8
 71
3
 72
8
 73
4
 74
0
 40
0
 40
0
 40
0
 40
0
 40
1
 40
1
 40
1
 40
1
 10
95.146881
 20
189.634574
 30
0.0
 10
95.146881
 20
190.108925
 30
0.0
 10
95.531417
 20
190.493463
 30
0.0
 10
96.005769
 20
190.493463
 30
0.0
  0
SPLINE
  5
2d1
100
AcDbEntity
  8
Layer_1
 62
7
100
AcDbSpline
 70
8
 71
3
 72
8
 73
4
 74
0
 40
0
 40
0
 40
0
 40
0
 40
1
 40
1
 40
1
 40
1
 10
96.005769
 20
190.493463
 30
0.0
 10
96.480121
 20
190.493463
 30
0.0
 10
96.864658
 20
190.108925
 30
0.0
 10
96.864658
 20
189.634574
 30
0.0
  0
LWPOLYLINE
  5
2d2
100
AcDbEntity
  8
Layer_1
 62
7
100
AcDbPolyline
 90
2
 70
0
 10
129.864675
 20
175.775572
 30
0.0
 10
129.864675
 20
175.775572
 30
0.0
  0
LWPOLYLINE
  5
2d3
100
AcDbEntity
  8
Layer_1
 62
7
100
AcDbPolyline
 90
2
 70
0
 10
96.864658
 20
189.634574
 30
0.0
 10
96.864658
 20
189.634574
 30
0.0
  0
ENDSEC
  0
SECTION
  2
OBJECTS
  0
DICTIONARY
  5
C
330
0
100
AcDbDictionary
  3
ACAD_GROUP
350
D
  3
ACAD_MLINESTYLE
350
17
  0
DICTIONARY
  5
D
330
C
100
AcDbDictionary
  0
DICTIONARY
  5
1A
330
C
100
AcDbDictionary
  0
DICTIONARY
  5
17
330
C
100
AcDbDictionary
  3
STANDARD
350
18
  0
DICTIONARY
  5
19
330
C
100
AcDbDictionary
  0
ENDSEC
  0
EOF
